<?xml version="1.0" encoding="UTF-8"?>
<svg id="Ebene_2" xmlns="http://www.w3.org/2000/svg" xmlns:xlink="http://www.w3.org/1999/xlink" viewBox="0 0 251.13 291.15">
  <defs>
    <style>
      .cls-1, .cls-2 {
        opacity: .37;
      }

      .cls-1, .cls-3 {
        fill: #16192b;
      }

      .cls-4 {
        fill: url(#Unbenannter_Verlauf_31-2);
      }

      .cls-5 {
        stroke: #1d1f21;
        stroke-miterlimit: 10;
        stroke-width: 19.84px;
      }

      .cls-5, .cls-6 {
        fill: #1d1f21;
      }

      .cls-7 {
        fill: url(#Unbenannter_Verlauf_21);
      }

      .cls-8 {
        fill: url(#Unbenannter_Verlauf_31);
      }

      .cls-9 {
        fill: #6c7485;
      }

      .cls-10 {
        fill: #b5bac1;
      }
    </style>
    <radialGradient id="Unbenannter_Verlauf_31" data-name="Unbenannter Verlauf 31" cx="103.76" cy="25.4" fx="103.76" fy="25.4" r="52.88" gradientUnits="userSpaceOnUse">
      <stop offset="0" stop-color="#e62f2f"/>
      <stop offset=".79" stop-color="#bf1e49"/>
    </radialGradient>
    <radialGradient id="Unbenannter_Verlauf_31-2" data-name="Unbenannter Verlauf 31" cx="165.17" cy="92.4" fx="165.17" fy="92.4" r="93.95" xlink:href="#Unbenannter_Verlauf_31"/>
    <radialGradient id="Unbenannter_Verlauf_21" data-name="Unbenannter Verlauf 21" cx="89.37" cy="110.24" fx="89.37" fy="110.24" r="154.33" gradientUnits="userSpaceOnUse">
      <stop offset="0" stop-color="#c4c9cc"/>
      <stop offset="1" stop-color="#8a8f99"/>
    </radialGradient>
  </defs>
  <g id="Ebene_1-2" data-name="Ebene_1">
    <g>
      <path class="cls-5" d="M234.71,123.7l-33.23-46.03c-4.73-6.54-11.6-11.22-19.43-13.19l-36.21-9.14c1.71-2.85,3.18-4.33,4.48-6.72.88-1.62,4.59-8.46,1.72-13.36-.72-1.24-1.79-2.23-3.03-2.97-2.39-1.41-5.42-1.91-7.93-1.49-1.23.2-2.42.64-3.55,1.28h0s0-.01,0-.01c2.1-6.31,3.58-14.62-.97-19.11-1.51-1.49-3.48-2.35-5.61-2.75-3.74-.71-7.95.01-10.96,1.21-6.16,2.47-9,7.64-11.18,11.64-2.77,5.06-3.97,10.11-4.4,14.42-.6-4.19-2.27-10.56-6.95-12.18-5.17-1.8-11.84,2.97-14.79,7.97-4.44,7.51-.52,16.68,3.14,25.51.34.81.69,1.58,1.04,2.33l-34.3,16.6c-7.27,3.52-13.06,9.48-16.37,16.85l-23.25,51.79c-3.31,7.36-3.91,15.66-1.71,23.42l15.48,54.62c2.2,7.77,7.07,14.51,13.75,19.04l46.97,31.89c6.68,4.53,14.74,6.57,22.77,5.75l56.48-5.76c8.03-.82,15.52-4.44,21.14-10.23l39.56-40.72c5.62-5.79,9.03-13.38,9.62-21.43l4.13-56.62c.59-8.05-1.68-16.05-6.41-22.6Z"/>
      <g>
        <path class="cls-8" d="M150.32,48.61c-1.75,3.22-3.82,4.79-6.35,10.31-.67,1.45-.57,1.45-1.27,2.97,0,0-2.55,5.56-5.8,9.69-1.4,1.79-3.18,3.39-5.21,4.78h0c-8.06,5.53-20.14,7.61-28.94,3.27-2.85-1.4-4.68-3.27-7.33-5.98-1.64-1.66-6.1-6.49-9.6-14.89-3.66-8.83-7.58-18-3.14-25.51,2.95-4.99,9.62-9.76,14.79-7.97,4.68,1.62,6.35,8,6.95,12.18.43-4.31,1.62-9.35,4.4-14.42,2.19-4,5.02-9.17,11.18-11.64,3.01-1.2,7.23-1.92,10.96-1.21,2.13.4,4.1,1.26,5.61,2.75,4.56,4.48,3.08,12.8.97,19.11h0c1.12-.63,2.32-1.07,3.55-1.27,2.51-.42,5.54.08,7.93,1.49,1.24.74,2.31,1.73,3.03,2.97,2.87,4.9-.84,11.74-1.72,13.36Z"/>
        <path class="cls-4" d="M238.1,148.96l-3.69,50.58-.1,1.35c-4.04-1.52-8.18-3.03-12.03-4.41l-2.78-.99-3.54-1.25c-.84-.3-1.79-.3-2.68.04l-.7.27-6.77,2.63c-4.04,1.59-8.67,3.46-13.1,5.31-1.18.49-2.35.98-3.49,1.46-5.17-3.86-9.11-9.37-11.05-15.54-.34-1.24-1.05-2.26-1.96-3.01-2.19-1.8-5.57-2.07-7.92-.11-.06.05-.12.1-.18.16l-3.54,3.07c-2.44-4.47-5.68-8.5-9.56-11.78-.17-.15-.33-.29-.51-.43-1.78-1.49-4.42-1.63-6.37-.19-1.98,1.48-4.12,2.72-6.37,3.68-2.96,1.29-6.11,2.12-9.3,2.45l2.26-2.51c2.1-2.39,3.88-5.11,5.24-8.05,1.37-2.95,2.29-6.12,2.75-9.36.39-1.91-.02-3.94-1.53-5.39,0,0-4.52-4.41-7.47-7.28,3.23-6.36,5.69-13.09,7.32-19.99,1.99-8.39,2.75-17.04,2.26-25.58-.1-.93-.52-1.75-1.15-2.35-.77-.73-1.84-1.14-2.98-1.03l-1.51.16s-.04,0-.05,0c-2.21.39-4.48.44-6.56-.14,8.83-12.82,17.54-25.74,25.83-38.92l5.72,1.45,16.73,4.22c7.79,1.97,14.64,6.62,19.35,13.13l33.08,45.82c4.7,6.51,6.96,14.47,6.38,22.49Z"/>
        <g class="cls-2">
          <path class="cls-3" d="M144.38,137.74c-1.64,6.93-4.11,13.69-7.35,20.08,2.96,2.88,7.51,7.31,7.51,7.31,1.52,1.46,1.93,3.49,1.53,5.42-.45,3.25-1.38,6.44-2.75,9.4-1.19,2.58-2.7,4.98-4.47,7.15-2.96,1.29-6.11,2.12-9.3,2.45l2.26-2.51c.16-3.71,1.16-6.31,2.07-8.04,2.33-4.4,5.54-5.74,5.91-9.36.22-2.2-.71-4.11-1.53-5.39,0,0-4.52-4.41-7.47-7.28,3.23-6.36,5.69-13.09,7.32-19.99,1.99-8.39,2.75-17.04,2.26-25.58-.1-.93-.52-1.75-1.15-2.35.59-.05,1.18-.13,1.76-.23l1.52-.16c2.08-.21,3.94,1.31,4.15,3.39.49,8.57-.27,17.26-2.27,25.7Z"/>
          <path class="cls-3" d="M131.02,100.78c8.83-12.82,17.54-25.74,25.83-38.92l5.72,1.45c-8.03,12.74-16.44,25.22-24.98,37.62-2.21.39-4.48.44-6.56-.14Z"/>
        </g>
        <path class="cls-1" d="M150.32,48.61c-1.75,3.22-3.82,4.79-6.35,10.31-.67,1.45-.57,1.45-1.27,2.97,0,0-2.55,5.56-5.8,9.69-1.4,1.79-3.18,3.39-5.21,4.78h0c-1.98-1.79-3.96-3.59-5.94-5.39,1.35-5.48,2.7-10.97,4.05-16.45.89-.13,13.8-2.17,18.08-12.8,1.48-3.67,1.43-7.14,1.14-9.45,1.24.74,2.31,1.73,3.03,2.97,2.87,4.9-.84,11.74-1.72,13.36Z"/>
        <path class="cls-9" d="M234.41,199.55l-.1,1.35c-4.04-1.52-8.18-3.03-12.03-4.41l-2.78-.99.38-.14c.9-.35,1.85-.34,2.69-.04l6.35,2.25c1.78.64,3.62,1.3,5.49,1.99Z"/>
        <path class="cls-7" d="M236.78,204.88c-.96,7.32-4.25,14.15-9.41,19.46l-39.56,40.72c-5.63,5.79-13.11,9.42-21.14,10.24l-56.48,5.76c-8.03.82-16.09-1.22-22.77-5.75l-46.97-31.89c-6.68-4.53-11.54-11.27-13.75-19.04l-15.48-54.61c-2.2-7.76-1.6-16.06,1.71-23.42l23.25-51.8c3.31-7.36,9.1-13.32,16.37-16.84l51.1-24.73c7.26-3.52,15.54-4.37,23.37-2.38l26.43,6.67c-4.4,5.28-8.72,10.63-13.01,16-6.16,7.7-12.18,15.5-18.18,23.32-1.55,1.98-1.29,4.9.61,6.61,2.73,2.72,6.49,4.54,10.37,4.81,1.52.11,3.03.01,4.48-.29-1.22,13.33-5.77,26.32-13.22,37.39-1.04,1.59-1.19,3.7-.19,5.48l.53.93,5.08,9.02c-.44,2.86-1.55,5.64-3.3,8.12,0,0-9.06,12.31-9.06,12.33-2.97,3.43-1.12,8.93,3.37,9.78,6.37,1.22,12.98,1.01,19.22-.66,4.65-1.23,9.05-3.25,12.98-5.93,2.99,4.04,4.94,8.74,5.66,13.54.18,1.02.62,2.01,1.33,2.86,2.13,2.53,5.92,2.86,8.46.72l.27-.23,3.49-2.94c3.64,6.81,9.05,12.66,15.63,16.74,1.82,1.13,4.18,1.31,6.23.26,2.16-1.1,4.29-2.26,6.44-3.4,5.31-2.87,12.37-6.81,17.86-9.96,5.95,1.08,12.22,2.17,18.3,3.14Z"/>
        <g>
          <path class="cls-6" d="M185.95,170.62c-16.31,1.67-30.88-10.21-32.54-26.52-.44-4.32.07-8.51,1.36-12.37l32.97-15.96-2.06-4.25c13.85,1.27,25.33,12.19,26.8,26.55,1.67,16.31-10.21,30.88-26.52,32.55Z"/>
          <path class="cls-6" d="M155.14,119.49c-1.71,2.29-3.55,5.01-3.36,7.85.08.47.29.62.4.58.1-.02.3.04.75.1,1.11.21,3.41-.09,4.93-.41.63-.11,1.55-.38,2.18-.53,0,0,1.02-.35,1.02-.35,6.13-2.13,9.85-7.44,14.65-11.68,7.37-6.76,17.99-10.55,27.92-9.59,3.87.4,7.7,1.37,11.11,3.31,3.14,1.72,2.8,6.52-.52,7.79-3.2,1.27-6.64,2.01-9.91,2.8-5.8,1.35-11.28,2.38-16.58,4.8-7.21,3.29-13.49,8.67-21.66,10.64-2.21.55-4.56.82-6.83.86-2.96,0-5.76-.13-8.61-1.36-4.38-1.87-5.44-6.51-3.26-10.48,1.36-2.62,3.53-4.74,5.8-6.42,1.38-.99,3.03.8,1.98,2.09h0Z"/>
          <circle class="cls-10" cx="178.93" cy="136.22" r="6.28"/>
          <circle class="cls-10" cx="166.95" cy="145.42" r="3.08"/>
        </g>
        <path class="cls-6" d="M104.56,224.18c9.42,4.69,20.1,7.51,30.63,6.12,10.27-1.37,17.99-6.65,24.28-14.74,1.84-2.29,3.49-4.84,5.26-7.47,1.97-2.93,6.6-1.26,6.28,2.22-.87,9.21-6.26,17.95-13.86,23.22-1.53,1.07-3.24,2.07-4.92,2.88-1.52.77-3.62,1.59-5.25,2.13-8.72,2.8-18.33,2.52-26.98-.33-6.79-2.15-12.89-5.86-17.95-10.47-.89-.82-.96-2.2-.14-3.1.69-.76,1.78-.91,2.65-.47h0Z"/>
        <path class="cls-6" d="M242.94,205.81c-2.01-.29-4.07-.6-6.15-.93-6.08-.96-12.35-2.05-18.3-3.13-5.5,3.14-12.55,7.09-17.86,9.96-2.15,1.14-4.28,2.3-6.44,3.4-2.05,1.05-4.41.88-6.23-.26-6.58-4.08-11.99-9.93-15.63-16.74l-3.49,2.94-.27.23c-2.54,2.14-6.32,1.81-8.45-.72-.71-.85-1.15-1.85-1.32-2.86-.72-4.81-2.67-9.51-5.66-13.55-3.93,2.68-8.33,4.7-12.98,5.94-6.24,1.67-12.85,1.88-19.21.66-4.49-.84-6.34-6.35-3.38-9.78,0-.01,9.07-12.32,9.07-12.32,1.75-2.48,2.86-5.26,3.3-8.12l-5.09-9.01-.52-.93c-1-1.78-.86-3.89.19-5.48,7.44-11.07,11.99-24.06,13.22-37.39-1.46.3-2.97.4-4.48.29-3.88-.27-7.64-2.1-10.37-4.81-1.91-1.71-2.17-4.63-.61-6.61,6-7.82,12.02-15.62,18.17-23.31,4.29-5.38,8.61-10.73,13.01-16,1.91-2.3,3.84-4.59,5.79-6.85,1.89-2.08,5.22.25,3.77,2.75-1.16,1.88-2.33,3.76-3.51,5.63-8.32,13.24-17.07,26.22-25.95,39.1,2.11.59,4.41.54,6.65.14l1.52-.16c2.08-.21,3.94,1.31,4.15,3.39.49,8.58-.27,17.26-2.27,25.69-1.63,6.93-4.11,13.68-7.35,20.08,2.96,2.88,7.5,7.31,7.5,7.31,1.52,1.46,1.94,3.49,1.54,5.41-.45,3.25-1.38,6.44-2.76,9.4-1.36,2.96-3.15,5.69-5.26,8.09l-2.28,2.53c5.65-.59,11.12-2.72,15.74-6.17,1.96-1.45,4.61-1.31,6.41.19,4.11,3.37,7.56,7.58,10.11,12.27l3.55-3.08c3.34-3.01,8.93-1.33,10.1,2.97,1.95,6.21,5.91,11.73,11.11,15.61,5.43-2.3,11.52-4.78,16.66-6.81l6.8-2.64.7-.27c.89-.35,1.85-.34,2.69-.04l6.35,2.24c3.87,1.39,8.03,2.9,12.09,4.43,2.35.88,4.66,1.78,6.87,2.65,2.59,1.06,1.65,5.06-1.25,4.7Z"/>
        <g>
          <path class="cls-6" d="M94.38,174.93c-2.94-3.38-10.65-5.25-19.44-4.35-6.75.69-12.55,2.85-15.87,5.58-6.92-4.77-11.78-12.43-12.7-21.44-1.67-16.31,10.21-30.88,26.52-32.54,16.31-1.67,30.88,10.21,32.55,26.52,1.06,10.44-3.42,20.16-11.05,26.24Z"/>
          <path class="cls-6" d="M104.11,178.56c-18.79-5-34.21-4.55-52.59,1.85-.35.13-.67-.36-.38-.62,10.47-10.16,26.98-13.08,40.72-8.73,4.61,1.47,8.98,3.7,12.59,6.86.29.24.03.75-.34.64h0Z"/>
          <circle class="cls-10" cx="68.62" cy="138.57" r="6.28"/>
          <circle class="cls-10" cx="56.64" cy="147.77" r="3.08"/>
        </g>
        <g>
          <path class="cls-6" d="M37.85,79.34c4.45,3.97,8.9,7.95,13.34,11.92.26.23.59.38.94.41l17.25,1.66c1.72.16,2.05,2.53.45,3.16-3.86,1.53-7.73,3.07-11.59,4.6-4.72-.87-9.83-1.81-14.55-2.68-4.77-4.38-9.55-8.76-14.32-13.14-.83-.76-.67-2.1.31-2.65,2.09-1.16,4.19-2.32,6.28-3.49.61-.34,1.37-.25,1.89.21Z"/>
          <path class="cls-6" d="M49.45,225.3c-2.04.35-4.08.7-6.12,1.05-.89.15-1.73-.44-1.89-1.33l-.65-3.57c-.3-1.66-2.62-1.84-3.17-.24l-2.32,6.73c-.14.42-.45.76-.85.95-4.41,2.09-8.82,4.18-13.23,6.26-1.17.55-1.27,2.17-.18,2.87,2.55,1.64,5.11,3.27,7.66,4.91.5.32,1.13.35,1.65.07,5.99-3.14,11.99-6.27,17.98-9.41.32-.17.69-.22,1.04-.16,2.69.46,5.39.93,8.08,1.39,1.68.29,2.63-1.86,1.29-2.91-2.66-2.09-5.32-4.19-7.98-6.28-.37-.29-.84-.41-1.29-.33Z"/>
          <path class="cls-6" d="M172.82,276.53l-1.28-15.85c-.14-1.76,2.21-2.47,3.07-.93l6.99,12.53c.44.78.16,1.77-.61,2.22l-5.71,3.32c-1.04.61-2.37-.08-2.46-1.29Z"/>
        </g>
      </g>
    </g>
  </g>
</svg>