<?xml version="1.0" encoding="UTF-8"?>
<svg id="Ebene_2" data-name="Ebene 2" xmlns="http://www.w3.org/2000/svg" xmlns:xlink="http://www.w3.org/1999/xlink" viewBox="0 0 1080 1080">
  <defs>
    <style>
      .cls-1 {
        stroke: #1d1f21;
        stroke-miterlimit: 10;
        stroke-width: 65.49px;
      }

      .cls-1, .cls-2 {
        fill: #b5bac1;
      }

      .cls-3, .cls-4 {
        opacity: .37;
      }

      .cls-3, .cls-5 {
        fill: #16192b;
      }

      .cls-6 {
        fill: #fff;
      }

      .cls-7 {
        fill: url(#Unbenannter_Verlauf_31-2);
      }

      .cls-8 {
        fill: url(#Unbenannter_Verlauf_31-3);
      }

      .cls-9 {
        fill: url(#Unbenannter_Verlauf_31-4);
      }

      .cls-10 {
        fill: url(#Unbenannter_Verlauf_21-2);
      }

      .cls-11 {
        fill: url(#Unbenannter_Verlauf_21-3);
      }

      .cls-12 {
        fill: url(#Unbenannter_Verlauf_21);
      }

      .cls-13 {
        fill: url(#Unbenannter_Verlauf_31);
      }

      .cls-14 {
        fill: #1d1f21;
      }
    </style>
    <radialGradient id="Unbenannter_Verlauf_31" data-name="Unbenannter Verlauf 31" cx="464.9" cy="62.35" fx="464.9" fy="62.35" r="181.35" gradientUnits="userSpaceOnUse">
      <stop offset="0" stop-color="#e62f2f"/>
      <stop offset=".79" stop-color="#bf1e49"/>
    </radialGradient>
    <radialGradient id="Unbenannter_Verlauf_31-2" data-name="Unbenannter Verlauf 31" cx="677.78" cy="467.96" fx="677.78" fy="467.96" r="15.46" xlink:href="#Unbenannter_Verlauf_31"/>
    <radialGradient id="Unbenannter_Verlauf_31-3" data-name="Unbenannter Verlauf 31" cx="714.89" cy="430.15" fx="714.89" fy="430.15" r="31.56" xlink:href="#Unbenannter_Verlauf_31"/>
    <radialGradient id="Unbenannter_Verlauf_31-4" data-name="Unbenannter Verlauf 31" cx="681.38" cy="290.76" fx="681.38" fy="290.76" r="315.83" xlink:href="#Unbenannter_Verlauf_31"/>
    <radialGradient id="Unbenannter_Verlauf_21" data-name="Unbenannter Verlauf 21" cx="300.13" cy="477" fx="300.13" fy="477" r="14.2" gradientUnits="userSpaceOnUse">
      <stop offset="0" stop-color="#c4c9cc"/>
      <stop offset="1" stop-color="#8a8f99"/>
    </radialGradient>
    <radialGradient id="Unbenannter_Verlauf_21-2" data-name="Unbenannter Verlauf 21" cx="337.91" cy="440.23" fx="337.91" fy="440.23" r="28.96" xlink:href="#Unbenannter_Verlauf_21"/>
    <radialGradient id="Unbenannter_Verlauf_21-3" data-name="Unbenannter Verlauf 21" cx="415.51" cy="353.3" fx="415.51" fy="353.3" r="529.27" xlink:href="#Unbenannter_Verlauf_21"/>
  </defs>
  <g id="Ebene_1-2" data-name="Ebene 1">
    <rect class="cls-14" width="1080" height="1080"/>
    <g>
      <path class="cls-13" d="M624.56,141.94c-6,11.06-13.09,16.42-21.79,35.35-2.29,4.98-1.97,4.96-4.36,10.18,0,0-8.74,19.07-19.89,33.24-4.81,6.12-10.89,11.61-17.86,16.4l-.02.02c-27.65,18.94-69.08,26.07-99.26,11.2-9.77-4.81-16.04-11.2-25.15-20.5-5.61-5.69-20.93-22.26-32.91-51.08-12.55-30.27-25.99-61.73-10.77-87.49,10.12-17.12,32.99-33.48,50.73-27.32,16.03,5.55,21.77,27.42,23.84,41.78,1.47-14.77,5.57-32.07,15.07-49.44,7.49-13.72,17.22-31.46,38.36-39.91,10.32-4.12,24.78-6.59,37.6-4.16,7.29,1.37,14.05,4.32,19.23,9.44,15.63,15.38,10.55,43.89,3.34,65.53l-.02.02v.02c3.85-2.21,7.95-3.71,12.16-4.4,8.6-1.43,19.01.27,27.2,5.1,4.26,2.54,7.93,5.94,10.4,10.18,9.83,16.81-2.89,40.26-5.9,45.83Z"/>
      <path class="cls-7" d="M671.11,475.05c-.59-5.8,3.64-10.98,9.44-11.57,5.8-.59,10.98,3.62,11.57,9.42.59,5.8-3.63,11-9.42,11.57-5.82.59-11-3.62-11.59-9.42Z"/>
      <path class="cls-8" d="M701.27,444.61c-.84-8.23,3.05-15.83,9.48-20.11,1.02-.7,2.11-1.29,3.28-1.8,2.01-.88,4.18-1.47,6.47-1.7,11.84-1.21,22.42,7.39,23.63,19.23,1.21,11.84-7.41,22.42-19.25,23.63-11.84,1.21-22.41-7.41-23.61-19.25Z"/>
      <path class="cls-9" d="M903.75,409l-113.44-157.16c-16.14-22.32-39.63-38.28-66.35-45.03l-57.38-14.48-17.55-4.42c-26.42,41.59-54.03,82.45-81.98,123.04,6.49,1.8,13.52,1.86,20.42.84.8-.1,1.58-.23,2.37-.37l5.22-.53c7.13-.74,13.5,4.49,14.23,11.61.57,10.16.66,20.38.2,30.58-.84,19.31-3.5,38.62-7.99,57.55-5.61,23.76-14.09,46.94-25.21,68.85,4.1,3.97,9.05,8.83,13.54,13.19,6.64,6.45,12.21,11.88,12.21,11.88,5.2,5,6.64,11.98,5.26,18.58-.82,5.84-2.09,11.61-3.79,17.24-1.54,5.14-3.42,10.16-5.67,14.99-4.67,10.14-10.81,19.5-18.04,27.73l-7.8,8.66c11.12-1.17,22.04-4.08,32.32-8.58,7.64-3.32,14.91-7.54,21.67-12.57,6.72-4.98,15.83-4.51,21.97.63,14.11,11.57,25.91,25.99,34.67,42.09l12.19-10.57c11.45-10.32,30.62-4.57,34.63,10.2,6.7,21.28,20.28,40.22,38.09,53.53,18.62-7.88,39.53-16.38,57.16-23.35l23.33-9.07,2.42-.92c3.07-1.21,6.35-1.17,9.22-.14l21.79,7.7c10.3,3.69,21.18,7.64,32.05,11.69l12.12-166.25c2.01-27.48-5.75-54.8-21.87-77.13ZM851.08,368.51c-1.92,3.42-4.93,5.65-8.4,6.86-5.65,2.25-11.3,3.77-17.02,5.28-6.37,1.72-12.76,3.19-19.13,4.65,17.04,16.16,28.59,38.28,31.17,63.47,5.71,55.95-35,105.92-90.95,111.63-55.93,5.71-105.92-35.02-111.61-90.95-1.06-10.4-.53-20.58,1.41-30.33-27.18-4.53-33.57-27.24-16.38-47.98,4.24-5.22,9.03-9.56,14.15-13.29,2.21-1.62,5.32-1.13,6.94,1.09,1.37,1.88,1.23,4.38-.16,6.08-5.86,7.84-12.19,17.18-11.53,26.95.27,1.6,1,2.11,1.37,1.99.33-.08,1.02.12,2.58.33,3.81.7,11.69-.29,16.9-1.41,2.15-.37,5.32-1.29,7.47-1.82l3.5-1.21c21.01-7.31,33.77-25.5,50.24-40.06,25.27-23.16,61.7-36.17,95.74-32.87,13.27,1.37,26.42,4.71,38.09,11.35,7.15,4.06,9.65,13.11,5.61,20.25Z"/>
      <g class="cls-4">
        <path class="cls-5" d="M604.75,541.54c5.2,5,6.63,11.98,5.26,18.58-1.11,7.84-2.99,15.58-5.69,23.04-10.28,4.51-21.2,7.41-32.32,8.58l7.8-8.66c7.23-8.23,13.37-17.59,18.04-27.73,2.25-4.83,4.14-9.85,5.67-14.99.8.76,1.23,1.19,1.23,1.19Z"/>
        <path class="cls-5" d="M576.31,479.47c11.12-21.91,19.6-45.1,25.21-68.85,4.48-18.92,7.15-38.24,7.99-57.55,1.35,1.82,2.25,4.01,2.5,6.43,1.68,29.41-.92,59.21-7.78,88.12-3.62,15.32-8.42,30.39-14.38,45.03-4.48-4.36-9.44-9.22-13.54-13.19Z"/>
        <path class="cls-5" d="M666.58,192.33c-25.46,40.41-52.06,80.08-79.11,119.46-6.9,1.02-13.93.96-20.42-.84,27.95-40.59,55.56-81.45,81.98-123.04l17.55,4.42Z"/>
      </g>
      <path class="cls-3" d="M624.56,141.94c-6,11.06-13.09,16.42-21.79,35.35-2.29,4.98-1.97,4.96-4.36,10.18,0,0-8.74,19.07-19.89,33.24-4.81,6.12-10.89,11.61-17.86,16.4l-.02.02c-6.79-6.17-13.58-12.34-20.37-18.51,4.63-18.8,9.26-37.61,13.88-56.41,3.07-.44,47.34-7.46,62-43.88,5.07-12.6,4.89-24.47,3.9-32.4,4.26,2.54,7.93,5.94,10.4,10.18,9.83,16.81-2.89,40.26-5.9,45.83Z"/>
      <path class="cls-12" d="M313.8,480.94c.59,5.82-3.62,11-9.44,11.59-5.8.57-10.98-3.65-11.57-9.44-.59-5.8,3.64-10.98,9.44-11.57,5.8-.59,10.98,3.62,11.57,9.42Z"/>
      <path class="cls-10" d="M365.8,448.28c1.21,11.84-7.39,22.42-19.23,23.63-11.84,1.21-22.42-7.41-23.63-19.25-1.21-11.84,7.41-22.4,19.25-23.61,11.84-1.21,22.4,7.39,23.61,19.23Z"/>
      <path class="cls-11" d="M858.35,667.12c-8.83,5.06-18.84,10.71-28.86,16.32-2.33,1.31-4.67,2.62-7,3.91-8.97,4.98-17.71,9.79-25.39,13.93-7.35,3.89-14.68,7.86-22.1,11.65-7.02,3.6-15.11,3.01-21.34-.88-22.57-14.01-41.14-34.08-53.62-57.42l-11.98,10.1-.92.78c-8.7,7.33-21.69,6.21-29-2.48-1.23-1.45-2.21-3.03-2.95-4.69-.2-.41-.37-.84-.53-1.25-.16-.43-.31-.84-.43-1.27-.12-.43-.25-.86-.35-1.29-.12-.45-.2-.88-.29-1.31-.12-.78-.24-1.54-.37-2.31-.12-.78-.27-1.54-.43-2.31-.14-.76-.31-1.54-.49-2.29-1.25-5.61-2.99-11.16-5.2-16.55-.24-.59-.49-1.19-.74-1.76-2.58-6.04-5.75-11.88-9.48-17.39-.41-.61-.84-1.25-1.29-1.86-.45-.66-.92-1.31-1.41-1.97-.84.57-1.68,1.13-2.54,1.68-3.42,2.23-6.94,4.32-10.55,6.25-1.8.98-3.62,1.9-5.47,2.79-1.84.9-3.73,1.76-5.61,2.56-.8.35-1.6.7-2.4,1-.51.22-1.02.43-1.56.63-1.04.43-2.11.84-3.17,1.23-.92.35-1.86.68-2.81,1-1.25.45-2.5.86-3.75,1.25-.86.27-1.7.53-2.56.78-1.37.41-2.74.8-4.12,1.17-21.4,5.73-44.05,6.45-65.88,2.27-1.04-.2-2.05-.47-3.01-.82-.45-.14-.88-.33-1.31-.51-3.19-1.37-5.84-3.5-7.82-6.08-.18-.2-.35-.43-.49-.66-.18-.25-.35-.47-.49-.72-.47-.74-.9-1.5-1.27-2.27-.12-.2-.22-.43-.31-.63-.86-1.92-1.41-3.95-1.66-6.02-.04-.27-.06-.55-.08-.82-.04-.29-.06-.57-.06-.86-.04-.88-.02-1.76.06-2.62.02-.29.04-.57.08-.88.02-.18.06-.39.08-.59.14-.96.37-1.93.68-2.85.08-.29.18-.55.29-.84.18-.57.41-1.13.68-1.68.12-.29.27-.55.41-.82.29-.55.59-1.09.92-1.6.27-.41.53-.82.86-1.21.27-.37.55-.74.86-1.09,0,0,.27-.37.78-1.04.06-.12.14-.25.27-.37.35-.47.78-1.06,1.29-1.76.1-.16.22-.31.35-.47.06-.08.12-.18.18-.27.14-.2.31-.41.47-.63,1.09-1.49,2.42-3.28,3.87-5.26.31-.41.63-.84.94-1.27.55-.76,1.11-1.52,1.7-2.31.53-.74,1.11-1.49,1.68-2.27,3.19-4.34,6.64-9.03,9.73-13.23.39-.53.78-1.04,1.15-1.56,3.6-4.87,6.59-8.93,7.93-10.75.16-.23.31-.43.43-.57.16-.23.29-.39.33-.45v-.02c.55-.8,1.11-1.6,1.64-2.42.51-.82,1.02-1.64,1.52-2.48.43-.74.86-1.49,1.25-2.25.37-.68.7-1.33,1.02-2.01.33-.63.63-1.29.92-1.95.12-.27.24-.53.35-.82.22-.51.45-1.02.65-1.54.47-1.17.92-2.35,1.31-3.54.31-.9.59-1.78.84-2.68.27-.9.51-1.8.74-2.7.14-.63.29-1.25.43-1.88.1-.49.2-.98.29-1.45.14-.72.27-1.43.37-2.15l-17.43-30.9-1.8-3.17c-1.76-3.13-2.5-6.55-2.27-9.89v-.35c.02-.22.04-.47.08-.7.02-.27.06-.55.12-.82.02-.27.06-.53.14-.8.04-.16.06-.33.12-.49.04-.31.12-.59.22-.9.25-.88.57-1.72.96-2.54.16-.41.37-.78.59-1.17.18-.39.41-.76.65-1.13.8-1.19,1.6-2.38,2.38-3.58,1.11-1.68,2.17-3.38,3.24-5.1.14-.22.29-.45.41-.68,1.06-1.72,2.09-3.44,3.09-5.18,1.49-2.56,2.95-5.14,4.34-7.74.63-1.17,1.27-2.33,1.86-3.52.35-.63.67-1.27.98-1.9,1.15-2.23,2.25-4.46,3.32-6.74,1.62-3.38,3.17-6.8,4.63-10.26.49-1.15.98-2.29,1.45-3.46.47-1.15.94-2.31,1.39-3.48.55-1.37,1.08-2.76,1.6-4.14.37-.96.72-1.92,1.06-2.89.43-1.17.86-2.35,1.27-3.54.84-2.38,1.62-4.75,2.37-7.13.45-1.35.86-2.72,1.27-4.1.41-1.31.8-2.62,1.15-3.93,1.02-3.58,1.99-7.17,2.85-10.79.24-.96.47-1.95.7-2.93.29-1.21.55-2.44.82-3.67,1.02-4.69,1.92-9.42,2.7-14.17.29-1.74.55-3.48.8-5.22.14-.94.27-1.88.39-2.85.16-1.23.33-2.46.47-3.69.31-2.5.57-5.02.8-7.54-5,1.04-10.16,1.37-15.38,1-13.29-.94-26.19-7.19-35.53-16.51-.92-.82-1.74-1.74-2.42-2.7-.18-.22-.37-.47-.51-.74,0-.02-.02-.02-.02-.02-.33-.49-.61-1-.84-1.54-.27-.51-.51-1.04-.72-1.6-.2-.55-.37-1.09-.51-1.64-.37-1.41-.55-2.85-.55-4.3,0-.9.06-1.8.2-2.68.08-.43.16-.88.27-1.31.2-.88.49-1.74.86-2.58.14-.31.29-.63.45-.94.12-.25.25-.49.39-.72.16-.29.33-.55.51-.82.23-.39.49-.74.78-1.11,20.56-26.81,41.21-53.55,62.32-79.95,14.7-18.43,29.53-36.78,44.62-54.89l-26.07-6.57-34.26-8.66h-.02l-30.29-7.64c-26.85-6.8-55.23-3.89-80.14,8.17l-57.61,27.89-117.63,56.93c-11.8,5.69-22.47,13.31-31.62,22.38,9.01,8.03,18,16.08,26.99,24.1.9.8,2.03,1.29,3.22,1.41l59.16,5.67c5.88.57,7.05,8.66,1.54,10.85-13.25,5.26-26.5,10.51-39.75,15.77-16.2-2.99-33.71-6.21-49.91-9.2-7.41-6.8-14.83-13.62-22.24-20.42-1.25,2.33-2.44,4.73-3.52,7.17l-79.73,177.66c-11.34,25.23-13.41,53.7-5.86,80.32l53.1,187.31c2.33,8.23,5.53,16.12,9.52,23.55,5.67-2.68,11.35-5.37,17.02-8.05,1.37-.66,2.42-1.82,2.91-3.26l7.97-23.08c1.9-5.47,9.83-4.87,10.87.84l2.21,12.25c.55,3.03,3.46,5.06,6.51,4.55,6.98-1.21,13.99-2.42,20.99-3.62,1.58-.27,3.17.14,4.44,1.13,9.11,7.19,18.25,14.36,27.38,21.54,4.59,3.62,1.31,10.98-4.44,9.97-9.24-1.58-18.47-3.17-27.71-4.75-1.21-.22-2.48-.02-3.56.55-13.91,7.27-27.81,14.56-41.72,21.83,4.57,4.32,9.48,8.29,14.75,11.86l161.07,109.36c22.92,15.54,50.56,22.55,78.11,19.72l193.7-19.76c6.96-.7,13.8-2.03,20.44-3.93l-3.73-46.2c-.49-6.04,7.6-8.48,10.55-3.19l20.87,37.44c8.87-5.26,17.08-11.71,24.37-19.21l135.68-139.65c17.69-18.21,29-41.63,32.28-66.74-20.83-3.3-42.33-7.04-62.75-10.75ZM285.7,593.93c-1.19.45-2.27-1.23-1.29-2.11,6.55-6.37,13.8-11.9,21.56-16.61-20.73-16.47-35.02-40.94-37.93-69.34-5.71-55.93,35.02-105.92,90.95-111.61,55.95-5.71,105.92,35,111.63,90.95,3.28,32.07-8.72,62.18-30.1,83.09,9.67,4.46,18.74,10.12,26.7,17.1.98.84.1,2.58-1.17,2.21-64.43-17.16-117.33-15.61-180.36,6.33ZM695.56,696.55c-3.01,31.58-21.48,61.54-47.53,79.62-5.26,3.67-11.14,7.11-16.9,9.89-5.2,2.64-12.41,5.43-18,7.29-29.9,9.58-62.87,8.64-92.53-1.15-23.29-7.37-44.22-20.11-61.54-35.92-3.07-2.79-3.3-7.56-.49-10.61,2.37-2.62,6.1-3.13,9.07-1.6,32.32,16.06,68.91,25.74,105.04,20.99,35.23-4.69,61.7-22.81,83.29-50.54,6.31-7.84,11.96-16.59,18.06-25.6,6.74-10.06,22.61-4.34,21.52,7.62Z"/>
      <g>
        <path class="cls-14" d="M692.12,472.9c.59,5.8-3.63,11-9.42,11.57-5.82.59-11-3.62-11.59-9.42s3.64-10.98,9.44-11.57c5.8-.59,10.98,3.62,11.57,9.42Z"/>
        <path class="cls-14" d="M724.89,463.86c-11.84,1.21-22.41-7.41-23.61-19.25-.84-8.23,3.05-15.83,9.48-20.11,1.02-.7,2.11-1.29,3.28-1.8,2.01-.88,4.18-1.47,6.47-1.7,11.84-1.21,22.42,7.39,23.63,19.23,1.21,11.84-7.41,22.42-19.25,23.63Z"/>
        <path class="cls-14" d="M714.03,422.7c-1.08.61-2.17,1.21-3.28,1.8,1.02-.7,2.11-1.29,3.28-1.8Z"/>
        <path class="cls-2" d="M724.89,463.86c-11.84,1.21-22.41-7.41-23.61-19.25-.84-8.23,3.05-15.83,9.48-20.11,1.02-.7,2.11-1.29,3.28-1.8,2.01-.88,4.18-1.47,6.47-1.7,11.84-1.21,22.42,7.39,23.63,19.23,1.21,11.84-7.41,22.42-19.25,23.63Z"/>
        <path class="cls-2" d="M682.7,484.47c-5.82.59-11-3.62-11.59-9.42s3.64-10.98,9.44-11.57c5.8-.59,10.98,3.62,11.57,9.42.59,5.8-3.63,11-9.42,11.57Z"/>
      </g>
      <g>
        <path class="cls-14" d="M313.8,480.94c.59,5.82-3.62,11-9.44,11.59-5.8.57-10.98-3.65-11.57-9.44-.59-5.8,3.64-10.98,9.44-11.57,5.8-.59,10.98,3.62,11.57,9.42Z"/>
        <path class="cls-14" d="M346.57,471.91c-11.84,1.21-22.42-7.41-23.63-19.25-1.21-11.84,7.41-22.4,19.25-23.61,11.84-1.21,22.4,7.39,23.61,19.23,1.21,11.84-7.39,22.42-19.23,23.63Z"/>
        <path class="cls-2" d="M346.57,471.91c-11.84,1.21-22.42-7.41-23.63-19.25-1.21-11.84,7.41-22.4,19.25-23.61,11.84-1.21,22.4,7.39,23.61,19.23,1.21,11.84-7.39,22.42-19.23,23.63Z"/>
        <path class="cls-2" d="M304.36,492.54c-5.8.57-10.98-3.65-11.57-9.44-.59-5.8,3.64-10.98,9.44-11.57,5.8-.59,10.98,3.62,11.57,9.42.59,5.82-3.62,11-9.44,11.59Z"/>
      </g>
    </g>
    <g>
      <g>
        <path class="cls-1" d="M962.25,801.34l-78.81,70.25-73.74-50.59,34.31-63.45v-147.94h-72.88v51.45h34.38v54.68c-37.88,52.52-75.75,105.04-113.63,157.57,13.89,25.7,27.79,51.4,41.68,77.1h238.91c13.89-25.7,27.79-51.4,41.68-77.1-17.3-23.99-34.6-47.98-51.9-71.96Z"/>
        <path class="cls-1" d="M941.4,772.42c-13.63-18.9-27.25-37.79-40.88-56.69v-54.68h34.38v-51.45h-55.43v156.91l-23.4,43.28,24.52,16.82,60.81-54.2Z"/>
      </g>
      <g>
        <path class="cls-6" d="M962.25,801.34l-78.81,70.25-73.74-50.59,34.31-63.45v-147.94h-72.88v51.45h34.38v54.68c-37.88,52.52-75.75,105.05-113.63,157.57,13.89,25.7,27.79,51.4,41.68,77.1h238.91c13.89-25.7,27.79-51.4,41.68-77.1-17.3-23.99-34.6-47.98-51.9-71.96Z"/>
        <path class="cls-2" d="M934.89,661.06v-51.45h-55.43v156.91l-23.4,43.28,24.52,16.82,60.81-54.2c-13.63-18.9-27.25-37.79-40.88-56.69v-54.68h34.38Z"/>
      </g>
    </g>
  </g>
</svg>