<?xml version="1.0" encoding="UTF-8"?>
<svg id="Ebene_2" xmlns="http://www.w3.org/2000/svg" xmlns:xlink="http://www.w3.org/1999/xlink" viewBox="0 0 382.27 454.35">
  <defs>
    <style>
      .cls-1, .cls-2 {
        opacity: .37;
      }

      .cls-1, .cls-3 {
        fill: #16192b;
      }

      .cls-4 {
        fill: url(#Unbenannter_Verlauf_31-2);
      }

      .cls-5 {
        fill: url(#Unbenannter_Verlauf_31-3);
      }

      .cls-6 {
        fill: url(#Unbenannter_Verlauf_21-2);
      }

      .cls-7 {
        fill: url(#Unbenannter_Verlauf_21);
      }

      .cls-8 {
        fill: url(#Unbenannter_Verlauf_31);
      }

      .cls-9 {
        fill: url(#Unbenannter_Verlauf_44);
      }

      .cls-10 {
        fill: #b5bac1;
      }

      .cls-11 {
        fill: #1d1f21;
      }
    </style>
    <radialGradient id="Unbenannter_Verlauf_44" data-name="Unbenannter Verlauf 44" cx="157.15" cy="25.93" fx="157.15" fy="25.93" r="88.55" gradientUnits="userSpaceOnUse">
      <stop offset="0" stop-color="#bd1531"/>
      <stop offset=".79" stop-color="#8c0e42"/>
    </radialGradient>
    <radialGradient id="Unbenannter_Verlauf_21" data-name="Unbenannter Verlauf 21" cx="261.43" cy="224.46" fx="261.43" fy="224.46" r="6.93" gradientUnits="userSpaceOnUse">
      <stop offset="0" stop-color="#c4c9cc"/>
      <stop offset="1" stop-color="#8a8f99"/>
    </radialGradient>
    <radialGradient id="Unbenannter_Verlauf_21-2" data-name="Unbenannter Verlauf 21" cx="268.4" cy="148.45" fx="268.4" fy="148.45" r="141.27" xlink:href="#Unbenannter_Verlauf_21"/>
    <radialGradient id="Unbenannter_Verlauf_31" data-name="Unbenannter Verlauf 31" cx="76.37" cy="227.91" fx="76.37" fy="227.91" r="7.55" gradientUnits="userSpaceOnUse">
      <stop offset="0" stop-color="#e62f2f"/>
      <stop offset=".79" stop-color="#bf1e49"/>
    </radialGradient>
    <radialGradient id="Unbenannter_Verlauf_31-2" data-name="Unbenannter Verlauf 31" cx="94.48" cy="209.44" fx="94.48" fy="209.44" r="15.41" xlink:href="#Unbenannter_Verlauf_31"/>
    <radialGradient id="Unbenannter_Verlauf_31-3" data-name="Unbenannter Verlauf 31" cx="121.03" cy="149.72" fx="121.03" fy="149.72" r="281.64" xlink:href="#Unbenannter_Verlauf_31"/>
  </defs>
  <g id="Ebene_1-2" data-name="Ebene_1">
    <g>
      <path class="cls-9" d="M235.11,64.79c-2.93,5.4-6.39,8.02-10.64,17.26-1.12,2.43-.96,2.42-2.13,4.97,0,0-4.27,9.31-9.71,16.23-2.35,2.99-5.32,5.67-8.72,8.01h0c-13.5,9.26-33.73,12.74-48.47,5.48-4.77-2.35-7.83-5.47-12.28-10.01-2.74-2.78-10.22-10.87-16.07-24.94-6.13-14.78-12.69-30.14-5.26-42.72,4.94-8.36,16.11-16.35,24.77-13.34,7.83,2.71,10.63,13.39,11.64,20.4.72-7.21,2.72-15.66,7.36-24.14,3.66-6.7,8.41-15.36,18.73-19.49,5.04-2.01,12.1-3.22,18.36-2.03,3.56.67,6.86,2.11,9.39,4.61,7.63,7.51,5.15,21.43,1.63,32h0v.02c1.88-1.08,3.88-1.81,5.94-2.15,4.2-.7,9.28.13,13.28,2.49,2.08,1.24,3.87,2.9,5.08,4.97,4.8,8.21-1.41,19.66-2.88,22.38Z"/>
      <path class="cls-7" d="M263.49,232.05c-2.83.29-5.36-1.77-5.65-4.61-.29-2.83,1.77-5.36,4.61-5.65,2.83-.29,5.36,1.77,5.65,4.61.29,2.83-1.77,5.36-4.61,5.65Z"/>
      <path class="cls-6" d="M293.49,210.45c-.59-5.78-5.75-9.99-11.53-9.4-1.26.13-2.44.47-3.51.99-.36.21-.73.41-1.09.6-.01,0-.03.03-.05.03-3.21,2.09-5.16,5.84-4.75,9.91.59,5.78,5.76,9.99,11.54,9.4,5.78-.59,9.98-5.75,9.39-11.53ZM293.49,210.45c-.59-5.78-5.75-9.99-11.53-9.4-1.26.13-2.44.47-3.51.99-.36.21-.73.41-1.09.6-.01,0-.03.03-.05.03-3.21,2.09-5.16,5.84-4.75,9.91.59,5.78,5.76,9.99,11.54,9.4,5.78-.59,9.98-5.75,9.39-11.53ZM293.49,210.45c-.59-5.78-5.75-9.99-11.53-9.4-1.26.13-2.44.47-3.51.99-.36.21-.73.41-1.09.6-.01,0-.03.03-.05.03-3.21,2.09-5.16,5.84-4.75,9.91.59,5.78,5.76,9.99,11.54,9.4,5.78-.59,9.98-5.75,9.39-11.53ZM293.49,210.45c-.59-5.78-5.75-9.99-11.53-9.4-1.26.13-2.44.47-3.51.99-.36.21-.73.41-1.09.6-.01,0-.03.03-.05.03-3.21,2.09-5.16,5.84-4.75,9.91.59,5.78,5.76,9.99,11.54,9.4,5.78-.59,9.98-5.75,9.39-11.53ZM293.49,210.45c-.59-5.78-5.75-9.99-11.53-9.4-1.26.13-2.44.47-3.51.99-.36.21-.73.41-1.09.6-.01,0-.03.03-.05.03-3.21,2.09-5.16,5.84-4.75,9.91.59,5.78,5.76,9.99,11.54,9.4,5.78-.59,9.98-5.75,9.39-11.53ZM293.49,210.45c-.59-5.78-5.75-9.99-11.53-9.4-1.26.13-2.44.47-3.51.99-.36.21-.73.41-1.09.6-.01,0-.03.03-.05.03-3.21,2.09-5.16,5.84-4.75,9.91.59,5.78,5.76,9.99,11.54,9.4,5.78-.59,9.98-5.75,9.39-11.53ZM293.49,210.45c-.59-5.78-5.75-9.99-11.53-9.4-1.26.13-2.44.47-3.51.99-.36.21-.73.41-1.09.6-.01,0-.03.03-.05.03-3.21,2.09-5.16,5.84-4.75,9.91.59,5.78,5.76,9.99,11.54,9.4,5.78-.59,9.98-5.75,9.39-11.53ZM293.49,210.45c-.59-5.78-5.75-9.99-11.53-9.4-1.26.13-2.44.47-3.51.99-.36.21-.73.41-1.09.6-.01,0-.03.03-.05.03-3.21,2.09-5.16,5.84-4.75,9.91.59,5.78,5.76,9.99,11.54,9.4,5.78-.59,9.98-5.75,9.39-11.53ZM293.49,210.45c-.59-5.78-5.75-9.99-11.53-9.4-1.26.13-2.44.47-3.51.99-.36.21-.73.41-1.09.6-.01,0-.03.03-.05.03-3.21,2.09-5.16,5.84-4.75,9.91.59,5.78,5.76,9.99,11.54,9.4,5.78-.59,9.98-5.75,9.39-11.53ZM293.49,210.45c-.59-5.78-5.75-9.99-11.53-9.4-1.26.13-2.44.47-3.51.99-.36.21-.73.41-1.09.6-.01,0-.03.03-.05.03-3.21,2.09-5.16,5.84-4.75,9.91.59,5.78,5.76,9.99,11.54,9.4,5.78-.59,9.98-5.75,9.39-11.53ZM293.49,210.45c-.59-5.78-5.75-9.99-11.53-9.4-1.26.13-2.44.47-3.51.99-.36.21-.73.41-1.09.6-.01,0-.03.03-.05.03-3.21,2.09-5.16,5.84-4.75,9.91.59,5.78,5.76,9.99,11.54,9.4,5.78-.59,9.98-5.75,9.39-11.53ZM293.49,210.45c-.59-5.78-5.75-9.99-11.53-9.4-1.26.13-2.44.47-3.51.99-.36.21-.73.41-1.09.6-.01,0-.03.03-.05.03-3.21,2.09-5.16,5.84-4.75,9.91.59,5.78,5.76,9.99,11.54,9.4,5.78-.59,9.98-5.75,9.39-11.53ZM293.49,210.45c-.59-5.78-5.75-9.99-11.53-9.4-1.26.13-2.44.47-3.51.99-.36.21-.73.41-1.09.6-.01,0-.03.03-.05.03-3.21,2.09-5.16,5.84-4.75,9.91.59,5.78,5.76,9.99,11.54,9.4,5.78-.59,9.98-5.75,9.39-11.53ZM293.49,210.45c-.59-5.78-5.75-9.99-11.53-9.4-1.26.13-2.44.47-3.51.99-.36.21-.73.41-1.09.6-.01,0-.03.03-.05.03-3.21,2.09-5.16,5.84-4.75,9.91.59,5.78,5.76,9.99,11.54,9.4,5.78-.59,9.98-5.75,9.39-11.53ZM371.44,195.19l-55.39-76.74c-7.88-10.9-19.35-18.69-32.4-21.99l-28.02-7.07-8.57-2.16c-12.9,20.31-26.38,40.26-40.03,60.08,3.17.89,6.6.91,9.97.41.39-.05.78-.11,1.16-.18l2.54-.26c3.49-.35,6.6,2.19,6.96,5.67.28,4.97.32,9.97.1,14.96-.41,9.43-1.71,18.84-3.91,28.07-2.73,11.6-6.87,22.92-12.3,33.63,1.99,1.94,4.42,4.31,6.61,6.43,3.24,3.16,5.95,5.8,5.95,5.8,2.54,2.45,3.24,5.86,2.58,9.07-.4,2.85-1.02,5.68-1.85,8.43-.75,2.5-1.68,4.95-2.77,7.31-2.28,4.96-5.28,9.52-8.81,13.54l-3.81,4.23c5.43-.57,10.75-1.98,15.77-4.18,3.73-1.62,7.29-3.69,10.59-6.15,3.28-2.42,7.72-2.19,10.72.32,6.89,5.65,12.66,12.69,16.94,20.54l5.95-5.16c5.58-5.03,14.95-2.23,16.91,4.98,3.27,10.39,9.89,19.65,18.6,26.15,9.08-3.86,19.3-8,27.91-11.41l11.38-4.42,1.18-.46c1.5-.58,3.1-.56,4.51-.06l10.64,3.75c5.03,1.81,10.34,3.74,15.65,5.71l5.92-81.18c.98-13.42-2.81-26.76-10.68-37.66ZM342.1,178.58c-5.36,2.13-11.12,3.37-16.59,4.69-.52.12-1.03.24-1.54.36,8.32,7.88,13.96,18.68,15.22,30.98,2.79,27.32-17.09,51.72-44.41,54.51-27.31,2.79-51.72-17.1-54.5-44.41-.52-5.07-.26-10.05.69-14.8-1.79-.34-3.57-.85-5.36-1.62-7.33-3.13-9.12-10.9-5.45-17.56,2.27-4.39,5.9-7.93,9.72-10.74,2.3-1.66,5.07,1.34,3.3,3.5-2.85,3.83-5.94,8.39-5.62,13.15.13.79.49,1.04.66.97.17-.04.5.06,1.26.16,1.87.35,5.72-.14,8.26-.69,1.05-.18,2.6-.63,3.65-.89l1.71-.58c10.26-3.57,16.49-12.46,24.52-19.56,12.35-11.32,30.13-17.67,46.75-16.06,6.49.68,12.91,2.3,18.61,5.55,5.26,2.88,4.7,10.92-.88,13.04ZM281.96,201.05c-1.26.13-2.44.47-3.51.99-.36.21-.73.41-1.09.6-.01,0-.03.03-.05.03-3.21,2.09-5.16,5.84-4.75,9.91.59,5.78,5.76,9.99,11.54,9.4,5.78-.59,9.98-5.75,9.39-11.53-.59-5.78-5.75-9.99-11.53-9.4ZM293.49,210.45c-.59-5.78-5.75-9.99-11.53-9.4-1.26.13-2.44.47-3.51.99-.36.21-.73.41-1.09.6-.01,0-.03.03-.05.03-3.21,2.09-5.16,5.84-4.75,9.91.59,5.78,5.76,9.99,11.54,9.4,5.78-.59,9.98-5.75,9.39-11.53ZM293.49,210.45c-.59-5.78-5.75-9.99-11.53-9.4-1.26.13-2.44.47-3.51.99-.36.21-.73.41-1.09.6-.01,0-.03.03-.05.03-3.21,2.09-5.16,5.84-4.75,9.91.59,5.78,5.76,9.99,11.54,9.4,5.78-.59,9.98-5.75,9.39-11.53ZM293.49,210.45c-.59-5.78-5.75-9.99-11.53-9.4-1.26.13-2.44.47-3.51.99-.36.21-.73.41-1.09.6-.01,0-.03.03-.05.03-3.21,2.09-5.16,5.84-4.75,9.91.59,5.78,5.76,9.99,11.54,9.4,5.78-.59,9.98-5.75,9.39-11.53ZM293.49,210.45c-.59-5.78-5.75-9.99-11.53-9.4-1.26.13-2.44.47-3.51.99-.36.21-.73.41-1.09.6-.01,0-.03.03-.05.03-3.21,2.09-5.16,5.84-4.75,9.91.59,5.78,5.76,9.99,11.54,9.4,5.78-.59,9.98-5.75,9.39-11.53ZM293.49,210.45c-.59-5.78-5.75-9.99-11.53-9.4-1.26.13-2.44.47-3.51.99-.36.21-.73.41-1.09.6-.01,0-.03.03-.05.03-3.21,2.09-5.16,5.84-4.75,9.91.59,5.78,5.76,9.99,11.54,9.4,5.78-.59,9.98-5.75,9.39-11.53ZM293.49,210.45c-.59-5.78-5.75-9.99-11.53-9.4-1.26.13-2.44.47-3.51.99-.36.21-.73.41-1.09.6-.01,0-.03.03-.05.03-3.21,2.09-5.16,5.84-4.75,9.91.59,5.78,5.76,9.99,11.54,9.4,5.78-.59,9.98-5.75,9.39-11.53ZM293.49,210.45c-.59-5.78-5.75-9.99-11.53-9.4-1.26.13-2.44.47-3.51.99-.36.21-.73.41-1.09.6-.01,0-.03.03-.05.03-3.21,2.09-5.16,5.84-4.75,9.91.59,5.78,5.76,9.99,11.54,9.4,5.78-.59,9.98-5.75,9.39-11.53ZM293.49,210.45c-.59-5.78-5.75-9.99-11.53-9.4-1.26.13-2.44.47-3.51.99-.36.21-.73.41-1.09.6-.01,0-.03.03-.05.03-3.21,2.09-5.16,5.84-4.75,9.91.59,5.78,5.76,9.99,11.54,9.4,5.78-.59,9.98-5.75,9.39-11.53ZM293.49,210.45c-.59-5.78-5.75-9.99-11.53-9.4-1.26.13-2.44.47-3.51.99-.36.21-.73.41-1.09.6-.01,0-.03.03-.05.03-3.21,2.09-5.16,5.84-4.75,9.91.59,5.78,5.76,9.99,11.54,9.4,5.78-.59,9.98-5.75,9.39-11.53ZM293.49,210.45c-.59-5.78-5.75-9.99-11.53-9.4-1.26.13-2.44.47-3.51.99-.36.21-.73.41-1.09.6-.01,0-.03.03-.05.03-3.21,2.09-5.16,5.84-4.75,9.91.59,5.78,5.76,9.99,11.54,9.4,5.78-.59,9.98-5.75,9.39-11.53ZM293.49,210.45c-.59-5.78-5.75-9.99-11.53-9.4-1.26.13-2.44.47-3.51.99-.36.21-.73.41-1.09.6-.01,0-.03.03-.05.03-3.21,2.09-5.16,5.84-4.75,9.91.59,5.78,5.76,9.99,11.54,9.4,5.78-.59,9.98-5.75,9.39-11.53ZM293.49,210.45c-.59-5.78-5.75-9.99-11.53-9.4-1.26.13-2.44.47-3.51.99-.36.21-.73.41-1.09.6-.01,0-.03.03-.05.03-3.21,2.09-5.16,5.84-4.75,9.91.59,5.78,5.76,9.99,11.54,9.4,5.78-.59,9.98-5.75,9.39-11.53Z"/>
      <g class="cls-2">
        <path class="cls-3" d="M225.17,214.06c-1.77,7.47-4.11,14.83-7.01,21.98-2.19-2.12-4.62-4.49-6.61-6.43,5.43-10.71,9.57-22.03,12.3-33.63,2.2-9.23,3.5-18.64,3.91-28.07.66.88,1.09,1.95,1.21,3.12.82,14.36-.45,28.91-3.8,43.03Z"/>
        <path class="cls-3" d="M225.43,259.92c2.54,2.44,3.24,5.85,2.57,9.07-.54,3.83-1.46,7.61-2.78,11.25-5.02,2.2-10.34,3.61-15.77,4.18l3.81-4.23c3.53-4.02,6.53-8.58,8.81-13.54,1.09-2.36,2.02-4.81,2.77-7.31.38.37.59.58.59.58Z"/>
        <path class="cls-3" d="M255.63,89.39c-12.43,19.73-25.42,39.1-38.63,58.33-3.37.5-6.8.48-9.97-.41,13.65-19.82,27.13-39.77,40.03-60.08l8.57,2.16Z"/>
      </g>
      <path class="cls-1" d="M235.11,64.79c-2.93,5.4-6.39,8.02-10.64,17.26-1.12,2.43-.96,2.42-2.13,4.97,0,0-4.27,9.31-9.71,16.23-2.35,2.99-5.32,5.67-8.72,8.01h0c-3.31-3-6.63-6.01-9.94-9.03,2.26-9.18,4.52-18.36,6.78-27.55,1.5-.21,23.11-3.64,30.27-21.43,2.48-6.15,2.39-11.95,1.9-15.82,2.08,1.24,3.87,2.9,5.08,4.97,4.8,8.21-1.41,19.66-2.88,22.38Z"/>
      <path class="cls-8" d="M77.71,225.72c2.84-.29,5.37,1.78,5.66,4.61.29,2.83-1.78,5.36-4.61,5.65s-5.36-1.77-5.65-4.61c-.29-2.83,1.77-5.36,4.6-5.65Z"/>
      <path class="cls-4" d="M87.83,216.51c-.59-5.78,3.62-10.94,9.4-11.53,5.78-.59,10.94,3.62,11.53,9.4.59,5.78-3.62,10.94-9.4,11.53s-10.94-3.62-11.53-9.4Z"/>
      <path class="cls-5" d="M368.37,324.59l-5.79-.99c-1.92-.34-3.84-.68-5.75-1.01-2.54-.45-5.07-.91-7.56-1.36-2.51,1.43-5.22,2.98-8.02,4.56-1.28.72-2.57,1.45-3.87,2.18-.89.5-1.79,1-2.69,1.5-3.7,2.07-7.38,4.11-10.82,5.99-.96.52-1.9,1.03-2.81,1.53-.58.31-1.14.62-1.7.92-.9.47-1.8.95-2.7,1.43-1.79.96-3.58,1.91-5.38,2.86-.9.47-1.8.94-2.71,1.4-3.43,1.76-7.38,1.47-10.43-.43-11.01-6.84-20.08-16.64-26.17-28.04l-5.85,4.93-.45.38c-4.25,3.58-10.59,3.03-14.16-1.21-1.19-1.41-1.92-3.09-2.22-4.79-1.21-8.05-4.48-15.92-9.48-22.68-1.65,1.12-3.34,2.17-5.08,3.15-.87.49-1.75.96-2.64,1.42-.56.28-1.12.56-1.68.83s-1.13.53-1.7.78c-.57.25-1.15.5-1.73.74-.57.25-1.16.48-1.75.7-.7.26-1.41.52-2.11.77-.71.25-1.43.49-2.15.71-.96.29-1.93.57-2.9.83l-.69.18c-.27.08-.55.15-.82.21-.44.11-.88.22-1.32.31-.57.13-1.14.25-1.71.36-1.52.3-3.06.55-4.6.75-1.54.2-3.08.35-4.63.45-1.99.13-3.99.18-5.98.14-.43-.01-.86-.02-1.29-.03-.43-.02-.86-.04-1.29-.06-.08,0-.17,0-.25,0-.35-.01-.69-.03-1.04-.07-.58-.04-1.15-.08-1.72-.14-1.15-.11-2.29-.25-3.43-.41s-2.28-.35-3.41-.57c-.31-.06-.62-.13-.92-.22-.29-.08-.59-.18-.87-.29-.21-.08-.42-.17-.62-.27-.2-.09-.4-.19-.59-.3-.19-.11-.38-.23-.57-.35-.21-.14-.42-.29-.61-.44-.2-.15-.39-.31-.58-.48-.11-.1-.21-.2-.31-.3-.24-.24-.47-.49-.68-.75-.11-.13-.21-.26-.31-.4-.1-.13-.2-.27-.29-.41-.08-.12-.15-.23-.22-.35-.17-.27-.32-.55-.46-.84-.09-.19-.18-.38-.26-.58-.06-.14-.11-.28-.16-.42-.08-.23-.16-.46-.22-.69-.07-.23-.13-.46-.18-.7-.08-.42-.14-.84-.18-1.26-.04-.49-.04-.99-.01-1.49.01-.21.03-.42.05-.64.04-.28.09-.56.15-.84.12-.56.3-1.12.52-1.66.17-.4.37-.8.59-1.19.08-.13.16-.26.24-.4.13-.19.26-.37.4-.56.13-.18.28-.37.44-.55,0-.02,15.18-20.64,15.18-20.64,2.93-4.16,4.79-8.81,5.53-13.6l-8.51-15.09-.88-1.55c-1.68-2.98-1.43-6.51.31-9.17,12.47-18.54,20.09-40.29,22.14-62.61h0c-.22.04-.44.08-.67.12-.22.05-.45.09-.67.12-.44.07-.88.12-1.33.17h-.03c-.28.03-.54.06-.82.07-.15.02-.28.02-.43.03h0c-.11.01-.23.01-.34.01-1.06.05-2.14.04-3.21-.04-.81-.06-1.62-.15-2.42-.29-.36-.06-.71-.12-1.07-.21-.26-.05-.52-.11-.77-.18-.14-.02-.27-.05-.4-.1-.14-.04-.28-.08-.41-.11-.57-.16-1.13-.33-1.69-.53-.22-.08-.45-.16-.68-.25-.13-.04-.25-.09-.37-.14-.2-.08-.4-.16-.6-.24-.54-.23-1.08-.48-1.6-.74-.27-.13-.53-.27-.79-.41-.46-.25-.91-.5-1.35-.78-.33-.2-.66-.41-.98-.62-.25-.17-.5-.34-.75-.52-.5-.36-.99-.73-1.47-1.13-.7-.57-1.37-1.18-2.01-1.81-3.19-2.87-3.62-7.75-1.03-11.07,10.05-13.1,20.13-26.16,30.44-39.04,7.18-9.01,14.42-17.97,21.79-26.8h0s-12.73-3.22-12.73-3.22l-16.72-4.22h0l-14.8-3.74c-13.11-3.32-26.97-1.9-39.13,3.99l-28.14,13.62-57.43,27.8c-5.76,2.78-10.96,6.5-15.44,10.93,4.39,3.93,8.78,7.85,13.18,11.78.44.39.99.63,1.57.68l28.89,2.78c2.87.27,3.43,4.23.75,5.29-6.47,2.57-12.94,5.14-19.42,7.71-7.9-1.46-16.45-3.04-24.36-4.5-3.62-3.32-7.24-6.64-10.86-9.96-.61,1.14-1.19,2.3-1.72,3.49L5.04,228.45c-5.54,12.32-6.55,26.22-2.86,39.22l25.93,91.46c1.14,4.02,2.71,7.87,4.66,11.5,2.76-1.31,5.53-2.62,8.3-3.93.67-.31,1.18-.89,1.42-1.58l3.89-11.27c.92-2.68,4.8-2.38,5.31.4l1.08,5.98c.27,1.49,1.69,2.48,3.17,2.22,3.42-.59,6.84-1.18,10.26-1.76.76-.14,1.55.06,2.16.55,4.46,3.5,8.92,7.01,13.37,10.52,2.25,1.76.65,5.35-2.16,4.87-4.51-.78-9.02-1.55-13.53-2.33-.6-.1-1.21-.01-1.74.27-6.79,3.56-13.58,7.11-20.37,10.66,2.23,2.11,4.63,4.05,7.2,5.79l78.65,53.4c11.19,7.59,24.69,11.01,38.14,9.63l94.58-9.65c3.39-.34,6.73-.99,9.97-1.92l-1.81-22.55c-.24-2.95,3.7-4.15,5.14-1.56l10.19,18.28c4.34-2.58,8.35-5.73,11.91-9.39l66.25-68.19c8.64-8.89,14.16-20.33,15.76-32.59-3.81-.6-7.67-1.23-11.54-1.89ZM69.65,285.5c-.59.22-1.11-.6-.64-1.04,3.2-3.11,6.74-5.81,10.53-8.11-10.11-8.04-17.1-19.99-18.51-33.86-2.79-27.31,17.1-51.72,44.41-54.5,27.32-2.79,51.72,17.09,54.51,44.41,1.6,15.66-4.26,30.36-14.7,40.57,4.72,2.19,9.15,4.95,13.04,8.36.48.41.05,1.25-.57,1.08-31.47-8.38-57.29-7.62-88.07,3.09ZM269.78,335.6c-1.47,15.42-10.49,30.05-23.22,38.88-2.56,1.8-5.43,3.47-8.24,4.83-2.55,1.3-6.06,2.66-8.79,3.56-14.61,4.68-30.7,4.22-45.18-.56-11.37-3.59-21.6-9.82-30.05-17.53-1.5-1.37-1.61-3.69-.24-5.19,1.15-1.27,2.98-1.52,4.43-.78,15.77,7.85,33.65,12.57,51.29,10.26,17.2-2.3,30.13-11.15,40.67-24.68,3.08-3.83,5.84-8.1,8.81-12.51,3.3-4.9,11.05-2.11,10.52,3.72Z"/>
      <g>
        <path class="cls-11" d="M263.49,232.05c-2.83.29-5.36-1.77-5.65-4.61-.29-2.83,1.77-5.36,4.61-5.65,2.83-.29,5.36,1.77,5.65,4.61.29,2.83-1.77,5.36-4.61,5.65Z"/>
        <path class="cls-11" d="M284.1,221.98c-5.78.59-10.95-3.62-11.54-9.4-.41-4.07,1.54-7.82,4.75-9.91.02,0,.04-.02.05-.03.36-.19.73-.39,1.09-.6,1.07-.52,2.25-.86,3.51-.99,5.78-.59,10.94,3.62,11.53,9.4.59,5.78-3.61,10.94-9.39,11.53Z"/>
        <path class="cls-10" d="M284.1,221.98c-5.78.59-10.95-3.62-11.54-9.4-.41-4.07,1.54-7.82,4.75-9.91.02,0,.04-.02.05-.03.36-.19.73-.39,1.09-.6,1.07-.52,2.25-.86,3.51-.99,5.78-.59,10.94,3.62,11.53,9.4.59,5.78-3.61,10.94-9.39,11.53Z"/>
        <path class="cls-10" d="M263.49,232.05c-2.83.29-5.36-1.77-5.65-4.61-.29-2.83,1.77-5.36,4.61-5.65,2.83-.29,5.36,1.77,5.65,4.61.29,2.83-1.77,5.36-4.61,5.65Z"/>
      </g>
      <path class="cls-11" d="M177.86,293.75c-.04-.49-.05-.99-.01-1.49-.03.5-.03,1,.01,1.49Z"/>
      <path class="cls-11" d="M178.57,289.12c.16-.41.36-.8.59-1.19-.22.39-.42.79-.59,1.19Z"/>
      <path class="cls-11" d="M189.3,303.37c1.14.16,2.28.3,3.43.41-1.15-.11-2.29-.24-3.43-.41Z"/>
      <path class="cls-11" d="M201.43,163.35c-.57-.15-1.13-.32-1.69-.53.56.2,1.12.37,1.69.53Z"/>
      <path class="cls-11" d="M204.08,163.95c.8.13,1.61.23,2.42.29-.81-.06-1.62-.15-2.42-.29Z"/>
      <path class="cls-11" d="M214.01,163.75h0c-.22.06-.45.1-.67.13.23-.04.45-.08.67-.13Z"/>
      <path class="cls-11" d="M218.07,301.69c.97-.26,1.94-.54,2.9-.83-.96.3-1.93.58-2.9.84-6.43,1.72-13.09,2.51-19.75,2.39,6.66.12,13.32-.67,19.75-2.4Z"/>
      <path class="cls-11" d="M349.27,321.23c2.49.45,5.02.91,7.56,1.36-2.54-.45-5.07-.9-7.56-1.35-2.52,1.44-5.23,2.98-8.02,4.55,2.8-1.58,5.51-3.13,8.02-4.56Z"/>
      <g>
        <path class="cls-11" d="M78.76,235.98c-2.83.29-5.36-1.77-5.65-4.61-.29-2.83,1.77-5.36,4.6-5.65,2.84-.29,5.37,1.78,5.66,4.61.29,2.83-1.78,5.36-4.61,5.65Z"/>
        <path class="cls-11" d="M87.83,216.51c-.59-5.78,3.62-10.94,9.4-11.53,5.78-.59,10.94,3.62,11.53,9.4.59,5.78-3.62,10.94-9.4,11.53s-10.94-3.62-11.53-9.4Z"/>
        <path class="cls-10" d="M99.36,225.91c-5.78.59-10.94-3.62-11.53-9.4-.59-5.78,3.62-10.94,9.4-11.53,5.78-.59,10.94,3.62,11.53,9.4.59,5.78-3.62,10.94-9.4,11.53Z"/>
        <path class="cls-10" d="M78.76,235.98c-2.83.29-5.36-1.77-5.65-4.61-.29-2.83,1.77-5.36,4.6-5.65,2.84-.29,5.37,1.78,5.66,4.61.29,2.83-1.78,5.36-4.61,5.65Z"/>
      </g>
    </g>
  </g>
</svg>