<?xml version="1.0" encoding="UTF-8"?>
<svg id="Ebene_2" xmlns="http://www.w3.org/2000/svg" xmlns:xlink="http://www.w3.org/1999/xlink" viewBox="0 0 636.61 636.61">
  <defs>
    <style>
      .cls-1, .cls-2 {
        opacity: .37;
      }

      .cls-1, .cls-3 {
        fill: #16192b;
      }

      .cls-4 {
        fill: url(#Unbenannter_Verlauf_30-2);
      }

      .cls-5 {
        fill: url(#Unbenannter_Verlauf_21);
      }

      .cls-6 {
        fill: url(#Unbenannter_Verlauf_30);
      }

      .cls-7 {
        fill: #6c7485;
      }

      .cls-8 {
        fill: #b5bac1;
      }

      .cls-9 {
        fill: #1d1f21;
      }
    </style>
    <radialGradient id="Unbenannter_Verlauf_30" data-name="Unbenannter Verlauf 30" cx="278.03" cy="117.06" fx="278.03" fy="117.06" r="88.55" gradientUnits="userSpaceOnUse">
      <stop offset="0" stop-color="#7d8691"/>
      <stop offset=".79" stop-color="#697080"/>
    </radialGradient>
    <radialGradient id="Unbenannter_Verlauf_30-2" data-name="Unbenannter Verlauf 30" cx="380.86" cy="229.25" fx="380.86" fy="229.25" r="157.33" xlink:href="#Unbenannter_Verlauf_30"/>
    <radialGradient id="Unbenannter_Verlauf_21" data-name="Unbenannter Verlauf 21" cx="253.92" cy="259.13" fx="253.92" fy="259.13" r="258.44" gradientUnits="userSpaceOnUse">
      <stop offset="0" stop-color="#c4c9cc"/>
      <stop offset="1" stop-color="#8a8f99"/>
    </radialGradient>
  </defs>
  <g id="Ebene_1-2" data-name="Ebene_1">
    <g>
      <rect class="cls-9" width="636.61" height="636.61" rx="90.12" ry="90.12"/>
      <rect class="cls-9" width="636.61" height="636.61" rx="90.12" ry="90.12"/>
    </g>
    <g>
      <path class="cls-6" d="M356,155.92c-2.93,5.4-6.39,8.02-10.64,17.26-1.12,2.43-.96,2.42-2.13,4.97,0,0-4.27,9.31-9.71,16.23-2.35,2.99-5.32,5.67-8.72,8.01h0c-13.5,9.26-33.73,12.74-48.47,5.48-4.77-2.35-7.83-5.47-12.28-10.01-2.74-2.78-10.22-10.87-16.07-24.94-6.13-14.78-12.69-30.14-5.26-42.72,4.94-8.36,16.11-16.35,24.77-13.34,7.83,2.71,10.63,13.39,11.64,20.4.72-7.21,2.72-15.66,7.36-24.14,3.66-6.7,8.41-15.36,18.73-19.49,5.04-2.01,12.1-3.22,18.36-2.03,3.56.67,6.86,2.11,9.39,4.61,7.63,7.51,5.15,21.43,1.63,32h0v.02c1.88-1.08,3.88-1.81,5.94-2.15,4.2-.7,9.28.13,13.28,2.49,2.08,1.24,3.87,2.9,5.08,4.97,4.8,8.21-1.41,19.66-2.88,22.38Z"/>
      <path class="cls-4" d="M503.01,323.98l-6.18,84.71-.17,2.26c-6.77-2.55-13.7-5.07-20.15-7.39l-4.66-1.65-5.93-2.09c-1.4-.5-3-.51-4.49.07l-1.17.45-11.34,4.41c-6.77,2.67-14.52,5.8-21.94,8.9-1.98.82-3.93,1.64-5.84,2.45-8.66-6.47-15.26-15.69-18.51-26.03-.57-2.07-1.75-3.78-3.28-5.04-3.66-3.02-9.32-3.46-13.26-.18-.1.09-.2.17-.3.26l-5.92,5.14c-4.08-7.49-9.52-14.24-16.01-19.73-.28-.25-.56-.48-.85-.72-2.98-2.5-7.41-2.73-10.67-.31-3.32,2.48-6.9,4.55-10.66,6.17-4.96,2.16-10.23,3.55-15.58,4.11l3.79-4.21c3.52-4,6.5-8.55,8.77-13.48,2.29-4.94,3.84-10.25,4.6-15.67.66-3.2-.04-6.59-2.57-9.02,0,0-7.57-7.39-12.51-12.19,5.41-10.65,9.53-21.92,12.26-33.47,3.34-14.05,4.6-28.53,3.78-42.83-.16-1.56-.87-2.93-1.93-3.93-1.29-1.23-3.08-1.91-4.99-1.72l-2.53.26s-.06.01-.09.01c-3.7.66-7.5.73-10.99-.24,14.79-21.47,29.38-43.1,43.25-65.18l9.58,2.42,28.02,7.07c13.05,3.3,24.52,11.09,32.4,21.99l55.39,76.74c7.87,10.9,11.66,24.24,10.68,37.66Z"/>
      <g class="cls-2">
        <path class="cls-3" d="M346.06,305.19c-2.74,11.6-6.88,22.92-12.31,33.62,4.96,4.82,12.57,12.24,12.57,12.24,2.54,2.44,3.24,5.85,2.57,9.07-.76,5.44-2.31,10.78-4.61,15.74-1.99,4.32-4.52,8.34-7.48,11.97-4.96,2.16-10.23,3.55-15.58,4.11l3.79-4.21c.27-6.21,1.94-10.57,3.47-13.47,3.9-7.37,9.28-9.61,9.9-15.68.38-3.68-1.18-6.88-2.57-9.02,0,0-7.57-7.39-12.51-12.19,5.41-10.65,9.53-21.92,12.26-33.47,3.34-14.05,4.6-28.53,3.78-42.83-.16-1.56-.87-2.93-1.93-3.93.99-.08,1.97-.21,2.95-.39l2.55-.26c3.48-.36,6.6,2.19,6.95,5.67.82,14.36-.45,28.91-3.8,43.03Z"/>
        <path class="cls-3" d="M323.69,243.28c14.79-21.47,29.38-43.1,43.25-65.18l9.58,2.42c-13.44,21.33-27.53,42.23-41.84,63-3.7.66-7.5.73-10.99-.24Z"/>
      </g>
      <path class="cls-1" d="M356,155.92c-2.93,5.4-6.39,8.02-10.64,17.26-1.12,2.43-.96,2.42-2.13,4.97,0,0-4.27,9.31-9.71,16.23-2.35,2.99-5.32,5.67-8.72,8.01h0c-3.31-3-6.63-6.01-9.94-9.03,2.26-9.18,4.52-18.36,6.78-27.55,1.5-.21,23.11-3.64,30.27-21.43,2.48-6.15,2.39-11.95,1.9-15.82,2.08,1.24,3.87,2.9,5.08,4.97,4.8,8.21-1.41,19.66-2.88,22.38Z"/>
      <path class="cls-7" d="M496.83,408.69l-.17,2.26c-6.77-2.55-13.7-5.07-20.15-7.39l-4.66-1.65.64-.24c1.5-.59,3.1-.57,4.51-.07l10.63,3.76c2.98,1.07,6.07,2.18,9.2,3.33Z"/>
      <path class="cls-5" d="M500.8,417.61c-1.6,12.26-7.12,23.7-15.76,32.59l-66.25,68.19c-9.42,9.69-21.95,15.77-35.4,17.14l-94.58,9.65c-13.45,1.38-26.95-2.04-38.14-9.63l-78.65-53.4c-11.18-7.59-19.33-18.88-23.02-31.89l-25.93-91.46c-3.69-13-2.68-26.9,2.86-39.22l38.93-86.75c5.54-12.32,15.24-22.31,27.41-28.2l85.57-41.42c12.16-5.89,26.02-7.31,39.13-3.99l44.26,11.17c-7.37,8.84-14.61,17.8-21.79,26.8-10.31,12.89-20.39,25.95-30.44,39.05-2.59,3.32-2.16,8.2,1.03,11.07,4.57,4.55,10.87,7.6,17.36,8.06,2.54.18,5.07.02,7.51-.49-2.05,22.33-9.67,44.07-22.14,62.61-1.74,2.67-1.99,6.2-.31,9.17l.88,1.55,8.51,15.1c-.74,4.79-2.6,9.44-5.53,13.6,0,0-15.18,20.62-15.18,20.64-4.97,5.75-1.87,14.96,5.65,16.38,10.67,2.04,21.73,1.69,32.18-1.11,7.79-2.06,15.15-5.45,21.74-9.93,5,6.76,8.27,14.63,9.48,22.68.3,1.7,1.03,3.37,2.22,4.79,3.57,4.24,9.91,4.79,14.16,1.21l.45-.38,5.85-4.93c6.09,11.4,15.16,21.2,26.17,28.04,3.05,1.9,7,2.19,10.43.43,3.62-1.85,7.19-3.79,10.79-5.69,8.9-4.8,20.71-11.41,29.91-16.68,9.97,1.81,20.47,3.64,30.64,5.25Z"/>
      <g>
        <path class="cls-9" d="M415.67,360.25c-27.31,2.79-51.72-17.1-54.5-44.41-.74-7.23.11-14.25,2.27-20.72l55.21-26.72-3.45-7.12c23.2,2.12,42.42,20.41,44.88,44.46,2.79,27.32-17.09,51.72-44.41,54.51Z"/>
        <path class="cls-9" d="M364.07,274.62c-2.86,3.83-5.95,8.39-5.63,13.15.13.79.49,1.04.66.97.17-.04.5.06,1.26.16,1.86.34,5.71-.14,8.25-.69,1.05-.18,2.6-.63,3.66-.89,0,0,1.71-.59,1.71-.59,10.27-3.57,16.49-12.45,24.53-19.56,12.34-11.32,30.13-17.67,46.75-16.06,6.49.68,12.9,2.3,18.61,5.55,3.49,1.97,4.71,6.4,2.74,9.88-.94,1.67-2.41,2.76-4.1,3.35-2.76,1.1-5.52,1.84-8.31,2.58-12.08,3.26-24.33,4.82-35.56,9.96-10.78,4.85-19.45,12.19-31.31,16.31-8.04,2.88-16.71,3.66-25.17,2.33-13.51-2.1-16.74-13.28-8.29-23.48,2.08-2.55,4.42-4.66,6.91-6.48,1.08-.79,2.6-.55,3.39.53.67.91.6,2.14-.08,2.97h0Z"/>
        <circle class="cls-8" cx="403.91" cy="302.65" r="10.52"/>
        <circle class="cls-8" cx="383.86" cy="318.05" r="5.16"/>
      </g>
      <path class="cls-9" d="M279.37,449.94c15.78,7.85,33.65,12.57,51.3,10.26,17.2-2.3,30.12-11.14,40.67-24.68,3.08-3.83,5.84-8.1,8.82-12.51,3.29-4.9,11.05-2.11,10.51,3.72-1.46,15.42-10.49,30.05-23.21,38.88-2.56,1.79-5.43,3.47-8.25,4.83-2.54,1.3-6.06,2.66-8.79,3.56-14.6,4.68-30.69,4.22-45.18-.56-11.37-3.59-21.59-9.82-30.05-17.54-1.5-1.37-1.61-3.69-.24-5.19,1.16-1.27,2.98-1.52,4.43-.78h0Z"/>
      <path class="cls-9" d="M511.1,419.17c-3.37-.49-6.82-1.01-10.3-1.56-10.18-1.61-20.68-3.44-30.64-5.25-9.2,5.26-21.01,11.87-29.91,16.67-3.6,1.9-7.17,3.85-10.79,5.69-3.43,1.76-7.38,1.47-10.43-.43-11.01-6.84-20.08-16.64-26.17-28.04l-5.85,4.93-.45.38c-4.25,3.58-10.59,3.03-14.16-1.21-1.19-1.42-1.92-3.09-2.22-4.79-1.21-8.05-4.48-15.92-9.48-22.68-6.59,4.48-13.95,7.88-21.74,9.94-10.45,2.8-21.51,3.15-32.17,1.1-7.52-1.41-10.62-10.63-5.65-16.38,0-.02,15.18-20.64,15.18-20.64,2.92-4.16,4.79-8.81,5.53-13.6l-8.52-15.09-.87-1.55c-1.68-2.97-1.44-6.51.31-9.17,12.46-18.54,20.08-40.29,22.14-62.61-2.44.51-4.97.67-7.51.49-6.49-.45-12.79-3.51-17.36-8.06-3.2-2.87-3.63-7.75-1.03-11.07,10.04-13.1,20.13-26.16,30.43-39.04,7.18-9.01,14.42-17.97,21.79-26.8,3.2-3.86,6.43-7.68,9.7-11.47,3.17-3.49,8.74.41,6.32,4.6-1.94,3.15-3.9,6.3-5.87,9.44-13.94,22.18-28.59,43.91-43.46,65.48,3.54.99,7.39.9,11.13.23l2.55-.26c3.48-.36,6.6,2.19,6.95,5.67.82,14.36-.45,28.9-3.8,43.03-2.74,11.6-6.88,22.92-12.31,33.62,4.96,4.82,12.57,12.24,12.57,12.24,2.54,2.44,3.24,5.85,2.57,9.07-.76,5.45-2.32,10.78-4.62,15.74-2.28,4.96-5.28,9.53-8.81,13.54l-3.81,4.23c9.46-1,18.61-4.55,26.36-10.33,3.28-2.43,7.73-2.2,10.73.31,6.89,5.65,12.65,12.69,16.93,20.55l5.95-5.16c5.59-5.03,14.95-2.23,16.91,4.98,3.27,10.39,9.9,19.65,18.6,26.15,9.09-3.85,19.3-8,27.91-11.4l11.39-4.43,1.18-.45c1.5-.59,3.1-.57,4.51-.07l10.64,3.76c6.48,2.32,13.44,4.86,20.25,7.42,3.93,1.48,7.8,2.97,11.51,4.43,4.34,1.78,2.76,8.47-2.09,7.86Z"/>
      <g>
        <path class="cls-9" d="M262.33,367.47c-4.92-5.66-17.84-8.79-32.56-7.29-11.3,1.16-21.02,4.78-26.58,9.35-11.59-7.99-19.73-20.81-21.27-35.91-2.79-27.31,17.1-51.72,44.41-54.5,27.32-2.79,51.72,17.09,54.51,44.41,1.78,17.48-5.72,33.76-18.51,43.94Z"/>
        <path class="cls-9" d="M278.61,373.53c-31.47-8.38-57.29-7.62-88.07,3.09-.59.22-1.11-.6-.64-1.04,17.53-17.01,45.19-21.9,68.2-14.62,7.72,2.47,15.04,6.19,21.08,11.49.48.41.06,1.25-.56,1.08h0Z"/>
        <circle class="cls-8" cx="219.18" cy="306.58" r="10.52"/>
        <circle class="cls-8" cx="199.12" cy="321.98" r="5.16"/>
      </g>
      <g>
        <path class="cls-9" d="M167.66,207.38c7.45,6.65,14.9,13.31,22.35,19.96.44.39.99.63,1.57.69l28.89,2.77c2.87.28,3.44,4.23.75,5.3-6.47,2.57-12.94,5.14-19.41,7.71-7.91-1.46-16.46-3.03-24.36-4.49-8-7.34-15.99-14.67-23.99-22.01-1.38-1.27-1.12-3.52.53-4.43,3.51-1.95,7.01-3.89,10.52-5.84,1.02-.57,2.29-.43,3.17.35Z"/>
        <path class="cls-9" d="M187.08,451.82c-3.42.59-6.83,1.18-10.25,1.76-1.49.26-2.9-.73-3.17-2.22l-1.08-5.98c-.51-2.79-4.38-3.08-5.31-.41l-3.89,11.27c-.24.7-.75,1.27-1.42,1.59-7.39,3.5-14.78,6.99-22.16,10.49-1.95.92-2.13,3.64-.31,4.8,4.28,2.74,8.55,5.48,12.83,8.22.83.53,1.88.58,2.76.12,10.04-5.25,20.07-10.51,30.11-15.76.54-.28,1.15-.38,1.74-.27,4.51.78,9.02,1.55,13.53,2.33,2.81.48,4.41-3.11,2.17-4.87-4.46-3.51-8.91-7.01-13.37-10.52-.61-.48-1.4-.68-2.17-.55Z"/>
        <path class="cls-9" d="M393.68,537.6l-2.14-26.55c-.24-2.95,3.71-4.14,5.14-1.56l11.7,20.99c.73,1.31.28,2.96-1.02,3.72l-9.57,5.56c-1.75,1.02-3.96-.14-4.12-2.16Z"/>
      </g>
    </g>
  </g>
</svg>