<?xml version="1.0" encoding="UTF-8"?>
<svg id="Ebene_2" xmlns="http://www.w3.org/2000/svg" xmlns:xlink="http://www.w3.org/1999/xlink" viewBox="0 0 382.28 454.35">
  <defs>
    <style>
      .cls-1, .cls-2 {
        opacity: .37;
      }

      .cls-1, .cls-3 {
        fill: #16192b;
      }

      .cls-4 {
        fill: url(#Unbenannter_Verlauf_30-3);
      }

      .cls-5 {
        fill: url(#Unbenannter_Verlauf_30-2);
      }

      .cls-6 {
        fill: url(#Unbenannter_Verlauf_30-4);
      }

      .cls-7 {
        fill: url(#Unbenannter_Verlauf_21-2);
      }

      .cls-8 {
        fill: url(#Unbenannter_Verlauf_21-3);
      }

      .cls-9 {
        fill: url(#Unbenannter_Verlauf_21);
      }

      .cls-10 {
        fill: url(#Unbenannter_Verlauf_30);
      }

      .cls-11 {
        fill: #b5bac1;
      }

      .cls-12 {
        fill: #1d1f21;
      }
    </style>
    <radialGradient id="Unbenannter_Verlauf_30" data-name="Unbenannter Verlauf 30" cx="157.15" cy="25.93" fx="157.15" fy="25.93" r="88.55" gradientUnits="userSpaceOnUse">
      <stop offset="0" stop-color="#7d8691"/>
      <stop offset=".79" stop-color="#697080"/>
    </radialGradient>
    <radialGradient id="Unbenannter_Verlauf_30-2" data-name="Unbenannter Verlauf 30" cx="261.1" cy="223.98" fx="261.1" fy="223.98" r="7.55" xlink:href="#Unbenannter_Verlauf_30"/>
    <radialGradient id="Unbenannter_Verlauf_30-3" data-name="Unbenannter Verlauf 30" cx="279.21" cy="205.51" fx="279.21" fy="205.51" r="15.41" xlink:href="#Unbenannter_Verlauf_30"/>
    <radialGradient id="Unbenannter_Verlauf_30-4" data-name="Unbenannter Verlauf 30" cx="262.86" cy="137.45" fx="262.86" fy="137.45" r="154.22" xlink:href="#Unbenannter_Verlauf_30"/>
    <radialGradient id="Unbenannter_Verlauf_21" data-name="Unbenannter Verlauf 21" cx="76.69" cy="228.39" fx="76.69" fy="228.39" r="6.93" gradientUnits="userSpaceOnUse">
      <stop offset="0" stop-color="#c4c9cc"/>
      <stop offset="1" stop-color="#8a8f99"/>
    </radialGradient>
    <radialGradient id="Unbenannter_Verlauf_21-2" data-name="Unbenannter Verlauf 21" cx="95.15" cy="210.43" fx="95.15" fy="210.43" r="14.14" xlink:href="#Unbenannter_Verlauf_21"/>
    <radialGradient id="Unbenannter_Verlauf_21-3" data-name="Unbenannter Verlauf 21" cx="133.04" cy="167.99" fx="133.04" fy="167.99" r="258.44" xlink:href="#Unbenannter_Verlauf_21"/>
  </defs>
  <g id="Ebene_1-2" data-name="Ebene_1">
    <g>
      <path class="cls-10" d="M235.11,64.79c-2.93,5.4-6.39,8.02-10.64,17.26-1.12,2.43-.96,2.42-2.13,4.97,0,0-4.27,9.31-9.71,16.23-2.35,2.99-5.32,5.67-8.72,8.01h0c-13.5,9.26-33.73,12.74-48.47,5.48-4.77-2.35-7.83-5.47-12.28-10.01-2.74-2.78-10.22-10.87-16.07-24.94-6.13-14.78-12.69-30.14-5.26-42.72,4.94-8.36,16.11-16.35,24.77-13.34,7.83,2.71,10.63,13.39,11.64,20.4.72-7.21,2.72-15.66,7.36-24.14,3.66-6.7,8.41-15.36,18.73-19.49,5.04-2.01,12.1-3.22,18.36-2.03,3.56.67,6.86,2.11,9.39,4.61,7.63,7.51,5.15,21.43,1.63,32h0v.02c1.88-1.08,3.88-1.81,5.94-2.15,4.2-.7,9.28.13,13.28,2.49,2.08,1.24,3.87,2.9,5.08,4.97,4.8,8.21-1.41,19.66-2.88,22.38Z"/>
      <path class="cls-5" d="M257.84,227.44c-.29-2.83,1.77-5.36,4.6-5.65,2.84-.29,5.37,1.78,5.66,4.61s-1.78,5.36-4.61,5.65-5.36-1.77-5.65-4.61Z"/>
      <path class="cls-4" d="M272.56,212.58c-.4-3.96,1.45-7.63,4.51-9.74.56-.39,1.17-.72,1.81-1,.96-.41,1.99-.68,3.08-.79,5.78-.59,10.94,3.62,11.53,9.4.59,5.78-3.62,10.94-9.4,11.53-5.78.59-10.94-3.62-11.53-9.4Z"/>
      <path class="cls-6" d="M371.44,195.19l-55.39-76.74c-7.88-10.9-19.35-18.69-32.4-21.99l-28.02-7.07-8.57-2.16c-12.9,20.31-26.38,40.26-40.04,60.08,3.18.89,6.61.92,9.98.41.39-.05.77-.11,1.15-.18l2.55-.26c3.48-.35,6.6,2.19,6.95,5.68.29,4.97.32,9.97.11,14.95-.41,9.43-1.71,18.84-3.91,28.07-2.73,11.6-6.88,22.92-12.31,33.63,2,1.94,4.42,4.31,6.61,6.44,3.25,3.15,5.96,5.79,5.96,5.79,2.54,2.45,3.24,5.86,2.57,9.07-.4,2.85-1.01,5.67-1.85,8.42-.74,2.51-1.66,4.96-2.76,7.32-2.28,4.96-5.28,9.53-8.81,13.54l-3.81,4.23c5.43-.57,10.75-1.98,15.77-4.18,3.73-1.62,7.29-3.69,10.59-6.15,3.28-2.42,7.72-2.19,10.72.32,6.89,5.65,12.66,12.69,16.94,20.54l5.94-5.16c5.59-5.03,14.95-2.23,16.92,4.98,3.27,10.39,9.89,19.65,18.6,26.15,9.08-3.86,19.29-8,27.9-11.41l11.39-4.42,1.18-.46c1.5-.58,3.1-.56,4.51-.06l10.64,3.75c5.03,1.81,10.34,3.74,15.65,5.72l5.92-81.19c.98-13.42-2.81-26.76-10.68-37.66ZM345.72,175.42c-.94,1.67-2.41,2.76-4.1,3.36-2.77,1.1-5.52,1.84-8.31,2.58-3.11.84-6.23,1.56-9.33,2.27,8.31,7.89,13.95,18.68,15.21,30.98,2.79,27.32-17.09,51.72-44.41,54.51-27.31,2.79-51.72-17.1-54.5-44.41-.52-5.08-.26-10.05.69-14.81-13.27-2.2-16.39-13.3-8.01-23.43,2.08-2.55,4.42-4.66,6.91-6.48,1.09-.79,2.61-.55,3.4.53.66.91.6,2.13-.09,2.97-2.85,3.83-5.94,8.39-5.62,13.15.13.79.48,1.04.66.97.17-.04.5.06,1.26.16,1.87.35,5.71-.14,8.25-.69,1.06-.18,2.61-.63,3.66-.89l1.7-.58c10.27-3.57,16.5-12.46,24.53-19.56,12.34-11.32,30.13-17.67,46.75-16.06,6.49.68,12.9,2.3,18.61,5.55,3.48,1.97,4.71,6.4,2.74,9.88Z"/>
      <g class="cls-2">
        <path class="cls-3" d="M228,268.99c-.54,3.83-1.46,7.61-2.78,11.25-5.02,2.2-10.34,3.61-15.77,4.18l3.81-4.23c3.53-4.01,6.53-8.58,8.81-13.54,1.1-2.36,2.02-4.81,2.76-7.32.39.38.6.59.6.59,2.54,2.44,3.24,5.85,2.57,9.07Z"/>
        <path class="cls-3" d="M218.15,236.05c-2.19-2.13-4.61-4.5-6.61-6.44,5.43-10.71,9.58-22.03,12.31-33.63,2.2-9.23,3.5-18.64,3.91-28.07.66.88,1.09,1.95,1.21,3.12.82,14.36-.45,28.91-3.8,43.03-1.77,7.48-4.11,14.84-7.02,21.99Z"/>
        <path class="cls-3" d="M255.63,89.39c-12.43,19.73-25.42,39.1-38.63,58.33-3.37.51-6.8.48-9.98-.41,13.66-19.82,27.14-39.77,40.04-60.08l8.57,2.16Z"/>
      </g>
      <path class="cls-1" d="M235.11,64.79c-2.93,5.4-6.39,8.02-10.64,17.26-1.12,2.43-.96,2.42-2.13,4.97,0,0-4.27,9.31-9.71,16.23-2.35,2.99-5.32,5.67-8.72,8.01h0c-3.31-3-6.63-6.01-9.94-9.03,2.26-9.18,4.52-18.36,6.78-27.55,1.5-.21,23.11-3.64,30.27-21.43,2.48-6.15,2.39-11.95,1.9-15.82,2.08,1.24,3.87,2.9,5.08,4.97,4.8,8.21-1.41,19.66-2.88,22.38Z"/>
      <path class="cls-9" d="M83.36,230.33c.29,2.83-1.77,5.36-4.6,5.65s-5.36-1.77-5.65-4.61c-.29-2.83,1.77-5.36,4.6-5.65,2.84-.29,5.37,1.78,5.65,4.61Z"/>
      <path class="cls-7" d="M108.76,214.38c.59,5.78-3.62,10.94-9.4,11.53-5.78.59-10.94-3.62-11.53-9.39-.59-5.78,3.62-10.95,9.4-11.54,5.78-.59,10.94,3.62,11.53,9.4Z"/>
      <path class="cls-8" d="M368.37,324.59c-.97-.16-1.93-.33-2.9-.49-.96-.17-1.92-.34-2.89-.5-.96-.17-1.92-.33-2.88-.5-.96-.17-1.92-.34-2.87-.51-2.54-.45-5.07-.91-7.56-1.36-2.51,1.43-5.22,2.98-8.02,4.56-.4.23-.8.45-1.2.68-7.08,3.98-14.57,8.14-20.69,11.44-.9.47-1.8.95-2.7,1.43-1.79.96-3.58,1.91-5.38,2.86-.9.47-1.8.94-2.71,1.4-3.43,1.76-7.38,1.47-10.43-.43-11.01-6.84-20.08-16.64-26.17-28.04l-5.85,4.93-.45.38c-4.25,3.58-10.59,3.03-14.16-1.21-1.19-1.41-1.92-3.09-2.22-4.79-1.21-8.05-4.48-15.91-9.48-22.68-1.65,1.12-3.34,2.17-5.08,3.15-.87.49-1.75.96-2.64,1.42-.56.28-1.12.56-1.68.83-.48.23-.95.45-1.43.66-.1.04-.19.08-.28.12h0c-.54.25-1.09.49-1.64.71-.03.01-.05.02-.08.03h0s-.07.04-.11.05c-.54.23-1.09.44-1.64.65-1.4.53-2.82,1.03-4.26,1.48-.96.29-1.93.57-2.9.83-.75.2-1.5.39-2.26.57h0c-.71.17-1.41.32-2.12.46-.05.01-.11.02-.16.03-1.52.3-3.05.55-4.59.75t0,0c-3.93.51-7.89.7-11.85.56-.87-.03-1.75-.08-2.62-.14-.58-.04-1.15-.08-1.72-.14-1.15-.11-2.29-.25-3.43-.41-1.14-.16-2.28-.35-3.41-.57-.31-.06-.62-.13-.92-.22-.3-.08-.59-.18-.87-.29-.84-.33-1.62-.77-2.31-1.29-.23-.17-.45-.36-.66-.55-.11-.1-.21-.2-.31-.3-3.54-3.51-4.2-9.54-.58-13.73,0-.02,15.18-20.64,15.18-20.64,2.93-4.16,4.79-8.81,5.53-13.6l-8.51-15.1-.88-1.54c-1.68-2.98-1.44-6.51.31-9.17,1.56-2.32,3.04-4.69,4.45-7.11.7-1.2,1.38-2.41,2.04-3.64,2-3.69,3.82-7.47,5.46-11.33.37-.86.72-1.73,1.07-2.6h0c.35-.88.69-1.75,1.02-2.63.66-1.76,1.28-3.54,1.87-5.32.29-.89.58-1.79.85-2.68h0c.04-.13.08-.25.11-.36.24-.78.47-1.57.69-2.35.51-1.81.99-3.63,1.42-5.46.08-.29.14-.58.21-.87.26-1.12.51-2.24.73-3.37.48-2.28.89-4.56,1.23-6.86.19-1.19.35-2.38.5-3.58.19-1.48.35-2.96.49-4.45h0c-.22.04-.44.08-.67.12-.22.04-.44.08-.67.12-2.02.31-4.09.39-6.17.24-.81-.06-1.62-.15-2.42-.29-.8-.14-1.6-.31-2.39-.52-.27-.07-.55-.15-.82-.24-.12-.04-.23-.07-.35-.11-.1-.03-.2-.06-.29-.09-.29-.09-.58-.19-.87-.3h0s-.57-.22-.57-.22c-.48-.18-.95-.38-1.41-.6-.07-.03-.13-.06-.2-.09-.17-.08-.33-.16-.5-.24-.23-.11-.45-.22-.68-.34-.18-.09-.36-.19-.54-.29-.18-.1-.35-.2-.53-.3-2.12-1.22-4.08-2.72-5.79-4.43-3.2-2.87-3.62-7.75-1.03-11.07,1.25-1.64,2.51-3.27,3.77-4.91,2.52-3.27,5.03-6.54,7.56-9.8,6.31-8.16,12.67-16.28,19.11-24.33,7.18-9.01,14.42-17.97,21.79-26.8h0s-12.73-3.22-12.73-3.22l-16.72-4.22h0l-14.8-3.74c-13.11-3.32-26.97-1.9-39.13,3.99l-28.14,13.62-57.43,27.8c-5.76,2.79-10.97,6.5-15.44,10.94,4.39,3.92,8.79,7.84,13.18,11.77.44.39.99.63,1.57.68l28.88,2.78c2.88.27,3.44,4.23.76,5.29-6.47,2.57-12.95,5.14-19.42,7.71-7.91-1.46-16.45-3.04-24.36-4.49-3.62-3.32-7.24-6.65-10.86-9.97-.61,1.14-1.19,2.3-1.72,3.49L5.04,228.45c-5.54,12.32-6.55,26.22-2.86,39.22l25.93,91.46c1.14,4.02,2.71,7.88,4.66,11.51,2.77-1.32,5.53-2.62,8.3-3.93.67-.32,1.18-.89,1.42-1.59l3.89-11.27c.92-2.68,4.8-2.38,5.3.4l1.09,5.98c.27,1.49,1.68,2.48,3.17,2.22,3.42-.59,6.84-1.18,10.25-1.76.77-.14,1.56.06,2.17.55,4.46,3.5,8.91,7.01,13.37,10.52,2.24,1.76.65,5.35-2.17,4.87-4.51-.78-9.01-1.55-13.52-2.33-.6-.1-1.21,0-1.75.27-6.78,3.56-13.57,7.11-20.36,10.66,2.23,2.11,4.63,4.05,7.2,5.79l78.65,53.4c11.19,7.59,24.69,11.01,38.14,9.63l94.58-9.65c3.39-.34,6.73-.99,9.97-1.92l-1.81-22.55c-.24-2.95,3.7-4.15,5.14-1.56l10.19,18.28c4.34-2.58,8.35-5.73,11.91-9.39l66.25-68.19c8.64-8.89,14.16-20.33,15.76-32.59-3.82-.6-7.68-1.23-11.54-1.89ZM69.65,285.5c-.59.22-1.11-.6-.64-1.04,3.2-3.11,6.74-5.81,10.53-8.11-10.11-8.04-17.1-19.99-18.51-33.86-2.79-27.31,17.1-51.72,44.41-54.5,27.32-2.79,51.72,17.09,54.51,44.41,1.6,15.66-4.26,30.36-14.7,40.57,4.72,2.19,9.14,4.95,13.03,8.36.49.41.06,1.25-.56,1.08-31.47-8.38-57.29-7.62-88.07,3.09ZM269.77,335.6c-1.46,15.42-10.49,30.06-23.21,38.88-2.56,1.8-5.43,3.47-8.24,4.83-2.54,1.3-6.06,2.66-8.8,3.56-14.6,4.68-30.69,4.22-45.18-.56-11.37-3.59-21.59-9.82-30.05-17.53-1.49-1.37-1.6-3.69-.24-5.19,1.16-1.27,2.98-1.52,4.44-.78,15.77,7.85,33.65,12.57,51.29,10.26,17.2-2.3,30.12-11.14,40.67-24.68,3.08-3.83,5.83-8.1,8.81-12.51,3.3-4.9,11.05-2.11,10.51,3.72Z"/>
      <g>
        <path class="cls-12" d="M268.1,226.4c.29,2.83-1.78,5.36-4.61,5.65s-5.36-1.77-5.65-4.61c-.29-2.83,1.77-5.36,4.6-5.65,2.84-.29,5.37,1.78,5.66,4.61Z"/>
        <path class="cls-12" d="M284.09,221.98c-5.78.59-10.94-3.62-11.53-9.4-.4-3.96,1.45-7.63,4.51-9.74.56-.39,1.17-.72,1.81-1,.96-.41,1.99-.68,3.08-.79,5.78-.59,10.94,3.62,11.53,9.4.59,5.78-3.62,10.94-9.4,11.53Z"/>
        <path class="cls-12" d="M278.88,201.84c-.6.34-1.2.67-1.81,1,.56-.39,1.17-.72,1.81-1Z"/>
        <path class="cls-11" d="M284.09,221.98c-5.78.59-10.94-3.62-11.53-9.4-.4-3.96,1.45-7.63,4.51-9.74.56-.39,1.17-.72,1.81-1,.96-.41,1.99-.68,3.08-.79,5.78-.59,10.94,3.62,11.53,9.4.59,5.78-3.62,10.94-9.4,11.53Z"/>
        <path class="cls-11" d="M263.49,232.05c-2.83.29-5.36-1.77-5.65-4.61-.29-2.83,1.77-5.36,4.6-5.65,2.84-.29,5.37,1.78,5.66,4.61s-1.78,5.36-4.61,5.65Z"/>
      </g>
      <path class="cls-12" d="M189.3,303.37c1.14.16,2.28.3,3.43.41-1.15-.11-2.29-.24-3.43-.41Z"/>
      <path class="cls-12" d="M194.93,160.61c2.83,1.63,5.94,2.79,9.15,3.34-3.21-.54-6.32-1.7-9.15-3.34Z"/>
      <polygon class="cls-12" points="192.43 237.09 191.56 235.54 192.44 237.08 200.95 252.18 192.43 237.09"/>
      <path class="cls-12" d="M204.08,163.95c.8.13,1.61.23,2.42.29-.81-.06-1.62-.15-2.42-.29Z"/>
      <path class="cls-12" d="M203.82,204.29c2.93-6.92,5.29-14.08,7.03-21.4-1.74,7.32-4.1,14.49-7.03,21.4Z"/>
      <path class="cls-12" d="M214.01,163.76c-.45.09-.89.17-1.34.24.45-.07.9-.16,1.34-.25h0Z"/>
      <path class="cls-12" d="M218.07,301.69c.97-.26,1.94-.54,2.9-.83-.96.3-1.93.58-2.9.84-7.68,2.05-15.68,2.79-23.62,2.22,7.94.56,15.94-.17,23.62-2.23Z"/>
      <path class="cls-12" d="M220.97,300.86c1.44-.45,2.86-.95,4.26-1.48-1.4.54-2.82,1.04-4.26,1.48Z"/>
      <path class="cls-12" d="M225.23,299.38c2.35-.9,4.63-1.92,6.86-3.05-2.23,1.14-4.51,2.16-6.86,3.05Z"/>
      <path class="cls-12" d="M349.27,321.23c2.49.45,5.02.91,7.56,1.36-2.55-.45-5.07-.9-7.56-1.35-2.87,1.64-6,3.42-9.22,5.23,3.22-1.82,6.35-3.6,9.22-5.24Z"/>
      <path class="cls-12" d="M356.83,322.59c3.82.67,7.68,1.35,11.54,2-3.86-.65-7.73-1.32-11.54-2Z"/>
      <g>
        <path class="cls-12" d="M83.36,230.33c.29,2.83-1.77,5.36-4.6,5.65s-5.36-1.77-5.65-4.61c-.29-2.83,1.77-5.36,4.6-5.65,2.84-.29,5.37,1.78,5.65,4.61Z"/>
        <path class="cls-12" d="M99.36,225.91c-5.78.59-10.94-3.62-11.53-9.39-.59-5.78,3.62-10.95,9.4-11.54,5.78-.59,10.94,3.62,11.53,9.4.59,5.78-3.62,10.94-9.4,11.53Z"/>
        <path class="cls-11" d="M99.36,225.91c-5.78.59-10.94-3.62-11.53-9.39-.59-5.78,3.62-10.95,9.4-11.54,5.78-.59,10.94,3.62,11.53,9.4.59,5.78-3.62,10.94-9.4,11.53Z"/>
        <path class="cls-11" d="M78.76,235.98c-2.83.29-5.36-1.77-5.65-4.61-.29-2.83,1.77-5.36,4.6-5.65,2.84-.29,5.37,1.78,5.65,4.61.29,2.83-1.77,5.36-4.6,5.65Z"/>
      </g>
    </g>
  </g>
</svg>