<?xml version="1.0" encoding="UTF-8"?>
<svg id="Ebene_2" xmlns="http://www.w3.org/2000/svg" xmlns:xlink="http://www.w3.org/1999/xlink" viewBox="0 0 382.27 454.35">
  <defs>
    <style>
      .cls-1, .cls-2 {
        opacity: .37;
      }

      .cls-1, .cls-3 {
        fill: #16192b;
      }

      .cls-4 {
        fill: url(#Unbenannter_Verlauf_31-2);
      }

      .cls-5 {
        fill: url(#Unbenannter_Verlauf_31-3);
      }

      .cls-6 {
        fill: url(#Unbenannter_Verlauf_31-4);
      }

      .cls-7 {
        fill: url(#Unbenannter_Verlauf_21-2);
      }

      .cls-8 {
        fill: url(#Unbenannter_Verlauf_21-3);
      }

      .cls-9 {
        fill: url(#Unbenannter_Verlauf_21);
      }

      .cls-10 {
        fill: url(#Unbenannter_Verlauf_31);
      }

      .cls-11 {
        fill: #b5bac1;
      }

      .cls-12 {
        fill: #1d1f21;
      }
    </style>
    <radialGradient id="Unbenannter_Verlauf_31" data-name="Unbenannter Verlauf 31" cx="157.15" cy="25.93" fx="157.15" fy="25.93" r="88.55" gradientUnits="userSpaceOnUse">
      <stop offset="0" stop-color="#e62f2f"/>
      <stop offset=".79" stop-color="#bf1e49"/>
    </radialGradient>
    <radialGradient id="Unbenannter_Verlauf_31-2" data-name="Unbenannter Verlauf 31" cx="261.1" cy="223.98" fx="261.1" fy="223.98" r="7.55" xlink:href="#Unbenannter_Verlauf_31"/>
    <radialGradient id="Unbenannter_Verlauf_31-3" data-name="Unbenannter Verlauf 31" cx="279.22" cy="205.52" fx="279.22" fy="205.52" r="15.41" xlink:href="#Unbenannter_Verlauf_31"/>
    <radialGradient id="Unbenannter_Verlauf_31-4" data-name="Unbenannter Verlauf 31" cx="262.86" cy="137.45" fx="262.86" fy="137.45" r="154.22" xlink:href="#Unbenannter_Verlauf_31"/>
    <radialGradient id="Unbenannter_Verlauf_21" data-name="Unbenannter Verlauf 21" cx="76.7" cy="228.4" fx="76.7" fy="228.4" r="6.93" gradientUnits="userSpaceOnUse">
      <stop offset="0" stop-color="#c4c9cc"/>
      <stop offset="1" stop-color="#8a8f99"/>
    </radialGradient>
    <radialGradient id="Unbenannter_Verlauf_21-2" data-name="Unbenannter Verlauf 21" cx="95.15" cy="210.44" fx="95.15" fy="210.44" r="14.14" xlink:href="#Unbenannter_Verlauf_21"/>
    <radialGradient id="Unbenannter_Verlauf_21-3" data-name="Unbenannter Verlauf 21" cx="133.04" cy="168" fx="133.04" fy="168" r="258.44" xlink:href="#Unbenannter_Verlauf_21"/>
  </defs>
  <g id="Ebene_1-2" data-name="Ebene_1">
    <g>
      <path class="cls-10" d="M235.12,64.79c-2.93,5.4-6.39,8.02-10.64,17.26-1.12,2.43-.96,2.42-2.13,4.97,0,0-4.27,9.31-9.71,16.23-2.35,2.99-5.32,5.67-8.72,8.01h0c-13.5,9.26-33.73,12.74-48.47,5.48-4.77-2.35-7.83-5.47-12.28-10.01-2.74-2.78-10.22-10.87-16.07-24.94-6.13-14.78-12.69-30.14-5.26-42.72,4.94-8.36,16.11-16.35,24.77-13.34,7.83,2.71,10.63,13.39,11.64,20.4.72-7.21,2.72-15.66,7.36-24.14,3.66-6.7,8.41-15.36,18.73-19.49,5.04-2.01,12.1-3.22,18.36-2.03,3.56.67,6.86,2.11,9.39,4.61,7.63,7.51,5.15,21.43,1.63,32h0v.02c1.88-1.08,3.88-1.81,5.94-2.15,4.2-.7,9.28.13,13.28,2.49,2.08,1.24,3.87,2.9,5.08,4.97,4.8,8.21-1.41,19.66-2.88,22.38Z"/>
      <path class="cls-4" d="M257.84,227.44c-.29-2.83,1.78-5.36,4.61-5.65s5.36,1.77,5.65,4.6c.29,2.83-1.77,5.37-4.6,5.65-2.84.29-5.37-1.77-5.66-4.6Z"/>
      <path class="cls-5" d="M272.57,212.58c-.41-4.02,1.49-7.73,4.63-9.82.5-.34,1.03-.63,1.6-.88.98-.43,2.04-.72,3.16-.83,5.78-.59,10.95,3.61,11.54,9.39.59,5.78-3.62,10.95-9.4,11.54-5.78.59-10.94-3.62-11.53-9.4Z"/>
      <path class="cls-6" d="M371.44,195.19l-55.39-76.74c-7.88-10.9-19.35-18.69-32.4-21.99l-28.02-7.07-8.57-2.16c-12.9,20.31-26.38,40.26-40.03,60.08,3.17.88,6.6.91,9.97.41.39-.05.77-.11,1.16-.18l2.55-.26c3.48-.36,6.59,2.19,6.95,5.67.28,4.96.32,9.95.1,14.93-.41,9.43-1.71,18.86-3.9,28.1-2.74,11.6-6.88,22.92-12.31,33.62,2,1.94,4.42,4.31,6.61,6.44,3.24,3.15,5.96,5.8,5.96,5.8,2.54,2.44,3.24,5.85,2.57,9.07-.4,2.85-1.02,5.67-1.85,8.42-.75,2.51-1.67,4.96-2.77,7.32-2.28,4.95-5.28,9.52-8.81,13.54l-3.81,4.23c5.43-.57,10.76-1.99,15.78-4.19,3.73-1.62,7.28-3.68,10.58-6.14,3.28-2.43,7.73-2.2,10.73.31,6.89,5.65,12.65,12.69,16.93,20.55l5.95-5.16c5.59-5.04,14.95-2.23,16.91,4.98,3.27,10.39,9.9,19.64,18.6,26.14,9.09-3.85,19.3-8,27.91-11.4l11.39-4.43,1.18-.45c1.5-.59,3.1-.57,4.5-.07l10.64,3.76c5.03,1.8,10.34,3.73,15.65,5.71l5.92-81.18c.98-13.42-2.81-26.76-10.68-37.66ZM345.72,175.42c-.94,1.67-2.41,2.76-4.1,3.35-2.76,1.1-5.52,1.84-8.31,2.58-3.11.84-6.23,1.56-9.34,2.27,8.32,7.89,13.96,18.69,15.22,30.99,2.79,27.32-17.09,51.72-44.41,54.51-27.31,2.79-51.72-17.1-54.5-44.41-.52-5.08-.26-10.05.69-14.81-13.27-2.21-16.39-13.3-8-23.43,2.07-2.55,4.41-4.67,6.91-6.49,1.08-.79,2.6-.55,3.39.53.67.92.6,2.14-.08,2.97-2.86,3.83-5.95,8.39-5.63,13.16.13.78.49,1.03.67.97.16-.04.5.06,1.26.16,1.86.34,5.71-.14,8.25-.69,1.05-.18,2.6-.63,3.65-.89l1.71-.59c10.26-3.57,16.49-12.45,24.53-19.56,12.34-11.31,30.13-17.66,46.75-16.05,6.48.67,12.9,2.3,18.6,5.54,3.49,1.98,4.71,6.4,2.74,9.89Z"/>
      <g class="cls-2">
        <path class="cls-3" d="M225.44,259.91c2.54,2.44,3.24,5.85,2.57,9.07-.54,3.83-1.46,7.61-2.78,11.25-5.02,2.2-10.35,3.62-15.78,4.19l3.81-4.23c3.53-4.02,6.53-8.59,8.81-13.54,1.1-2.36,2.02-4.81,2.77-7.32.39.37.6.58.6.58Z"/>
        <path class="cls-3" d="M211.55,229.6c5.43-10.7,9.57-22.02,12.31-33.62,2.19-9.24,3.49-18.67,3.9-28.1.66.89,1.1,1.96,1.22,3.14.82,14.36-.45,28.91-3.8,43.03-1.77,7.48-4.11,14.84-7.02,21.99-2.19-2.13-4.61-4.5-6.61-6.44Z"/>
        <path class="cls-3" d="M255.63,89.39c-12.43,19.73-25.42,39.1-38.63,58.33-3.37.5-6.8.47-9.97-.41,13.65-19.82,27.13-39.77,40.03-60.08l8.57,2.16Z"/>
      </g>
      <path class="cls-1" d="M235.12,64.79c-2.93,5.4-6.39,8.02-10.64,17.26-1.12,2.43-.96,2.42-2.13,4.97,0,0-4.27,9.31-9.71,16.23-2.35,2.99-5.32,5.67-8.72,8.01h0c-3.31-3-6.63-6.01-9.94-9.03,2.26-9.18,4.52-18.36,6.78-27.55,1.5-.21,23.11-3.64,30.27-21.43,2.48-6.15,2.39-11.95,1.9-15.82,2.08,1.24,3.87,2.9,5.08,4.97,4.8,8.21-1.41,19.66-2.88,22.38Z"/>
      <path class="cls-9" d="M83.37,230.32c.29,2.84-1.77,5.37-4.61,5.66-2.83.28-5.36-1.78-5.65-4.61-.29-2.83,1.78-5.36,4.61-5.65s5.36,1.77,5.65,4.6Z"/>
      <path class="cls-7" d="M108.76,214.37c.59,5.78-3.61,10.95-9.39,11.54-5.78.59-10.95-3.62-11.54-9.4-.59-5.78,3.62-10.94,9.4-11.53,5.78-.59,10.94,3.61,11.53,9.39Z"/>
      <path class="cls-8" d="M349.27,321.23c-4.31,2.47-9.2,5.23-14.09,7.97-1.14.64-2.28,1.28-3.42,1.91-4.38,2.43-8.65,4.78-12.4,6.8-3.59,1.9-7.17,3.84-10.79,5.69-3.43,1.76-7.38,1.47-10.42-.43-11.02-6.84-20.09-16.64-26.18-28.04l-5.85,4.93-.45.38c-4.25,3.58-10.59,3.03-14.16-1.21-.6-.71-1.08-1.48-1.44-2.29-.1-.2-.18-.41-.26-.61-.08-.21-.15-.41-.21-.62-.06-.21-.12-.42-.17-.63-.06-.22-.1-.43-.14-.64-.06-.38-.12-.75-.18-1.13-.06-.38-.13-.75-.21-1.13-.07-.37-.15-.75-.24-1.12-.61-2.74-1.46-5.45-2.54-8.08-.12-.29-.24-.58-.36-.86-1.26-2.95-2.81-5.8-4.63-8.49-.2-.3-.41-.61-.63-.91-.22-.32-.45-.64-.69-.96-.41.28-.82.55-1.24.82-1.67,1.09-3.39,2.11-5.15,3.05-.88.48-1.77.93-2.67,1.36-.9.44-1.82.86-2.74,1.25-.39.17-.78.34-1.17.49-.25.11-.5.21-.76.31-.51.21-1.03.41-1.55.6-.45.17-.91.33-1.37.49-.61.22-1.22.42-1.83.61-.42.13-.83.26-1.25.38-.67.2-1.34.39-2.01.57-10.45,2.8-21.51,3.15-32.17,1.11-.51-.1-1-.23-1.47-.4-.22-.07-.43-.16-.64-.25-1.56-.67-2.85-1.71-3.82-2.97-.09-.1-.17-.21-.24-.32-.09-.12-.17-.23-.24-.35-.23-.36-.44-.73-.62-1.11-.06-.1-.11-.21-.15-.31-.42-.94-.69-1.93-.81-2.94-.02-.13-.03-.27-.04-.4-.02-.14-.03-.28-.03-.42-.02-.43-.01-.86.03-1.28.01-.14.02-.28.04-.43.01-.09.03-.19.04-.29.07-.47.18-.94.33-1.39.04-.14.09-.27.14-.41.09-.28.2-.55.33-.82.06-.14.13-.27.2-.4.14-.27.29-.53.45-.78.13-.2.26-.4.42-.59.13-.18.27-.36.42-.53,0,0,.13-.18.38-.51.03-.06.07-.12.13-.18.17-.23.38-.52.63-.86.05-.08.11-.15.17-.23.03-.04.06-.09.09-.13.07-.1.15-.2.23-.31.53-.73,1.18-1.6,1.89-2.57.15-.2.31-.41.46-.62.27-.37.54-.74.83-1.13.26-.36.54-.73.82-1.11,1.56-2.12,3.24-4.41,4.75-6.46.19-.26.38-.51.56-.76,1.76-2.38,3.22-4.36,3.87-5.25.08-.11.15-.21.21-.28.08-.11.14-.19.16-.22h0c.27-.4.54-.79.8-1.19.25-.4.5-.8.74-1.21.21-.36.42-.73.61-1.1.18-.33.34-.65.5-.98.16-.31.31-.63.45-.95.06-.13.12-.26.17-.4.11-.25.22-.5.32-.75.23-.57.45-1.15.64-1.73.15-.44.29-.87.41-1.31.13-.44.25-.88.36-1.32.07-.31.14-.61.21-.92.05-.24.1-.48.14-.71.07-.35.13-.7.18-1.05l-8.51-15.09-.88-1.55c-.86-1.53-1.22-3.2-1.11-4.83v-.17c.01-.11.02-.23.04-.34.01-.13.03-.27.06-.4.01-.13.03-.26.07-.39.02-.08.03-.16.06-.24.02-.15.06-.29.11-.44.12-.43.28-.84.47-1.24.08-.2.18-.38.29-.57.09-.19.2-.37.32-.55.39-.58.78-1.16,1.16-1.75.54-.82,1.06-1.65,1.58-2.49.07-.11.14-.22.2-.33.52-.84,1.02-1.68,1.51-2.53.73-1.25,1.44-2.51,2.12-3.78.31-.57.62-1.14.91-1.72.17-.31.33-.62.48-.93.56-1.09,1.1-2.18,1.62-3.29.79-1.65,1.55-3.32,2.26-5.01.24-.56.48-1.12.71-1.69.23-.56.46-1.13.68-1.7.27-.67.53-1.35.78-2.02.18-.47.35-.94.52-1.41.21-.57.42-1.15.62-1.73.41-1.16.79-2.32,1.16-3.48.22-.66.42-1.33.62-2,.2-.64.39-1.28.56-1.92.5-1.75.97-3.5,1.39-5.27.12-.47.23-.95.34-1.43.14-.59.27-1.19.4-1.79.5-2.29.94-4.6,1.32-6.92.14-.85.27-1.7.39-2.55.07-.46.13-.92.19-1.39.08-.6.16-1.2.23-1.8.15-1.22.28-2.45.39-3.68-2.44.51-4.96.67-7.51.49-6.49-.46-12.79-3.51-17.35-8.06-.45-.4-.85-.85-1.18-1.32-.09-.11-.18-.23-.25-.36,0-.01,0-.01,0-.01-.16-.24-.3-.49-.41-.75-.13-.25-.25-.51-.35-.78-.1-.27-.18-.53-.25-.8-.18-.69-.27-1.39-.27-2.1,0-.44.03-.88.1-1.31.04-.21.08-.43.13-.64.1-.43.24-.85.42-1.26.07-.15.14-.31.22-.46.06-.12.12-.24.19-.35.08-.14.16-.27.25-.4.11-.19.24-.36.38-.54,10.04-13.09,20.12-26.15,30.43-39.04,7.18-9,14.42-17.96,21.79-26.8l-12.73-3.21-16.73-4.23h-.01l-14.79-3.73c-13.11-3.32-26.97-1.9-39.13,3.99l-28.13,13.62-57.44,27.8c-5.76,2.78-10.97,6.5-15.44,10.93,4.4,3.92,8.79,7.85,13.18,11.77.44.39.99.63,1.57.69l28.89,2.77c2.87.28,3.44,4.23.75,5.3-6.47,2.57-12.94,5.13-19.41,7.7-7.91-1.46-16.46-3.03-24.37-4.49-3.62-3.32-7.24-6.65-10.86-9.97-.61,1.14-1.19,2.31-1.72,3.5L5.04,228.45c-5.54,12.32-6.55,26.22-2.86,39.22l25.93,91.46c1.14,4.02,2.7,7.87,4.65,11.5,2.77-1.31,5.54-2.62,8.31-3.93.67-.32,1.18-.89,1.42-1.59l3.89-11.27c.93-2.67,4.8-2.38,5.31.41l1.08,5.98c.27,1.48,1.69,2.47,3.18,2.22,3.41-.59,6.83-1.18,10.25-1.77.77-.13,1.55.07,2.17.55,4.45,3.51,8.91,7.01,13.37,10.52,2.24,1.77.64,5.36-2.17,4.87-4.51-.77-9.02-1.55-13.53-2.32-.59-.11-1.21,0-1.74.27-6.79,3.55-13.58,7.11-20.37,10.66,2.23,2.11,4.63,4.05,7.2,5.79l78.65,53.4c11.19,7.59,24.69,11.01,38.14,9.63l94.58-9.65c3.4-.34,6.74-.99,9.98-1.92l-1.82-22.56c-.24-2.95,3.71-4.14,5.15-1.56l10.19,18.28c4.33-2.57,8.34-5.72,11.9-9.38l66.25-68.19c8.64-8.89,14.16-20.33,15.76-32.59-10.17-1.61-20.67-3.44-30.64-5.25ZM69.65,285.49c-.58.22-1.11-.6-.63-1.03,3.2-3.11,6.74-5.81,10.53-8.11-10.12-8.04-17.1-19.99-18.52-33.86-2.79-27.31,17.1-51.72,44.41-54.5,27.32-2.79,51.72,17.09,54.51,44.41,1.6,15.66-4.26,30.36-14.7,40.57,4.72,2.18,9.15,4.94,13.04,8.35.48.41.05,1.26-.57,1.08-31.46-8.38-57.29-7.62-88.07,3.09ZM269.78,335.6c-1.47,15.42-10.49,30.05-23.21,38.88-2.57,1.79-5.44,3.47-8.25,4.83-2.54,1.29-6.06,2.65-8.79,3.56-14.6,4.68-30.7,4.22-45.18-.56-11.37-3.6-21.59-9.82-30.05-17.54-1.5-1.36-1.61-3.69-.24-5.18,1.16-1.28,2.98-1.53,4.43-.78,15.78,7.84,33.65,12.57,51.29,10.25,17.2-2.29,30.13-11.14,40.67-24.68,3.08-3.83,5.84-8.1,8.82-12.5,3.29-4.91,11.04-2.12,10.51,3.72Z"/>
      <g>
        <path class="cls-12" d="M268.1,226.39c.29,2.83-1.77,5.37-4.6,5.65-2.84.29-5.37-1.77-5.66-4.6s1.78-5.36,4.61-5.65,5.36,1.77,5.65,4.6Z"/>
        <path class="cls-12" d="M284.1,221.98c-5.78.59-10.94-3.62-11.53-9.4-.41-4.02,1.49-7.73,4.63-9.82.5-.34,1.03-.63,1.6-.88.98-.43,2.04-.72,3.16-.83,5.78-.59,10.95,3.61,11.54,9.39.59,5.78-3.62,10.95-9.4,11.54Z"/>
        <path class="cls-12" d="M278.8,201.88c-.53.3-1.06.59-1.6.88.5-.34,1.03-.63,1.6-.88Z"/>
        <path class="cls-11" d="M284.1,221.98c-5.78.59-10.94-3.62-11.53-9.4-.41-4.02,1.49-7.73,4.63-9.82.5-.34,1.03-.63,1.6-.88.98-.43,2.04-.72,3.16-.83,5.78-.59,10.95,3.61,11.54,9.39.59,5.78-3.62,10.95-9.4,11.54Z"/>
        <path class="cls-11" d="M263.5,232.04c-2.84.29-5.37-1.77-5.66-4.6s1.78-5.36,4.61-5.65,5.36,1.77,5.65,4.6c.29,2.83-1.77,5.37-4.6,5.65Z"/>
      </g>
      <g>
        <path class="cls-12" d="M83.37,230.32c.29,2.84-1.77,5.37-4.61,5.66-2.83.28-5.36-1.78-5.65-4.61-.29-2.83,1.78-5.36,4.61-5.65s5.36,1.77,5.65,4.6Z"/>
        <path class="cls-12" d="M99.37,225.91c-5.78.59-10.95-3.62-11.54-9.4-.59-5.78,3.62-10.94,9.4-11.53,5.78-.59,10.94,3.61,11.53,9.39.59,5.78-3.61,10.95-9.39,11.54Z"/>
        <path class="cls-11" d="M99.37,225.91c-5.78.59-10.95-3.62-11.54-9.4-.59-5.78,3.62-10.94,9.4-11.53,5.78-.59,10.94,3.61,11.53,9.39.59,5.78-3.61,10.95-9.39,11.54Z"/>
        <path class="cls-11" d="M78.76,235.98c-2.83.28-5.36-1.78-5.65-4.61-.29-2.83,1.78-5.36,4.61-5.65s5.36,1.77,5.65,4.6c.29,2.84-1.77,5.37-4.61,5.66Z"/>
      </g>
    </g>
  </g>
</svg>