<?xml version="1.0" encoding="UTF-8"?>
<svg id="Ebene_2" data-name="Ebene 2" xmlns="http://www.w3.org/2000/svg" viewBox="0 0 99.09 129.24">
  <defs>
    <style>
      .cls-1 {
        fill: #b5bac1;
      }
    </style>
  </defs>
  <g id="Ebene_1-2" data-name="Ebene 1">
    <path class="cls-1" d="M99.09,19.8v20.92l-6.97,13.95-14.85,7.42v58.94l-3.15,5.62-7.81,2.58-7.81-2.58-3.15-5.62v-58.94l-14.85-7.42-6.97-13.95v-20.92l9.9-13.95L55.35,0v24.97l2.92,6.52,8.03,3.15,8.03-3.15,2.92-6.52V0l11.92,5.85,9.9,13.95ZM0,27.74l3.15,5.62,2.86.94v49.78c-2,1.12-4,2.25-6.01,3.37v33.58l3.15,5.62,7.81,2.58,7.8-2.58,3.15-5.62v-33.31c-1.98-1.2-3.95-2.39-5.93-3.59-.03,0-.05,0-.08,0v-49.82l2.86-.95,3.15-5.62V9.59H0v18.15Z"/>
  </g>
</svg>