<?xml version="1.0" encoding="UTF-8"?>
<svg id="Ebene_2" data-name="Ebene 2" xmlns="http://www.w3.org/2000/svg" viewBox="0 0 117.37 117.37">
  <defs>
    <style>
      .cls-1 {
        fill: #b5bac1;
      }
    </style>
  </defs>
  <g id="Ebene_1-2" data-name="Ebene 1">
    <path class="cls-1" d="M117.37,80.91l-3.69,20.64-13.38,12.62-19.99,3.2h-28.49l-12.8-4.13-10-11.37h27.97l.67-.11,19.98-3.19,2.59-.42,1.9-1.79,13.38-12.62,2.04-1.93.5-2.76,3.69-20.64.19-1.05-.08-1.06-2.07-29.01,2.58.83,12.24,13.93,2.77,38.86ZM56.31,93.37h-28.49l-1.51-.49-11.29-3.64-12.25-13.93L0,36.45,3.7,15.81,17.08,3.19,37.06,0h28.49l12.81,4.12,12.24,13.93.46,6.44,2.31,32.42-3.69,20.64-13.38,12.62-19.99,3.2ZM51.45,80.62c1.64-4.01,3.29-8.03,4.93-12.05,0-6.31-.03-11.9-.05-17.49-.02-5.6-.04-11.2-.06-17.5,5.36,2.5,10.71,5,16.06,7.5-.58-3.87-1.17-7.74-1.76-11.61-1.17-1.82-2.34-3.65-3.51-5.47-2.99-4.67-5.98-9.33-8.97-14-5.06,1.84-10.12,3.68-15.18,5.52v31.41h-8.72c-2.88,1.68-5.78,3.37-8.67,5.06-.86.5-1.71,1-2.57,1.5-.64,4.75-1.27,9.5-1.91,14.26,1.28,3.74,2.56,7.49,3.84,11.23.15.05.3.1.45.15,4.23,1.41,8.46,2.82,12.7,4.23,4.47-.91,8.95-1.82,13.42-2.74Z"/>
  </g>
</svg>