<?xml version="1.0" encoding="UTF-8"?>
<svg id="Ebene_2" data-name="Ebene 2" xmlns="http://www.w3.org/2000/svg" viewBox="0 0 116.94 117.29">
  <defs>
    <style>
      .cls-1 {
        fill: #b5bac1;
      }
    </style>
  </defs>
  <g id="Ebene_1-2" data-name="Ebene 1">
    <path class="cls-1" d="M68.61,45.62c-1.82-5.33-3.64-10.66-5.46-15.99.9-6.77,1.81-13.53,2.71-20.3,5.33-3.11,10.67-6.22,16-9.33h18.72c3.51,4.16,7.02,8.32,10.53,12.48.78,6.11,1.56,12.22,2.34,18.33-2.34,5.72-4.68,11.44-7.02,17.16-6.37,1.3-12.74,2.6-19.11,3.9-6.24-2.08-12.48-4.16-18.72-6.24ZM52.5.5H2.21v50.62h50.29V.5ZM0,89.83l27.46,27.46,27.47-27.47-27.59-27.32L0,89.83ZM88.89,67.58l-30.65,48.98h58.69l-28.05-48.98Z"/>
  </g>
</svg>