<?xml version="1.0" encoding="UTF-8"?>
<svg id="Ebene_2" data-name="Ebene 2" xmlns="http://www.w3.org/2000/svg" viewBox="0 0 94.75 114.93">
  <defs>
    <style>
      .cls-1 {
        fill: #b5bac1;
      }
    </style>
  </defs>
  <g id="Ebene_1-2" data-name="Ebene 1">
    <path class="cls-1" d="M28.06,44.74c-1.78-5.23-3.57-10.45-5.35-15.68.89-6.64,1.78-13.27,2.66-19.91,5.23-3.05,10.46-6.1,15.69-9.15h18.36c3.44,4.08,6.88,8.16,10.33,12.24.76,5.99,1.53,11.98,2.29,17.97-2.29,5.61-4.59,11.22-6.88,16.83-6.25,1.27-12.49,2.55-18.74,3.82-6.12-2.04-12.24-4.08-18.36-6.12ZM88.13,78.54l-20.54-10.84-22.09-2.58-26.81,5.54L0,86.26l.67,20.57,8.99,8.1h73.25l7.79-4.36,3.41-7.48.64-14.03-6.62-10.52Z"/>
  </g>
</svg>