<?xml version="1.0" encoding="UTF-8"?>
<svg id="Ebene_2" data-name="Ebene 2" xmlns="http://www.w3.org/2000/svg" viewBox="0 0 121.13 121.13">
  <defs>
    <style>
      .cls-1 {
        fill: #b5bac1;
      }
    </style>
  </defs>
  <g id="Ebene_1-2" data-name="Ebene 1">
    <path class="cls-1" d="M117.54,23.42l-15.88-18.07L85.04,0h-36.96l-25.92,4.15L4.8,20.52,0,47.3l3.6,50.41,15.88,18.07,16.62,5.35h36.96l25.92-4.14,17.36-16.37,4.79-26.79-3.59-50.41ZM43.19,26.49c4.13-2.41,8.27-4.83,12.4-7.23h14.49c2.72,3.23,5.44,6.44,8.16,9.67.6,4.73,1.21,9.46,1.81,14.19-1.81,4.44-3.63,8.86-5.44,13.3-4.93,1-9.86,2.02-14.8,3.02-4.83-1.61-9.67-3.23-14.5-4.83-1.41-4.12-2.82-8.26-4.23-12.39.7-5.23,1.4-10.48,2.11-15.72ZM97.48,100.69l-2.69,5.91c-2.05,1.15-4.1,2.3-6.15,3.45-5.88.73-11.75,1.45-17.61,2.18-8.89.15-17.78.3-26.66.46-4.53-.89-9.07-1.76-13.59-2.64l-7.11-6.4-.53-16.25,14.77-12.31,21.17-4.38,17.46,2.04,16.22,8.56,5.22,8.31-.51,11.07Z"/>
  </g>
</svg>