<?xml version="1.0" encoding="UTF-8"?>
<svg id="Ebene_2" data-name="Ebene 2" xmlns="http://www.w3.org/2000/svg" viewBox="0 0 116.94 123.12">
  <defs>
    <style>
      .cls-1 {
        fill: #b5bac1;
        fill-rule: evenodd;
      }
    </style>
  </defs>
  <g id="Ebene_1-2" data-name="Ebene 1">
    <path class="cls-1" d="M30.29,52.79l35.04-35.04c-.78-3.41-1.55-6.82-2.33-10.22,2.08-2.51,4.15-5.02,6.23-7.53,8.9,7.83,17.79,15.66,26.69,23.49l18.97,23.53-7.71,8.15-8.32.69-12.42,11.77,30.5,29v5.98l-6.96,5.23-33.02-30.73-10.28,10.64.88,9.96-6.29,7.19-26.67-24.85-19.44-20.93,7.52-8.83,7.61,2.49ZM.96,123.12h67.27l.92-11.95-28.94,3.62L0,111.91l.96,11.21Z"/>
  </g>
</svg>