<?xml version="1.0" encoding="UTF-8"?>
<svg id="Ebene_2" data-name="Ebene 2" xmlns="http://www.w3.org/2000/svg" viewBox="0 0 121.13 112.77">
  <defs>
    <style>
      .cls-1 {
        fill: #b5bac1;
      }
    </style>
  </defs>
  <g id="Ebene_1-2" data-name="Ebene 1">
    <path class="cls-1" d="M117.53,36.93c-1.81-5.34-3.63-10.69-5.44-16.03-3.66-.69-7.31-1.38-10.97-2.08V5.38l-2.34-3.98-4.67-1.4-7.25.94-3.27,5.37v9.65c-11.77-.15-23.55-.29-35.32-.44-3.58.54-7.15,1.09-10.73,1.63V5.38l-2.34-3.98-4.67-1.4-7.25.94-3.27,5.37v13.51c-1.33.2-2.67.41-4,.61-4.99,4.75-9.97,9.51-14.96,14.26-.35,8.7-.7,17.41-1.05,26.11l3.59,30.57c1.67,5.16,3.35,10.32,5.02,15.48,9.45,1.97,18.91,3.95,28.36,5.92,12.16-.21,24.31-.42,36.47-.62,12.05-1.87,24.1-3.74,36.16-5.61,2.25-4.09,4.49-8.18,6.74-12.26l4.8-26.78-3.6-30.56ZM35.23,87.39c-2.39.49-4.78.97-7.18,1.46-2.34-.78-4.68-1.56-7.03-2.34-.68-2-1.37-4.01-2.05-6.01.34-2.54.68-5.08,1.02-7.63,2.01-1.17,4.01-2.34,6.01-3.5h7.04c1.32,1.56,2.63,3.12,3.95,4.68.3,2.3.59,4.6.88,6.89-.88,2.15-1.76,4.3-2.64,6.45ZM35.23,57.47c-2.39.48-4.78.97-7.18,1.46-2.34-.78-4.68-1.56-7.03-2.34-.68-2.01-1.37-4.01-2.05-6.01.34-2.54.68-5.09,1.02-7.63,2.01-1.17,4.01-2.34,6.01-3.51h7.04c1.32,1.57,2.63,3.13,3.95,4.69.3,2.3.59,4.59.88,6.89-.88,2.15-1.76,4.3-2.64,6.45ZM67.38,87.39c-2.4.49-4.79.97-7.18,1.46-2.35-.78-4.69-1.56-7.04-2.34-.68-2-1.36-4.01-2.05-6.01.34-2.54.68-5.08,1.02-7.63,2.01-1.17,4.01-2.34,6.02-3.5h7.03l3.96,4.68c.29,2.3.58,4.6.87,6.89-.87,2.15-1.75,4.3-2.63,6.45ZM67.38,57.47c-2.4.48-4.79.97-7.18,1.46-2.35-.78-4.69-1.56-7.04-2.34-.68-2.01-1.36-4.01-2.05-6.01.34-2.54.68-5.09,1.02-7.63,2.01-1.17,4.01-2.34,6.02-3.51h7.03c1.32,1.57,2.64,3.13,3.96,4.69.29,2.3.58,4.59.87,6.89-.87,2.15-1.75,4.3-2.63,6.45ZM99.52,57.47c-2.39.48-4.79.97-7.18,1.46-2.34-.78-4.69-1.56-7.03-2.34-.69-2.01-1.37-4.01-2.05-6.01.34-2.54.68-5.09,1.02-7.63,2-1.17,4.01-2.34,6.01-3.51h7.03c1.32,1.57,2.64,3.13,3.96,4.69.29,2.3.58,4.59.88,6.89-.88,2.15-1.76,4.3-2.64,6.45Z"/>
  </g>
</svg>