<?xml version="1.0" encoding="UTF-8"?>
<svg id="Ebene_2" data-name="Ebene 2" xmlns="http://www.w3.org/2000/svg" viewBox="0 0 121.13 121.13">
  <defs>
    <style>
      .cls-1 {
        fill: #b5bac1;
        fill-rule: evenodd;
      }
    </style>
  </defs>
  <g id="Ebene_1-2" data-name="Ebene 1">
    <path class="cls-1" d="M117.54,23.42l-15.89-18.07L85.04,0h-36.96l-25.93,4.14L4.8,20.51,0,47.29l3.6,50.42,15.88,18.07,16.61,5.35h36.97l25.92-4.15,17.36-16.37,4.79-26.78-3.59-50.41ZM82.97,88.25l-2.74,1.48-2.85-.74-9.64-9.64-11.72-11.72-.41-1.69-.53-2.21V26.53l2.08-3.43,4.63-.6,2.99.89,1.49,2.54v36.12l1.18,1.17,8.21,8.21,9.21,9.22.95,3.9-2.85,3.7Z"/>
  </g>
</svg>