<?xml version="1.0" encoding="UTF-8"?>
<svg id="Ebene_2" data-name="Ebene 2" xmlns="http://www.w3.org/2000/svg" viewBox="0 0 121.13 121.13">
  <defs>
    <style>
      .cls-1 {
        fill: #b5bac1;
      }
    </style>
  </defs>
  <g id="Ebene_1-2" data-name="Ebene 1">
    <path class="cls-1" d="M117.54,23.42l-15.89-18.07L85.04,0h-36.96l-25.93,4.14L4.8,20.51,0,47.29l3.6,50.42,15.88,18.06,16.62,5.36h36.96l25.92-4.15,17.36-16.37,4.79-26.78-3.59-50.41ZM98.15,80.51l-2.47,3.04-4.36,2.28h-43.72c-1.14.3-2.29.59-3.43.89-7.06,1.83-14.11,3.67-21.18,5.5.44-1.84.88-3.67,1.32-5.5.95-4,1.91-8,2.87-12,.13-.51.25-1.02.37-1.53-.07-1.23-.15-2.46-.21-3.7-.05-.7-.11-1.42-.16-2.12v-32.02l3.99-6.44h62.05l.31.52,2.75,4.54,1.25,2.08.62,8.55v35.91ZM87.13,51.96l-.71,2.36-2.01,1.18h-16.68l-2.71-1.65-.48-3.66.71-2.35,2-1.18h16.69l2.71,1.65.48,3.65ZM87.13,65.67l-.71,2.36-2.01,1.18h-34.44l-2.71-1.65-.48-3.66.7-2.35,2.01-1.19h34.45l2.71,1.66.48,3.65Z"/>
  </g>
</svg>