<?xml version="1.0" encoding="UTF-8"?>
<svg id="Ebene_2" data-name="Ebene 2" xmlns="http://www.w3.org/2000/svg" viewBox="0 0 105.04 117.82">
  <defs>
    <style>
      .cls-1 {
        fill: #b5bac1;
      }
    </style>
  </defs>
  <g id="Ebene_1-2" data-name="Ebene 1">
    <path class="cls-1" d="M105.04,88.83V13.41L90.7,0H15.27L0,17.61v89.61l8.73,10.6h94.75v-8.73h-5.92v-13.71l7.48-6.55ZM83.74,39.26l2.1,5.84-17.76,23.61h16.98l2.42,3.12-1.95,6.93h-31.4l-2.34-2.65,19.56-27.35h-14.11l-2.26-9.5h28.76ZM26.49,25.41c2.79-2.75,5.58-5.51,8.36-8.26,2.79,2.75,5.57,5.51,8.36,8.26,4.03,11.17,8.07,22.34,12.1,33.51h-8.95c-.82-2.67-1.63-5.34-2.45-8l-1.62-4.5h-14.88l-1.62,4.5c-.74,2.66-1.47,5.33-2.21,8h-9.19c4.04-11.17,8.07-22.34,12.1-33.51ZM90.7,109.4H12.16l-3.74-3.42,2.18-8.73h80.1v12.15ZM36.3,29.83l-1.45-1.43-1.45,1.43-3.16,8.76h9.22l-3.16-8.76Z"/>
  </g>
</svg>