<?xml version="1.0" encoding="UTF-8"?>
<svg id="Ebene_2" data-name="Ebene 2" xmlns="http://www.w3.org/2000/svg" viewBox="0 0 117.35 116.82">
  <defs>
    <style>
      .cls-1 {
        fill: #b5bac1;
      }
    </style>
  </defs>
  <g id="Ebene_1-2" data-name="Ebene 1">
    <polygon class="cls-1" points="103.36 32.71 87.57 28.22 83.83 20.1 80.83 0 69.87 1.63 73.11 23.3 85.58 50.39 83.41 71.81 81.77 73.76 43.36 34.04 59.92 30.73 57.75 19.87 37.14 23.99 23.26 40.5 20.44 68.32 23.67 75.34 15.77 73.09 .47 72.44 0 83.51 14 84.11 29.78 88.6 33.52 96.72 36.52 116.82 47.48 115.18 44.25 93.52 31.77 66.43 33.94 45.01 36.09 42.46 74.6 82.29 74.23 82.73 57.43 86.09 59.61 96.95 80.21 92.83 94.09 76.32 96.91 48.5 93.68 41.48 101.58 43.73 116.88 44.38 117.35 33.31 103.36 32.71"/>
  </g>
</svg>