<?xml version="1.0" encoding="UTF-8"?>
<svg id="Ebene_2" data-name="Ebene 2" xmlns="http://www.w3.org/2000/svg" viewBox="0 0 103.68 120.79">
  <defs>
    <style>
      .cls-1 {
        fill: #b5bac1;
      }
    </style>
  </defs>
  <g id="Ebene_1-2" data-name="Ebene 1">
    <path class="cls-1" d="M16.88,1.1c.22,1.42.44,2.85.65,4.27v109.31c-.13,2.04-.25,4.07-.38,6.11-5.48-.08-10.96-.16-16.44-.23-.24-1.57-.47-3.14-.71-4.71V6.31C.61,4.45,1.23,2.58,1.84.71c2.89-.24,5.79-.48,8.68-.71,2.12.37,4.24.74,6.36,1.1ZM70.02,11.47l-22.75-4.68L22.96,2.74v74.03c4.88,2.44,9.77,4.88,14.65,7.32l29.61,3.43c12.16-3.69,24.31-7.38,36.47-11.06V5.23l-33.66,6.23Z"/>
  </g>
</svg>