<?xml version="1.0" encoding="UTF-8"?>
<svg id="Ebene_2" data-name="Ebene 2" xmlns="http://www.w3.org/2000/svg" viewBox="0 0 115.36 100.91">
  <defs>
    <style>
      .cls-1 {
        fill: #b5bac1;
      }
    </style>
  </defs>
  <g id="Ebene_1-2" data-name="Ebene 1">
    <path class="cls-1" d="M112.54,42.07l2.83-7.81c-1.1-3.86-2.2-7.72-3.3-11.57-4.72,0-9.43,0-14.15-.01l3.6-12.75c-1.85-2.98-3.7-5.95-5.55-8.93-4.49,1.61-8.99,3.22-13.48,4.84-1.59,5.61-3.19,11.22-4.78,16.83-7.81,0-15.62-.01-23.43-.02l3.59-12.72c-4.54-3.31-9.08-6.62-13.62-9.93l-5.42,5.83-4.74,16.79c-5.87,0-11.74-.01-17.61-.02l-6.78,5.18c2.77,4.75,5.54,9.5,8.32,14.25,3.53,0,7.06,0,10.59,0l-5.71,20.22c-5.1,0-10.2-.02-15.3-.02-2.53,6.51-5.07,13.02-7.6,19.53,5.8,0,11.6-.01,17.4-.02l-3.17,11.23,3.14,7.93c5.32-1.38,10.65-2.75,15.97-4.13l4.25-15.05c7.78,0,15.57-.02,23.35-.02-1.72,6.04-3.43,12.08-5.15,18.12,6.15.33,12.29.65,18.44.98l2.75-4.02,4.26-15.1c6.05,0,12.1-.01,18.15-.02,2.19-6.43,4.38-12.85,6.57-19.28-6.42,0-12.84-.02-19.26-.03l5.73-20.3c6.7,0,13.4,0,20.1,0ZM66.44,62.33c-7.79-.01-15.57-.02-23.36-.04l5.72-20.25c7.8,0,15.6,0,23.4,0-1.92,6.76-3.84,13.52-5.76,20.27Z"/>
  </g>
</svg>