<?xml version="1.0" encoding="UTF-8"?>
<svg id="Ebene_2" data-name="Ebene 2" xmlns="http://www.w3.org/2000/svg" viewBox="0 0 116.57 93.5">
  <defs>
    <style>
      .cls-1 {
        fill: #b5bac1;
      }
    </style>
  </defs>
  <g id="Ebene_1-2" data-name="Ebene 1">
    <path class="cls-1" d="M108.47,0H6.55L0,10.59v78.24l8.73,4.67h96.62l7.17-3.74,4.05-4.99V13.4L108.47,0ZM31.72,27.83c2.16-1.26,4.33-2.53,6.5-3.79h7.6c1.42,1.69,2.85,3.38,4.28,5.07.31,2.48.63,4.96.95,7.44-.95,2.32-1.9,4.65-2.86,6.97-2.58.53-5.17,1.06-7.76,1.58-2.53-.84-5.07-1.69-7.6-2.53-.74-2.16-1.48-4.33-2.22-6.49l1.11-8.25ZM60.19,66.74l-1.42,3.09-3.22,1.81h-30.34l-3.73-3.35-.27-8.53,7.74-6.45,11.1-2.3,9.15,1.07,8.51,4.49,2.74,4.36-.26,5.81ZM96.08,68.55l-2.57,1.5h-21.31l-3.46-2.1-.6-4.67.9-3.01,2.56-1.51h21.31l3.46,2.11.61,4.67-.9,3.01ZM96.08,51.04l-2.57,1.51h-21.31l-3.46-2.11-.6-4.67.9-3,2.56-1.51h21.31l3.46,2.11.61,4.66-.9,3.01Z"/>
  </g>
</svg>