<?xml version="1.0" encoding="UTF-8"?>
<svg id="Ebene_2" data-name="Ebene 2" xmlns="http://www.w3.org/2000/svg" viewBox="0 0 117.37 117.37">
  <defs>
    <style>
      .cls-1 {
        fill: #b5bac1;
      }
    </style>
  </defs>
  <g id="Ebene_1-2" data-name="Ebene 1">
    <g>
      <polygon class="cls-1" points="37.14 19.21 39.73 18.8 59.72 15.6 60.38 15.49 88.35 15.49 78.35 4.12 65.55 0 37.06 0 17.07 3.19 3.7 15.81 0 36.46 2.77 75.32 15.01 89.24 17.59 90.07 15.52 61.06 15.44 60 15.63 58.96 19.33 38.31 19.82 35.55 21.86 33.63 35.24 21.01 37.14 19.21"/>
      <path class="cls-1" d="M114.6,42.05l-12.25-13.93-11.29-3.63-1.51-.49h-28.49l-19.99,3.19-13.37,12.62-3.7,20.65,2.31,32.42.46,6.44,12.24,13.92,12.81,4.13h28.49l19.98-3.2,13.38-12.62,3.7-20.64-2.77-38.86ZM92.02,37.99l.88-.86,11.6,11.6-11.63,11.63-.1-.1-11.64-11.65,10.89-10.62ZM107.23,97.5l-8.54,9.02-18.04,3.32-12.34.98-24.44-3.35-9.97-10.44-.44-3.66-1.46-12.25,20.17-15.42,23.02,21.12,15-12.15,2.57-2.09,16.61,11.87-2.14,13.05Z"/>
    </g>
  </g>
</svg>