<?xml version="1.0" encoding="UTF-8"?>
<svg id="Ebene_2" data-name="Ebene 2" xmlns="http://www.w3.org/2000/svg" viewBox="0 0 121.13 121.13">
  <defs>
    <style>
      .cls-1 {
        fill: #b5bac1;
      }
    </style>
  </defs>
  <g id="Ebene_1-2" data-name="Ebene 1">
    <path class="cls-1" d="M117.54,23.42l-15.89-18.07L85.04,0h-36.96l-25.93,4.14L4.8,20.52,0,47.3l3.6,50.41,15.88,18.07,16.61,5.35h36.97l25.92-4.14,17.36-16.38,4.79-26.78-3.59-50.41ZM58.36,27.87l3.65-2.16,3.87.45,2.66,3.26v4.97l-.78,2.85-3.21,2.56-3.48-.26-2.87-1.99-.83-2.88-.07-4.86,1.06-1.94ZM77.68,90.07h-29.79l-2.86-1.22-1.63-5.51,3.47-3.88h9.59v-19.02c-.57-1.01-1.14-2.01-1.7-3.02h-6.87l-4.49-5.1,1.09-3.88,3.81-2.82h7.85l5.64,2.21,4.7,5.58,1.99,5.53v20.57h8.9l3.77,3.21.42,4.9-3.89,2.45Z"/>
  </g>
</svg>