<?xml version="1.0" encoding="UTF-8"?>
<svg id="Ebene_2" data-name="Ebene 2" xmlns="http://www.w3.org/2000/svg" viewBox="0 0 111.63 107.52">
  <defs>
    <style>
      .cls-1 {
        fill: #b5bac1;
      }
    </style>
  </defs>
  <g id="Ebene_1-2" data-name="Ebene 1">
    <path class="cls-1" d="M66.66,42.57l3.95,6.72v47.58l-5.52,9.06-12.24,1.59-7.88-2.36-3.95-6.72v-47.58l5.52-9.06,12.24-1.59,7.88,2.36ZM17.76,83.17l-12.24,1.59-5.52,6.22v7.46l3.95,6.71,7.88,2.37,12.24-1.59,5.52-6.23v-7.44l-3.95-6.72-7.88-2.37ZM107.68,2.36l-7.88-2.36-12.24,1.59-5.52,9.06v87.79l3.95,6.72,7.88,2.36,12.24-1.59,5.52-9.06V9.08l-3.95-6.72Z"/>
  </g>
</svg>