<?xml version="1.0" encoding="UTF-8"?>
<svg id="Ebene_2" data-name="Ebene 2" xmlns="http://www.w3.org/2000/svg" viewBox="0 0 95.47 96.58">
  <defs>
    <style>
      .cls-1 {
        fill: #b5bac1;
      }
    </style>
  </defs>
  <g id="Ebene_1-2" data-name="Ebene 1">
    <path class="cls-1" d="M39.2,31.57l-4.68-7.93,15.26-17.64,15.56-6,15.54,4.43,10.79,10.44,3.8,13.35c-.49,4.22-.97,8.44-1.46,12.66-6.72,6.89-13.43,13.79-20.15,20.68l-5.38.49-2.19-7.27c4.69-5.49,9.38-10.99,14.07-16.48,1.32-2.82,2.65-5.65,3.97-8.47-1.9-4.5-3.81-9-5.71-13.5-3.12-1.7-6.23-3.41-9.35-5.11-4.54,1.34-9.08,2.68-13.62,4.03-4.59,5-9.17,10-13.76,15l-2.69,1.32ZM53.58,66.33c-4.59,5-9.17,10-13.76,15-4.54,1.34-9.08,2.68-13.62,4.03-3.12-1.7-6.23-3.41-9.35-5.11-1.9-4.5-3.81-9-5.71-13.5,1.32-2.82,2.65-5.65,3.97-8.47,4.69-5.49,9.38-10.99,14.07-16.48l-2.19-7.27-5.38.49c-6.72,6.89-13.43,13.79-20.15,20.68-.49,4.22-.97,8.44-1.46,12.66l3.8,13.35,10.79,10.44,15.54,4.43,15.56-6,15.26-17.64-4.68-7.93-2.69,1.32ZM37.09,66l27.5-26.4v-5.59l-7.34-2.43-29.17,28.93,3.88,3.57,5.14,1.92Z"/>
  </g>
</svg>