<?xml version="1.0" encoding="UTF-8"?>
<svg id="Ebene_2" data-name="Ebene 2" xmlns="http://www.w3.org/2000/svg" viewBox="0 0 104.3 116.49">
  <defs>
    <style>
      .cls-1 {
        fill: #b5bac1;
      }
    </style>
  </defs>
  <g id="Ebene_1-2" data-name="Ebene 1">
    <path class="cls-1" d="M101.27,46.83c-4.65-2-9.31-4-13.96-6.01l-.53-.17v-10.73l-5.61-18.18L68.39.94l-16.37-.94-16.37.94-12.78,10.81-5.61,18.18v11.53c-4.41,2.73-8.83,5.46-13.24,8.18-1.34,9.07-2.68,18.14-4.02,27.21,1.03,8.75,2.06,17.5,3.09,26.26,4.83,3.84,9.66,7.68,14.49,11.52l16.36,1.4c11.69.16,23.38.31,35.06.47,6.7-1.48,13.4-2.96,20.1-4.44l12.62-8.65c.86-8.88,1.71-17.77,2.57-26.65-1.01-9.97-2.03-19.95-3.04-29.92ZM34.54,20.23c2.43-1.66,4.86-3.33,7.3-4.99,3.4-.77,6.79-1.54,10.19-2.3,4.03.9,8.06,1.79,12.09,2.69,1.8,1.54,3.6,3.07,5.39,4.61.36,5.28.72,10.56,1.07,15.83h-31.77l-5.4.86,1.13-16.7ZM52.02,92.88l-14.65-14.65,14.65-14.65,14.65,14.65-14.65,14.65Z"/>
  </g>
</svg>