<?xml version="1.0" encoding="UTF-8"?>
<svg id="Ebene_2" data-name="Ebene 2" xmlns="http://www.w3.org/2000/svg" viewBox="0 0 73.02 112.05">
  <defs>
    <style>
      .cls-1 {
        fill: #b5bac1;
        fill-rule: evenodd;
      }
    </style>
  </defs>
  <g id="Ebene_1-2" data-name="Ebene 1">
    <path class="cls-1" d="M19.53,60.73l-3.61-4.44V14.01L26.3,2.34l15.3-2.34,10.64,8.04,3.63,7.78v40.47l-5.97,9.59-6.47,1.71-11.55-11.55-4.17-4.17-4.01,4.34-3.42,3.71-.75.81ZM31.55,86.08l.03-.03-5.28-5.28-9.29-9.28-3.85-3.85,1.13-1.23-5.79-8.57v-20.23H0v22.83l8.65,12.83,16.02,12.01,6.88.8ZM69.6,56.04l1.42,1.42v-18.29h-8.51v15.94l3.08-3.08,4.01,4.01ZM73.02,67.48l-3.65-3.65-3.78-3.78-13.09,13.09h0s-5.77,5.77-5.77,5.77l-2.94-2.94-6.69-6.69-9.23-9.23c-1.57,1.7-3.15,3.41-4.72,5.12-.71.77-1.42,1.54-2.13,2.31,3.33,3.32,6.66,6.65,9.98,9.98,1.55,1.54,3.1,3.09,4.65,4.64l3.95,3.95c-.11.11-.21.21-.32.32l-7.63,7.63c-3.54,3.54-7.08,7.08-10.63,10.62l7.43,7.43,6.19-6.19h0l5.51-5.51h0s6.87-6.87,6.87-6.87l18.57,18.57,7.43-7.43-18.57-18.57,18.57-18.57Z"/>
  </g>
</svg>