<?xml version="1.0" encoding="UTF-8"?>
<svg id="Ebene_2" data-name="Ebene 2" xmlns="http://www.w3.org/2000/svg" viewBox="0 0 106.13 105.86">
  <defs>
    <style>
      .cls-1 {
        fill: #b5bac1;
      }
    </style>
  </defs>
  <g id="Ebene_1-2" data-name="Ebene 1">
    <path class="cls-1" d="M42.35,0L0,1.32v42.28l57.11,58.54,9.04,3.72,10.47-31.32,28.55-4.76.96-7.61L42.35,0ZM30.64,33.87c-1.67.34-3.34.68-5,1.02-1.64-.54-3.27-1.09-4.9-1.63-.48-1.4-.95-2.79-1.43-4.19.24-1.77.47-3.54.71-5.31,1.4-.82,2.79-1.63,4.19-2.44h4.9c.92,1.08,1.84,2.17,2.75,3.26.21,1.6.41,3.2.62,4.8-.62,1.5-1.23,2.99-1.84,4.49Z"/>
  </g>
</svg>