<?xml version="1.0" encoding="UTF-8"?>
<svg id="Ebene_2" data-name="Ebene 2" xmlns="http://www.w3.org/2000/svg" viewBox="0 0 116.58 114.21">
  <defs>
    <style>
      .cls-1 {
        fill: #b5bac1;
      }
    </style>
  </defs>
  <g id="Ebene_1-2" data-name="Ebene 1">
    <path class="cls-1" d="M108.48,32.05h-31.85l-26.14,25.28-1.19,1.14-1.57.5-15.33,4.84-1.03.33h-11.57l-2-3.58-1.8-3.23-.31-.53-.2-.59-.93-2.67-.74-2.15.66-2.18,5.14-16.92.07-.24H6.55L0,42.64v66.9l8.73,4.67h96.62l7.17-3.74,4.06-4.99v-60.03l-8.1-13.4ZM96.08,89.26l-2.57,1.5h-43.98l-3.46-2.1-.61-4.67.9-3.01,2.56-1.51h43.99l3.46,2.11.61,4.67-.9,3.01ZM96.08,71.75l-2.57,1.51h-21.3l-3.46-2.11-.61-4.67.9-3,2.56-1.51h21.31l3.46,2.11.61,4.66-.9,3.01ZM78.94,12.59l-1.25,8.71-11.12,10.75-20.95,20.25-15.33,4.84h-6.38l-1.81-3.22-.93-2.68,5.15-16.91,2.12-2.28L57.43.95l10.7-.95,7.19,3.99,3.62,8.6Z"/>
  </g>
</svg>