<?xml version="1.0" encoding="UTF-8"?>
<svg id="Ebene_2" data-name="Ebene 2" xmlns="http://www.w3.org/2000/svg" viewBox="0 0 103.98 122.48">
  <defs>
    <style>
      .cls-1 {
        fill: #b5bac1;
      }
    </style>
  </defs>
  <g id="Ebene_1-2" data-name="Ebene 1">
    <path class="cls-1" d="M103.84,0L29.35,27.12v46.93h-11.87c-4.98,2.91-9.96,5.81-14.94,8.72-.85,6.32-1.69,12.64-2.54,18.96,1.7,4.98,3.4,9.95,5.1,14.93,5.83,1.94,11.65,3.88,17.48,5.83,5.95-1.21,11.9-2.43,17.84-3.64,2.18-5.34,4.37-10.68,6.55-16.02.05-17.23.09-34.47.14-51.7l38.59-14.34v24.33h-11.22c-4.98,2.91-9.96,5.81-14.94,8.72-.85,6.32-1.69,12.64-2.54,18.96,1.7,4.98,3.4,9.95,5.1,14.93,5.83,1.94,11.65,3.88,17.48,5.83l17.84-3.64c2.19-5.34,4.37-10.68,6.55-16.02l-.14-89.88Z"/>
  </g>
</svg>