<?xml version="1.0" encoding="UTF-8"?>
<svg id="Ebene_2" data-name="Ebene 2" xmlns="http://www.w3.org/2000/svg" viewBox="0 0 131.86 143.01">
  <defs>
    <style>
      .cls-1 {
        fill: #b5bac1;
      }
    </style>
  </defs>
  <g id="Ebene_1-2" data-name="Ebene 1">
    <path class="cls-1" d="M122.09,45.68l2.79,39.04-4.8,26.78-17.36,16.37-25.92,4.15h-34.49c-14.1,3.66-28.2,7.33-42.31,10.99,2.5-10.42,4.99-20.83,7.49-31.25-.12-2.02-.24-4.05-.36-6.08-1.13-15.83-2.26-31.66-3.38-47.5l4.79-26.78L25.9,15.03l25.92-4.14h33.2l-23.34,25.03-1.34,1.44-.57,1.88-6.25,20.56-.81,2.65.91,2.61,1.13,3.25.24.71.37.65,2.19,3.92,2.44,4.35h14.05l1.25-.4,18.64-5.88,1.91-.6,1.44-1.39,24.81-23.99ZM127.45,4.84l-8.73-4.84-13,1.16-10.89,11.68-26.93,28.88-6.25,20.55,1.13,3.25,2.19,3.91h7.76l18.64-5.88,29.93-28.93,9.03-8.73,1.53-10.59-4.41-10.46Z"/>
  </g>
</svg>