<?xml version="1.0" encoding="UTF-8"?>
<svg id="Ebene_2" data-name="Ebene 2" xmlns="http://www.w3.org/2000/svg" viewBox="0 0 116.92 121.13">
  <defs>
    <style>
      .cls-1 {
        fill: #b5bac1;
      }
    </style>
  </defs>
  <g id="Ebene_1-2" data-name="Ebene 1">
    <g>
      <path class="cls-1" d="M93.98,14.63c-15.35,14.95-30.69,29.89-46.04,44.84,2.1,4.52,4.2,9.04,6.31,13.55,15.94-15.86,31.88-31.71,47.82-47.57.57,8,1.14,16,1.7,24h12.03c-.47-15.11-.94-30.21-1.42-45.32-10.98-1.38-21.96-2.75-32.93-4.13h-10.4v12h8.51c4.81.88,9.61,1.76,14.42,2.63Z"/>
      <path class="cls-1" d="M116.92,65.13h-12.03c-1.08,9.82-2.17,19.65-3.25,29.47l-11.79,11.11c-18.49,1.14-36.97,2.28-55.46,3.42l-11.67-3.77-11.04-12.54c.21-22.1.43-44.2.64-66.3l11.78-11.11,21.34-3.41h9.93V0h-10.88l-25.93,4.14L1.21,20.51c-.4,25.73-.81,51.47-1.21,77.2l15.89,18.06,16.61,5.36c20.96-1.38,41.93-2.77,62.89-4.15l17.36-16.37c1.39-11.83,2.78-23.65,4.17-35.48Z"/>
    </g>
  </g>
</svg>