<?xml version="1.0" encoding="UTF-8"?>
<svg id="Ebene_2" data-name="Ebene 2" xmlns="http://www.w3.org/2000/svg" viewBox="0 0 121.13 121.13">
  <defs>
    <style>
      .cls-1 {
        fill: #b5bac1;
      }
    </style>
  </defs>
  <g id="Ebene_1-2" data-name="Ebene 1">
    <path class="cls-1" d="M117.54,23.42l-15.88-18.06L85.04,0h-36.96l-25.93,4.15L4.8,20.51,0,47.3l3.59,50.41,15.89,18.06,16.61,5.35h36.97l25.92-4.15,17.35-16.37,4.8-26.78-3.59-50.41ZM67.19,95.81l-2.96,3.48-6.44-.43c-1.4-1.53-2.8-3.06-4.2-4.59.19-2.55.37-5.1.56-7.65,1.12-1.09,2.24-2.18,3.35-3.28,2.15-.08,4.3-.15,6.45-.22l3.24,3.5v9.18ZM83.06,50.44l-7.09,8.92-10.19,6.89v5.89l-4.59,3.03h-4.85l-3.31-5.61v-8.16l6.63-7.14,8.41-6.11,2.04-6.63-4.08-4.33-6.11-1.27-7.39,3.57v7.5l-3.82,3.71-4.08.25-6.54-5.1v-9.94l9.35-10.96,11.98-3.12,12.49,2.61,11.17,11.94v14.05Z"/>
  </g>
</svg>