<?xml version="1.0" encoding="UTF-8"?>
<svg id="Ebene_2" data-name="Ebene 2" xmlns="http://www.w3.org/2000/svg" viewBox="0 0 130.76 109.49">
  <defs>
    <style>
      .cls-1 {
        fill: #b5bac1;
        fill-rule: evenodd;
      }
    </style>
  </defs>
  <g id="Ebene_1-2" data-name="Ebene 1">
    <path class="cls-1" d="M70.63,31.6v-6.93c1.1-.22,2.19-.45,3.29-.67,1.17-2.86,2.34-5.72,3.51-8.58l-1.17-9.18c-1.76-2.08-3.51-4.16-5.27-6.24h-9.37c-2.67,1.55-5.34,3.11-8.01,4.67-.45,3.39-.91,6.77-1.36,10.16.91,2.67,1.82,5.34,2.73,8,1.36.45,2.72.91,4.07,1.36v7.41H22.23l-5.39,11.57v61.22l7.19,5.1h79.56l5.91-4.09,3.34-5.45v-53.7l-6.67-14.65h-35.54ZM39.34,65.12c.33-2.45.65-4.9.98-7.35,1.93-1.13,3.86-2.25,5.79-3.38h6.77c1.27,1.51,2.54,3.01,3.81,4.52.29,2.21.57,4.42.85,6.63-.85,2.07-1.69,4.14-2.54,6.21-2.3.47-4.61.94-6.91,1.41-2.26-.75-4.52-1.51-6.78-2.26-.65-1.93-1.31-3.86-1.97-5.78ZM84.31,93.13l-2.63,1.55h-33.07l-3.55-2.16-.62-4.79.93-3.09,2.63-1.54h33.07l3.55,2.16.62,4.79-.93,3.08ZM87.81,71.75c-2.3.47-4.61.94-6.91,1.41-2.26-.75-4.52-1.51-6.77-2.26-.66-1.93-1.32-3.86-1.98-5.78.33-2.45.66-4.9.98-7.35,1.93-1.13,3.86-2.25,5.79-3.38h6.78c1.27,1.51,2.54,3.01,3.81,4.52.28,2.21.56,4.42.84,6.63-.84,2.07-1.69,4.14-2.54,6.21ZM130.76,58.22v23.09l-2.16,3.55-4.79.62-3.08-.93-1.55-2.63v-23.09l2.16-3.55,4.79-.62,3.08.93,1.55,2.63ZM10.03,55.59l1.55,2.63v23.09l-2.16,3.55-4.79.62-3.09-.93-1.54-2.63v-23.09l2.16-3.55,4.79-.62,3.08.93Z"/>
  </g>
</svg>