<?xml version="1.0" encoding="UTF-8"?>
<svg id="Ebene_2" data-name="Ebene 2" xmlns="http://www.w3.org/2000/svg" viewBox="0 0 104.87 118.91">
  <defs>
    <style>
      .cls-1 {
        fill: #b5bac1;
      }
    </style>
  </defs>
  <g id="Ebene_1-2" data-name="Ebene 1">
    <path class="cls-1" d="M101.75,53.25c-1.57-4.63-3.13-9.25-4.71-13.88-8.03-.45-16.06-.92-24.08-1.38-4.5-.05-8.98-.11-13.46-.16l-.95-2.1.71-1.72c1.86-.37,3.74-.75,5.61-1.14,1.61-3.92,3.2-7.84,4.8-11.76-.53-4.18-1.06-8.37-1.61-12.56-2.39-2.84-4.8-5.7-7.21-8.55h-12.82c-3.66,2.14-7.33,4.26-10.97,6.39-.63,4.64-1.25,9.29-1.86,13.91,1.25,3.66,2.49,7.31,3.74,10.97,1.98.66,3.97,1.32,5.94,1.98l.79,2.3-1.38,2.09c-.82-.02-1.65-.02-2.47-.03-9.32.45-18.63.92-27.95,1.37-4.02,2.43-8.02,4.85-12.02,7.29-.63,9.22-1.24,18.44-1.85,27.65l3.12,26.47c1.45,4.47,2.89,8.93,4.34,13.4,8.19,1.72,16.37,3.42,24.55,5.12,10.54-.18,21.06-.35,31.58-.53,10.43-1.62,20.87-3.24,31.31-4.85,1.94-3.55,3.87-7.08,5.82-10.63l4.16-23.18-3.12-26.46ZM41.41,84.08c-2.26.85-4.51,1.69-6.76,2.54-1.75-.85-3.5-1.69-5.25-2.54-1.14-2.7-2.27-5.38-3.39-8.08.34-2.49.66-5,1-7.49,1.86-1.91,3.73-3.82,5.57-5.75,2.63.29,5.27.58,7.89.85,1.08,2.02,2.15,4.03,3.24,6.06.29,2.25.56,4.51.85,6.76-1.04,2.55-2.1,5.09-3.15,7.65ZM75.12,84.08c-2.27.85-4.51,1.69-6.76,2.54-1.75-.85-3.5-1.69-5.25-2.54-1.14-2.7-2.26-5.38-3.39-8.08.34-2.49.66-5,1-7.49,1.86-1.91,3.73-3.82,5.57-5.75,2.63.29,5.27.58,7.89.85,1.08,2.02,2.15,4.03,3.24,6.06.29,2.25.56,4.51.85,6.76-1.04,2.55-2.1,5.09-3.15,7.65Z"/>
  </g>
</svg>