<?xml version="1.0" encoding="UTF-8"?>
<svg id="Ebene_2" data-name="Ebene 2" xmlns="http://www.w3.org/2000/svg" viewBox="0 0 114.55 125.77">
  <defs>
    <style>
      .cls-1 {
        fill: #b5bac1;
      }
    </style>
  </defs>
  <g id="Ebene_1-2" data-name="Ebene 1">
    <g>
      <path class="cls-1" d="M105.66,5.61l-10.75-2.8-27.58-2.81-32.26,1.4-23.85,1.87C7.48,6.55,3.74,9.82,0,13.09c.16,18.24.31,36.47.47,54.7,2.96,8.42,5.92,16.84,8.88,25.25l23.85,21.04,23.84,11.69,14.49-6.08,32.73-30.39,10.29-21.51V14.03l-8.89-8.42ZM94.55,63.26l-6.69,13.98-27.33,25.38-2.84,1.19-13.28-6.51-17.92-15.81-6.05-17.19-.36-41.66,16.2-1.27,30.47-1.32,24.6,2.5,3.2.83v39.88Z"/>
      <polygon class="cls-1" points="36.89 31.35 30.16 31.88 30.43 62.55 35.06 75.71 50.02 88.92 56.94 92.31 79.66 71.2 84.55 60.99 84.55 31.91 66.46 30.07 36.89 31.35"/>
    </g>
  </g>
</svg>