<?xml version="1.0" encoding="UTF-8"?>
<svg id="Ebene_2" data-name="Ebene 2" xmlns="http://www.w3.org/2000/svg" viewBox="0 0 116.58 82.16">
  <defs>
    <style>
      .cls-1 {
        fill: #b5bac1;
      }
    </style>
  </defs>
  <g id="Ebene_1-2" data-name="Ebene 1">
    <path class="cls-1" d="M108.48,0H6.55L0,10.59v66.9l8.73,4.67h96.62l7.17-3.74,4.06-4.99V13.4L108.48,0ZM30.22,59.04l-20.76-20.76,6.02-6.02,14.74,14.75,23.89-23.89,6.02,6.01-29.91,29.91ZM104.35,56.44l-3.05,1.79h-29.83l-2.68-1.07-2.69-4.12.54-4.65,3.94-3.58h30.01l4.11,2.5.72,5.55-1.07,3.58ZM104.35,35.56l-3.05,1.79h-29.83l-2.68-1.07-2.69-4.12.54-4.65,3.94-3.58h30.01l4.11,2.5.72,5.55-1.07,3.58Z"/>
  </g>
</svg>