<?xml version="1.0" encoding="UTF-8"?>
<svg id="Ebene_2" data-name="Ebene 2" xmlns="http://www.w3.org/2000/svg" viewBox="0 0 115.95 117.82">
  <defs>
    <style>
      .cls-1 {
        fill: #b5bac1;
      }
    </style>
  </defs>
  <g id="Ebene_1-2" data-name="Ebene 1">
    <g>
      <polygon class="cls-1" points="62.03 0 28.99 19.95 27.74 54.55 28.36 96.62 62.65 117.82 72.94 107.53 72.94 9.66 69.82 4.68 62.03 0"/>
      <polygon class="cls-1" points="3.74 34.6 0 54.86 2.18 77.3 5.92 81.66 20.26 90.7 19.01 57.97 20.88 26.81 3.74 34.6"/>
      <path class="cls-1" d="M92.26,62.49c.21-2.81.42-5.61.62-8.42l-5.22-6.7c-2.73-1.4-5.45-2.81-8.18-4.21v31.48c3.25-2.05,6.49-4.1,9.74-6.16,1.01-2,2.03-4,3.04-6Z"/>
      <path class="cls-1" d="M113.45,40.93l-11.22-16.71-15.58-5.97v12.23l9.35,2.69,6.55,13.13,1.25,14.92-1.25,11.04c-2,3.51-4,7.01-6,10.52-3.3,1.45-6.6,2.91-9.9,4.36v12.42c5.4-1.64,10.81-3.28,16.21-4.92l9.97-15.52,3.12-14.92v-11.34l-2.49-11.94Z"/>
    </g>
  </g>
</svg>