<?xml version="1.0" encoding="UTF-8"?>
<svg id="Ebene_2" data-name="Ebene 2" xmlns="http://www.w3.org/2000/svg" viewBox="0 0 121.13 121.13">
  <defs>
    <style>
      .cls-1 {
        fill: #b5bac1;
      }
    </style>
  </defs>
  <g id="Ebene_1-2" data-name="Ebene 1">
    <path class="cls-1" d="M117.54,23.42l-15.88-18.07L85.04,0h-36.96l-25.93,4.14L4.79,20.52,0,47.3l3.59,50.41,15.88,18.07,16.61,5.35h36.96l25.93-4.14,17.36-16.37,4.79-26.78-3.59-50.41ZM61.6,94.27l-3.97,2.34h-30.49l-3.51-1.4-3.51-5.38.7-6.08,5.14-4.68h30.73l5.38,3.27.94,7.25-1.4,4.68ZM99.6,66.99l-3.97,2.34H27.14l-3.51-1.4-3.51-5.38.7-6.08,5.14-4.68h68.73l5.38,3.27.94,7.25-1.4,4.68ZM99.6,39.72l-3.97,2.34H27.14l-3.51-1.4-3.51-5.38.7-6.08,5.14-4.68h68.73l5.38,3.27.94,7.25-1.4,4.68Z"/>
  </g>
</svg>