<?xml version="1.0" encoding="UTF-8"?>
<svg id="Ebene_2" data-name="Ebene 2" xmlns="http://www.w3.org/2000/svg" viewBox="0 0 121.13 121.13">
  <defs>
    <style>
      .cls-1 {
        fill: #b5bac1;
      }
    </style>
  </defs>
  <g id="Ebene_1-2" data-name="Ebene 1">
    <path class="cls-1" d="M117.53,23.42l-15.88-18.06L85.03,0h-36.96l-25.92,4.15L4.79,20.52,0,47.3l3.59,50.41,15.88,18.07,16.62,5.35h36.96l25.93-4.14,17.35-16.37,4.8-26.78-3.6-50.42ZM32.74,89.18h-7.95l-4.44-46.05h12.39v46.05ZM82.06,88.48h-42.54v-46.28c2.65-6.63,5.29-13.25,7.94-19.87,6.16-.6,12.32-1.2,18.47-1.8-1.72,6.21-3.44,12.42-5.16,18.63h33.45l3.97,21.41-16.13,27.91Z"/>
  </g>
</svg>