<?xml version="1.0" encoding="UTF-8"?>
<svg id="Ebene_2" data-name="Ebene 2" xmlns="http://www.w3.org/2000/svg" viewBox="0 0 123.44 130.72">
  <defs>
    <style>
      .cls-1 {
        fill: #b5bac1;
        fill-rule: evenodd;
      }
    </style>
  </defs>
  <g id="Ebene_1-2" data-name="Ebene 1">
    <path class="cls-1" d="M101.3,104.45l-3.3-1.52-3.72-1.72-.35-4.08-4.22-48.48-.52-5.92,5.75-1.52,23.43-6.17-.83-11.62-15.89-18.07L85.04,0h-36.96l-25.93,4.14L4.8,20.51,0,47.29l3.6,50.42,15.88,18.07,16.61,5.35h36.97l16.3-2.61-1.8-3.07,4.77-3.82,8.97-7.18ZM82.97,88.25l-2.74,1.48-2.85-.74-9.64-9.64-11.72-11.72-.41-1.69-.53-2.21V26.53l2.08-3.43,4.63-.6,2.99.89,1.49,2.54v36.12l1.18,1.17,8.21,8.21,9.21,9.22.95,3.9-2.85,3.7ZM113,107.25l8.8,5.44-2.81,15.22-14.29,2.81-7.85-13.4-.11-.18,11.73-9.38,1.94-1.56.39-.31,2.2,1.36ZM96.74,48.04l22.14-5.83,4.56-1.2-2.1,52.7-4.24,2.65-4.13,2.58-2.87,1.8-2.64-1.22-6.5-3-4.22-48.48Z"/>
  </g>
</svg>