<?xml version="1.0" encoding="UTF-8"?>
<svg id="Ebene_2" data-name="Ebene 2" xmlns="http://www.w3.org/2000/svg" viewBox="0 0 116.96 93.26">
  <defs>
    <style>
      .cls-1 {
        fill: #b5bac1;
        fill-rule: evenodd;
      }
    </style>
  </defs>
  <g id="Ebene_1-2" data-name="Ebene 1">
    <path class="cls-1" d="M35.59,23.51L56.88,0l3.99,3.14v87.75l-3.94,2.36-26.11-23.05H6.22l-6.22-2.77v-28.58l5.21-11.99,30.38-3.36ZM71.71,30.65l7.75,9.67.48,14.82-8.23,9.61,8.23,7.98,10.47-14.54.82-15.49-6.86-14.83-5.49-4.79-7.16,7.57ZM99.45,23.09l4.5,13.69.47,15.69-2.1,16.64-11.91,14.35,7.45,7.45,10.39-10.13,8.23-18.75.49-22.37-6.42-20.86-12.62-15.65-7.51,8.41,9.04,11.54Z"/>
  </g>
</svg>