<?xml version="1.0" encoding="UTF-8"?>
<svg id="Ebene_2" data-name="Ebene 2" xmlns="http://www.w3.org/2000/svg" viewBox="0 0 104.3 125">
  <defs>
    <style>
      .cls-1 {
        fill: #b5bac1;
      }
    </style>
  </defs>
  <g id="Ebene_1-2" data-name="Ebene 1">
    <path class="cls-1" d="M101.27,55.33l-13.96-6-.53-.17c-5.4-1.53-10.8-3.06-16.2-4.59h-31.77l-5.4.86,1.13-25.2c2.43-1.67,4.87-3.33,7.3-4.99,3.39-.77,6.79-1.54,10.18-2.31,4.03.9,8.06,1.79,12.09,2.69,1.8,1.54,3.6,3.07,5.4,4.61.11,2.44.21,4.88.32,7.33h16.22l-4.88-15.82L68.39.93l-16.37-.93-16.37.93-12.78,10.81-5.61,18.18v20.04c-4.41,2.72-8.83,5.45-13.24,8.18-1.34,9.07-2.68,18.14-4.02,27.21,1.03,8.75,2.06,17.51,3.09,26.26,4.83,3.84,9.66,7.68,14.49,11.52,5.45.46,10.91.93,16.36,1.4,11.69.15,23.38.31,35.07.47,6.7-1.49,13.4-2.97,20.1-4.45,4.21-2.88,8.42-5.76,12.62-8.65.86-8.88,1.72-17.76,2.57-26.64-1.01-9.98-2.02-19.95-3.03-29.93ZM52.02,101.38l-14.65-14.64,14.65-14.65,14.65,14.65-14.65,14.64Z"/>
  </g>
</svg>