<?xml version="1.0" encoding="UTF-8"?>
<svg id="Ebene_2" data-name="Ebene 2" xmlns="http://www.w3.org/2000/svg" viewBox="0 0 121.13 121.13">
  <defs>
    <style>
      .cls-1 {
        fill: #b5bac1;
      }
    </style>
  </defs>
  <g id="Ebene_1-2" data-name="Ebene 1">
    <path class="cls-1" d="M73.23,53.1c.43,3.39.87,6.78,1.3,10.17-1.3,3.18-2.6,6.35-3.9,9.53-3.53.72-7.07,1.44-10.6,2.16-3.47-1.15-6.93-2.31-10.4-3.46-1.01-2.96-2.02-5.92-3.03-8.88.51-3.75,1.01-7.51,1.51-11.27,2.96-1.72,5.92-3.45,8.89-5.18h10.39c1.94,2.31,3.89,4.62,5.84,6.93ZM121.13,73.84l-4.79,26.78-17.36,16.37-25.92,4.14h-36.97l-16.61-5.35-15.88-18.07L0,47.3l4.8-26.78L22.15,4.15,48.08,0h36.96l16.61,5.36,15.89,18.06,3.59,50.42ZM99.26,60.57l-9.82-17.18-19.64-11.09-29.92,5.67-18,22.6,9.82,17.17,19.63,11.09,29.93-5.67,18-22.59ZM73.23,53.1c-1.95-2.31-3.9-4.62-5.84-6.93h-10.39c-2.97,1.73-5.93,3.46-8.89,5.18-.5,3.76-1,7.52-1.51,11.27,1.01,2.96,2.02,5.92,3.03,8.88,3.47,1.15,6.93,2.31,10.4,3.46,3.53-.72,7.07-1.44,10.6-2.16,1.3-3.18,2.6-6.35,3.9-9.53-.43-3.39-.87-6.78-1.3-10.17ZM73.23,53.1c-1.95-2.31-3.9-4.62-5.84-6.93h-10.39c-2.97,1.73-5.93,3.46-8.89,5.18-.5,3.76-1,7.52-1.51,11.27,1.01,2.96,2.02,5.92,3.03,8.88,3.47,1.15,6.93,2.31,10.4,3.46,3.53-.72,7.07-1.44,10.6-2.16,1.3-3.18,2.6-6.35,3.9-9.53-.43-3.39-.87-6.78-1.3-10.17Z"/>
  </g>
</svg>