<?xml version="1.0" encoding="UTF-8"?>
<svg id="Ebene_2" xmlns="http://www.w3.org/2000/svg" xmlns:xlink="http://www.w3.org/1999/xlink" viewBox="0 0 251.13 291.15">
  <defs>
    <style>
      .cls-1, .cls-2 {
        opacity: .37;
      }

      .cls-1, .cls-3 {
        fill: #16192b;
      }

      .cls-4 {
        fill: url(#Unbenannter_Verlauf_30-3);
      }

      .cls-5 {
        fill: url(#Unbenannter_Verlauf_30-2);
      }

      .cls-6 {
        fill: url(#Unbenannter_Verlauf_30-4);
      }

      .cls-7 {
        fill: url(#Unbenannter_Verlauf_21-2);
      }

      .cls-8 {
        fill: url(#Unbenannter_Verlauf_21-3);
      }

      .cls-9 {
        stroke: #1d1f21;
        stroke-miterlimit: 10;
        stroke-width: 19.84px;
      }

      .cls-9, .cls-10 {
        fill: #1d1f21;
      }

      .cls-11 {
        fill: url(#Unbenannter_Verlauf_21);
      }

      .cls-12 {
        fill: url(#Unbenannter_Verlauf_30);
      }

      .cls-13 {
        fill: #b5bac1;
      }
    </style>
    <radialGradient id="Unbenannter_Verlauf_30" data-name="Unbenannter Verlauf 30" cx="103.76" cy="25.4" fx="103.76" fy="25.4" r="52.88" gradientUnits="userSpaceOnUse">
      <stop offset="0" stop-color="#7d8691"/>
      <stop offset=".79" stop-color="#697080"/>
    </radialGradient>
    <radialGradient id="Unbenannter_Verlauf_30-2" data-name="Unbenannter Verlauf 30" cx="165.84" cy="143.67" fx="165.84" fy="143.67" r="4.51" xlink:href="#Unbenannter_Verlauf_30"/>
    <radialGradient id="Unbenannter_Verlauf_30-3" data-name="Unbenannter Verlauf 30" cx="176.65" cy="132.64" fx="176.65" fy="132.64" r="9.2" xlink:href="#Unbenannter_Verlauf_30"/>
    <radialGradient id="Unbenannter_Verlauf_30-4" data-name="Unbenannter Verlauf 30" cx="166.88" cy="92" fx="166.88" fy="92" r="92.09" xlink:href="#Unbenannter_Verlauf_30"/>
    <radialGradient id="Unbenannter_Verlauf_21" data-name="Unbenannter Verlauf 21" cx="55.72" cy="146.3" fx="55.72" fy="146.3" r="4.14" gradientUnits="userSpaceOnUse">
      <stop offset="0" stop-color="#c4c9cc"/>
      <stop offset="1" stop-color="#8a8f99"/>
    </radialGradient>
    <radialGradient id="Unbenannter_Verlauf_21-2" data-name="Unbenannter Verlauf 21" cx="66.74" cy="135.58" fx="66.74" fy="135.58" r="8.45" xlink:href="#Unbenannter_Verlauf_21"/>
    <radialGradient id="Unbenannter_Verlauf_21-3" data-name="Unbenannter Verlauf 21" cx="89.37" cy="110.24" fx="89.37" fy="110.24" r="154.33" xlink:href="#Unbenannter_Verlauf_21"/>
  </defs>
  <g id="Ebene_1-2" data-name="Ebene_1">
    <g>
      <path class="cls-9" d="M234.71,123.7l-33.23-46.03c-4.73-6.54-11.6-11.22-19.43-13.19l-36.21-9.14c1.71-2.85,3.18-4.33,4.48-6.72.88-1.62,4.59-8.46,1.72-13.36-.72-1.24-1.79-2.23-3.03-2.97-2.39-1.41-5.42-1.91-7.93-1.49-1.23.2-2.42.64-3.55,1.28h0s0-.01,0-.01c2.1-6.31,3.58-14.62-.97-19.11-1.51-1.49-3.48-2.35-5.61-2.75-3.74-.71-7.95.01-10.96,1.21-6.16,2.47-9,7.64-11.18,11.64-2.77,5.06-3.97,10.11-4.4,14.42-.6-4.19-2.27-10.56-6.95-12.18-5.17-1.8-11.84,2.97-14.79,7.97-4.44,7.51-.52,16.68,3.14,25.51.34.81.69,1.58,1.04,2.33l-34.3,16.6c-7.27,3.52-13.06,9.48-16.37,16.85l-23.25,51.79c-3.31,7.36-3.91,15.66-1.71,23.42l15.48,54.62c2.2,7.77,7.07,14.51,13.75,19.04l46.97,31.89c6.68,4.53,14.74,6.57,22.77,5.75l56.48-5.76c8.03-.82,15.52-4.44,21.14-10.23l39.56-40.72c5.62-5.79,9.03-13.38,9.62-21.43l4.13-56.62c.59-8.05-1.68-16.05-6.41-22.6Z"/>
      <g>
        <path class="cls-12" d="M150.32,48.61c-1.75,3.22-3.82,4.79-6.35,10.31-.67,1.45-.57,1.45-1.27,2.97,0,0-2.55,5.56-5.8,9.69-1.4,1.79-3.18,3.39-5.21,4.78h0c-8.06,5.53-20.14,7.61-28.94,3.27-2.85-1.4-4.68-3.27-7.33-5.98-1.64-1.66-6.1-6.49-9.6-14.89-3.66-8.83-7.58-18-3.14-25.51,2.95-4.99,9.62-9.76,14.79-7.97,4.68,1.62,6.35,8,6.95,12.18.43-4.31,1.62-9.35,4.4-14.42,2.19-4,5.02-9.17,11.18-11.64,3.01-1.2,7.23-1.92,10.96-1.21,2.13.4,4.1,1.26,5.61,2.75,4.56,4.48,3.08,12.8.97,19.11h0c1.12-.63,2.32-1.07,3.55-1.27,2.51-.42,5.54.08,7.93,1.49,1.24.74,2.31,1.73,3.03,2.97,2.87,4.9-.84,11.74-1.72,13.36Z"/>
        <path class="cls-5" d="M163.89,145.73c-.17-1.69,1.06-3.2,2.75-3.37,1.7-.17,3.21,1.06,3.38,2.75s-1.06,3.2-2.75,3.37-3.2-1.06-3.37-2.75Z"/>
        <path class="cls-4" d="M172.68,136.86c-.24-2.36.87-4.56,2.69-5.82.33-.23.7-.43,1.08-.6.57-.24,1.19-.41,1.84-.47,3.45-.35,6.53,2.16,6.88,5.61.35,3.45-2.16,6.53-5.61,6.89-3.45.35-6.53-2.16-6.89-5.61Z"/>
        <path class="cls-6" d="M231.73,126.48l-33.08-45.83c-4.71-6.51-11.55-11.16-19.35-13.13l-16.73-4.22-5.12-1.29c-7.7,12.13-15.75,24.04-23.91,35.88,1.9.53,3.95.55,5.96.24.23-.03.46-.07.69-.11l1.52-.16c2.08-.21,3.94,1.31,4.15,3.39.17,2.97.19,5.95.07,8.93-.24,5.63-1.02,11.25-2.33,16.76-1.63,6.93-4.11,13.69-7.35,20.08,1.19,1.16,2.64,2.57,3.95,3.85,1.94,1.88,3.56,3.46,3.56,3.46,1.52,1.46,1.93,3.5,1.53,5.42-.24,1.7-.6,3.39-1.1,5.03-.44,1.5-.99,2.96-1.65,4.37-1.36,2.96-3.15,5.69-5.26,8.09l-2.28,2.53c3.24-.34,6.42-1.18,9.42-2.5,2.23-.97,4.35-2.2,6.32-3.67,1.96-1.45,4.61-1.31,6.4.19,4.11,3.37,7.56,7.58,10.12,12.27l3.55-3.08c3.34-3,8.93-1.33,10.1,2.97,1.95,6.2,5.91,11.73,11.11,15.62,5.42-2.3,11.52-4.78,16.66-6.81l6.8-2.64.7-.27c.9-.35,1.85-.33,2.69-.04l6.35,2.24c3,1.08,6.17,2.23,9.35,3.42l3.54-48.48c.58-8.01-1.68-15.98-6.38-22.49ZM216.37,114.67c-.56,1-1.44,1.65-2.45,2.01-1.65.66-3.3,1.1-4.96,1.54-1.86.5-3.72.93-5.57,1.36,4.96,4.71,8.33,11.15,9.08,18.5,1.67,16.31-10.21,30.88-26.52,32.55-16.31,1.67-30.88-10.21-32.54-26.52-.31-3.03-.16-6,.41-8.84-7.92-1.31-9.79-7.94-4.78-13.99,1.24-1.52,2.64-2.78,4.13-3.87.65-.47,1.56-.33,2.03.32.39.54.36,1.27-.05,1.77-1.7,2.29-3.55,5.01-3.36,7.85.08.47.29.62.39.58.1-.02.3.04.75.1,1.12.21,3.41-.08,4.93-.41.63-.11,1.56-.38,2.19-.53l1.02-.35c6.13-2.13,9.85-7.44,14.65-11.68,7.37-6.76,17.99-10.55,27.92-9.59,3.88.41,7.7,1.37,11.11,3.31,2.08,1.18,2.81,3.82,1.64,5.9Z"/>
        <g class="cls-2">
          <path class="cls-3" d="M146.07,170.55c-.32,2.29-.87,4.54-1.66,6.72-3,1.31-6.17,2.16-9.42,2.5l2.28-2.53c2.11-2.39,3.9-5.12,5.26-8.09.66-1.41,1.21-2.87,1.65-4.37.23.23.36.35.36.35,1.52,1.46,1.93,3.49,1.53,5.42Z"/>
          <path class="cls-3" d="M140.19,150.88c-1.31-1.27-2.75-2.69-3.95-3.85,3.24-6.4,5.72-13.15,7.35-20.08,1.31-5.51,2.09-11.13,2.33-16.76.39.53.65,1.16.72,1.86.49,8.57-.27,17.26-2.27,25.7-1.06,4.47-2.45,8.86-4.19,13.13Z"/>
          <path class="cls-3" d="M162.57,63.3c-7.42,11.78-15.18,23.35-23.07,34.83-2.01.3-4.06.29-5.96-.24,8.16-11.84,16.21-23.75,23.91-35.88l5.12,1.29Z"/>
        </g>
        <path class="cls-1" d="M150.32,48.61c-1.75,3.22-3.82,4.79-6.35,10.31-.67,1.45-.57,1.45-1.27,2.97,0,0-2.55,5.56-5.8,9.69-1.4,1.79-3.18,3.39-5.21,4.78h0c-1.98-1.79-3.96-3.59-5.94-5.39,1.35-5.48,2.7-10.97,4.05-16.45.89-.13,13.8-2.17,18.08-12.8,1.48-3.67,1.43-7.14,1.14-9.45,1.24.74,2.31,1.73,3.03,2.97,2.87,4.9-.84,11.74-1.72,13.36Z"/>
        <path class="cls-11" d="M59.7,147.46c.17,1.69-1.06,3.2-2.75,3.37s-3.2-1.06-3.37-2.75c-.17-1.69,1.06-3.2,2.75-3.37,1.7-.17,3.21,1.06,3.37,2.75Z"/>
        <path class="cls-7" d="M74.87,137.94c.35,3.45-2.16,6.53-5.61,6.89-3.45.35-6.53-2.16-6.88-5.61-.35-3.45,2.16-6.54,5.61-6.89,3.45-.35,6.53,2.16,6.88,5.61Z"/>
        <path class="cls-8" d="M229.89,203.75c-.58-.1-1.15-.2-1.73-.29-.57-.1-1.15-.2-1.73-.3-.57-.1-1.15-.2-1.72-.3-.57-.1-1.15-.2-1.71-.3-1.52-.27-3.03-.54-4.51-.81-1.5.85-3.12,1.78-4.79,2.72-.24.14-.48.27-.72.41-4.23,2.38-8.7,4.86-12.35,6.83-.54.28-1.08.57-1.61.85-1.07.57-2.14,1.14-3.21,1.71-.54.28-1.07.56-1.62.84-2.05,1.05-4.41.88-6.23-.26-6.57-4.08-11.99-9.94-15.63-16.74l-3.49,2.94-.27.23c-2.54,2.14-6.32,1.81-8.46-.72-.71-.84-1.15-1.85-1.33-2.86-.72-4.81-2.68-9.5-5.66-13.54-.99.67-1.99,1.3-3.03,1.88-.52.29-1.05.57-1.58.85-.33.17-.67.33-1,.5-.29.14-.57.27-.85.39-.06.02-.11.05-.17.07h0c-.32.15-.65.29-.98.42-.02,0-.03.01-.05.02h0s-.04.02-.07.03c-.32.14-.65.26-.98.39-.84.32-1.68.62-2.54.88-.57.17-1.15.34-1.73.5-.45.12-.9.23-1.35.34h0c-.42.1-.84.19-1.27.27-.03,0-.07.01-.1.02-.91.18-1.82.33-2.74.45t0,0c-2.35.3-4.71.42-7.08.33-.52-.02-1.05-.05-1.56-.08-.35-.02-.69-.05-1.03-.08-.69-.07-1.37-.15-2.05-.24-.68-.1-1.36-.21-2.04-.34-.18-.04-.37-.08-.55-.13-.18-.05-.35-.11-.52-.17-.5-.2-.97-.46-1.38-.77-.14-.1-.27-.22-.39-.33-.07-.06-.13-.12-.19-.18-2.11-2.1-2.51-5.7-.35-8.2,0-.01,9.06-12.33,9.06-12.33,1.75-2.48,2.86-5.26,3.3-8.12l-5.08-9.02-.53-.92c-1-1.78-.86-3.89.19-5.48.93-1.39,1.82-2.8,2.66-4.25.42-.72.82-1.44,1.22-2.17,1.19-2.2,2.28-4.46,3.26-6.77.22-.51.43-1.03.64-1.55h0c.21-.53.41-1.05.61-1.57.39-1.05.76-2.11,1.12-3.18.17-.53.35-1.07.51-1.6h0c.02-.08.05-.15.07-.22.14-.47.28-.94.41-1.4.3-1.08.59-2.17.85-3.26.05-.17.08-.35.13-.52.16-.67.3-1.34.44-2.01.29-1.36.53-2.72.73-4.1.11-.71.21-1.42.3-2.14.11-.88.21-1.77.29-2.66h0c-.13.02-.26.05-.4.07-.13.02-.26.05-.4.07-1.21.19-2.44.23-3.68.14-.48-.04-.97-.09-1.45-.17-.48-.08-.96-.19-1.43-.31-.16-.04-.33-.09-.49-.14-.07-.02-.14-.04-.21-.07-.06-.02-.12-.04-.17-.05-.17-.05-.35-.11-.52-.18h0s-.34-.13-.34-.13c-.29-.11-.57-.23-.84-.36-.04-.02-.08-.04-.12-.05-.1-.05-.2-.1-.3-.14-.14-.07-.27-.13-.41-.2-.11-.05-.22-.11-.32-.17-.11-.06-.21-.12-.32-.18-1.27-.73-2.44-1.62-3.46-2.65-1.91-1.71-2.16-4.63-.61-6.61.75-.98,1.5-1.95,2.25-2.93,1.5-1.95,3-3.91,4.51-5.85,3.77-4.87,7.57-9.72,11.41-14.53,4.29-5.38,8.61-10.73,13.01-16h0s-7.6-1.92-7.6-1.92l-9.98-2.52h0l-8.84-2.23c-7.83-1.98-16.11-1.13-23.37,2.38l-16.8,8.13-34.29,16.6c-3.44,1.67-6.55,3.88-9.22,6.53,2.62,2.34,5.25,4.68,7.87,7.03.26.23.59.38.94.41l17.25,1.66c1.72.16,2.05,2.53.45,3.16-3.86,1.53-7.73,3.07-11.6,4.6-4.72-.87-9.82-1.82-14.55-2.68-2.16-1.98-4.32-3.97-6.48-5.95-.36.68-.71,1.37-1.03,2.08l-23.25,51.8c-3.31,7.36-3.91,15.66-1.71,23.42l15.48,54.61c.68,2.4,1.62,4.71,2.78,6.87,1.65-.79,3.3-1.56,4.96-2.35.4-.19.7-.53.85-.95l2.32-6.73c.55-1.6,2.87-1.42,3.16.24l.65,3.57c.16.89,1,1.48,1.89,1.33,2.04-.35,4.08-.7,6.12-1.05.46-.08.93.04,1.3.33,2.66,2.09,5.32,4.19,7.98,6.28,1.34,1.05.39,3.19-1.3,2.91-2.69-.47-5.38-.93-8.07-1.39-.36-.06-.72,0-1.05.16-4.05,2.13-8.1,4.25-12.16,6.37,1.33,1.26,2.76,2.42,4.3,3.46l46.97,31.89c6.68,4.53,14.74,6.57,22.78,5.75l56.48-5.76c2.02-.2,4.02-.59,5.95-1.15l-1.08-13.47c-.14-1.76,2.21-2.48,3.07-.93l6.08,10.92c2.59-1.54,4.99-3.42,7.11-5.61l39.56-40.72c5.16-5.31,8.46-12.14,9.41-19.46-2.28-.36-4.59-.73-6.89-1.13ZM51.51,180.4c-.35.13-.66-.36-.38-.62,1.91-1.86,4.02-3.47,6.29-4.84-6.04-4.8-10.21-11.94-11.05-20.22-1.67-16.31,10.21-30.88,26.52-32.54,16.31-1.67,30.88,10.21,32.55,26.52.96,9.35-2.54,18.13-8.78,24.23,2.82,1.31,5.46,2.96,7.78,4.99.29.24.04.75-.33.64-18.79-5-34.21-4.55-52.59,1.85ZM171.02,210.32c-.87,9.21-6.26,17.95-13.86,23.22-1.53,1.07-3.24,2.07-4.92,2.88-1.52.78-3.62,1.59-5.25,2.13-8.72,2.79-18.33,2.52-26.98-.33-6.79-2.14-12.89-5.86-17.94-10.47-.89-.82-.96-2.2-.14-3.1.69-.76,1.78-.91,2.65-.47,9.42,4.69,20.09,7.51,30.63,6.13,10.27-1.37,17.99-6.65,24.29-14.74,1.84-2.29,3.48-4.84,5.26-7.47,1.97-2.93,6.6-1.26,6.28,2.22Z"/>
        <g>
          <path class="cls-10" d="M170.02,145.11c.17,1.69-1.06,3.2-2.75,3.37s-3.2-1.06-3.37-2.75c-.17-1.69,1.06-3.2,2.75-3.37,1.7-.17,3.21,1.06,3.38,2.75Z"/>
          <path class="cls-10" d="M179.57,142.47c-3.45.35-6.53-2.16-6.89-5.61-.24-2.36.87-4.56,2.69-5.82.33-.23.7-.43,1.08-.6.57-.24,1.19-.41,1.84-.47,3.45-.35,6.53,2.16,6.88,5.61.35,3.45-2.16,6.53-5.61,6.89Z"/>
          <path class="cls-10" d="M176.46,130.45c-.36.2-.72.4-1.08.6.33-.23.7-.43,1.08-.6Z"/>
          <path class="cls-13" d="M179.57,142.47c-3.45.35-6.53-2.16-6.89-5.61-.24-2.36.87-4.56,2.69-5.82.33-.23.7-.43,1.08-.6.57-.24,1.19-.41,1.84-.47,3.45-.35,6.53,2.16,6.88,5.61.35,3.45-2.16,6.53-5.61,6.89Z"/>
          <path class="cls-13" d="M167.26,148.49c-1.69.17-3.2-1.06-3.37-2.75-.17-1.69,1.06-3.2,2.75-3.37,1.7-.17,3.21,1.06,3.38,2.75s-1.06,3.2-2.75,3.37Z"/>
        </g>
        <path class="cls-10" d="M122.96,191.08c.68.1,1.36.18,2.05.24-.69-.07-1.37-.14-2.05-.24Z"/>
        <path class="cls-10" d="M126.32,105.83c1.69.97,3.55,1.67,5.46,1.99-1.92-.32-3.77-1.01-5.46-1.99Z"/>
        <polygon class="cls-10" points="124.83 151.5 124.31 150.57 124.84 151.49 129.92 160.51 124.83 151.5"/>
        <path class="cls-10" d="M131.79,107.82c.48.08.96.14,1.45.17-.48-.04-.97-.09-1.45-.17Z"/>
        <path class="cls-10" d="M131.63,131.91c1.75-4.13,3.16-8.41,4.2-12.78-1.04,4.37-2.45,8.65-4.2,12.78Z"/>
        <path class="cls-10" d="M137.72,107.71c-.27.05-.53.1-.8.14.27-.04.54-.1.8-.15h0Z"/>
        <path class="cls-10" d="M140.14,190.07c.58-.16,1.16-.32,1.73-.5-.57.18-1.15.35-1.73.5-4.59,1.22-9.36,1.67-14.1,1.33,4.74.33,9.52-.1,14.1-1.33Z"/>
        <path class="cls-10" d="M141.87,189.58c.86-.27,1.71-.57,2.54-.88-.84.32-1.68.62-2.54.88Z"/>
        <path class="cls-10" d="M144.42,188.69c1.4-.54,2.76-1.15,4.1-1.82-1.33.68-2.69,1.29-4.1,1.82Z"/>
        <path class="cls-10" d="M218.49,201.74c1.49.27,3,.54,4.51.81-1.52-.27-3.03-.54-4.51-.81-1.71.98-3.58,2.04-5.51,3.12,1.92-1.09,3.79-2.15,5.51-3.13Z"/>
        <path class="cls-10" d="M223,202.55c2.28.4,4.59.81,6.89,1.19-2.31-.39-4.62-.79-6.89-1.19Z"/>
        <g>
          <path class="cls-10" d="M59.7,147.46c.17,1.69-1.06,3.2-2.75,3.37s-3.2-1.06-3.37-2.75c-.17-1.69,1.06-3.2,2.75-3.37,1.7-.17,3.21,1.06,3.37,2.75Z"/>
          <path class="cls-10" d="M69.26,144.82c-3.45.35-6.53-2.16-6.88-5.61-.35-3.45,2.16-6.54,5.61-6.89,3.45-.35,6.53,2.16,6.88,5.61.35,3.45-2.16,6.53-5.61,6.89Z"/>
          <path class="cls-13" d="M69.26,144.82c-3.45.35-6.53-2.16-6.88-5.61-.35-3.45,2.16-6.54,5.61-6.89,3.45-.35,6.53,2.16,6.88,5.61.35,3.45-2.16,6.53-5.61,6.89Z"/>
          <path class="cls-13" d="M56.95,150.83c-1.69.17-3.2-1.06-3.37-2.75-.17-1.69,1.06-3.2,2.75-3.37,1.7-.17,3.21,1.06,3.37,2.75.17,1.69-1.06,3.2-2.75,3.37Z"/>
        </g>
      </g>
    </g>
  </g>
</svg>