<?xml version="1.0" encoding="UTF-8"?>
<svg id="Ebene_2" data-name="Ebene 2" xmlns="http://www.w3.org/2000/svg" viewBox="0 0 168.29 168.29">
  <defs>
    <style>
      .cls-1 {
        fill: #1e1f21;
      }

      .cls-2 {
        fill: #b5bac1;
      }
    </style>
  </defs>
  <g id="Ebene_1-2" data-name="Ebene 1">
    <g>
      <rect class="cls-1" width="168.29" height="168.29" rx="13.07" ry="13.07"/>
      <path class="cls-2" d="M124.77,47.39v17.16l-5.72,11.44-12.18,6.09v48.33l-2.58,4.61-6.4,2.12-6.4-2.12-2.58-4.61v-48.33l-12.18-6.09-5.72-11.44v-17.16l8.12-11.44,9.78-4.8v20.48l2.4,5.35,6.59,2.58,6.59-2.58,2.4-5.35v-20.48l9.78,4.8,8.12,11.44ZM43.52,53.91l2.58,4.61,2.35.77v40.82c-1.64.92-3.28,1.84-4.93,2.76v27.54l2.58,4.61,6.41,2.11,6.4-2.11,2.58-4.61v-27.31c-1.62-.98-3.24-1.96-4.86-2.94-.02,0-.04,0-.06,0v-40.86l2.35-.78,2.58-4.61v-14.88h-17.97v14.88Z"/>
    </g>
  </g>
</svg>