<?xml version="1.0" encoding="UTF-8"?>
<svg id="Ebene_2" data-name="Ebene 2" xmlns="http://www.w3.org/2000/svg" viewBox="0 0 168.29 168.29">
  <defs>
    <style>
      .cls-1 {
        fill: #1e1f21;
      }

      .cls-2 {
        fill: #b5bac1;
      }
    </style>
  </defs>
  <g id="Ebene_1-2" data-name="Ebene 1">
    <g>
      <rect class="cls-1" width="168.29" height="168.29" rx="13.07" ry="13.07"/>
      <path class="cls-2" d="M132.27,102.37l-3.03,16.92-10.97,10.35-16.39,2.62h-23.36l-10.5-3.39-8.2-9.32h22.94l.55-.09,16.38-2.62,2.12-.34,1.56-1.47,10.97-10.35,1.67-1.58.41-2.26,3.03-16.92.16-.86-.07-.87-1.7-23.79,2.12.68,10.04,11.42,2.27,31.87ZM82.2,112.59h-23.36l-1.24-.4-9.26-2.98-10.05-11.42-2.27-31.87,3.03-16.92,10.97-10.35,16.38-2.62h23.36l10.5,3.38,10.04,11.42.38,5.28,1.89,26.58-3.03,16.92-10.97,10.35-16.39,2.62ZM78.21,102.13c1.34-3.29,2.7-6.58,4.04-9.88,0-5.17-.02-9.76-.04-14.34-.02-4.59-.03-9.18-.05-14.35,4.4,2.05,8.78,4.1,13.17,6.15-.48-3.17-.96-6.35-1.44-9.52-.96-1.49-1.92-2.99-2.88-4.49-2.45-3.83-4.9-7.65-7.36-11.48-4.15,1.51-8.3,3.02-12.45,4.53v25.76h-7.15c-2.36,1.38-4.74,2.76-7.11,4.15-.71.41-1.4.82-2.11,1.23-.52,3.9-1.04,7.79-1.57,11.69,1.05,3.07,2.1,6.14,3.15,9.21.12.04.25.08.37.12,3.47,1.16,6.94,2.31,10.41,3.47,3.67-.75,7.34-1.49,11-2.25Z"/>
    </g>
  </g>
</svg>