<?xml version="1.0" encoding="UTF-8"?>
<svg id="Ebene_2" data-name="Ebene 2" xmlns="http://www.w3.org/2000/svg" viewBox="0 0 168.29 168.29">
  <defs>
    <style>
      .cls-1 {
        fill: #1e1f21;
      }

      .cls-2 {
        fill: #b5bac1;
      }
    </style>
  </defs>
  <g id="Ebene_1-2" data-name="Ebene 1">
    <g>
      <rect class="cls-1" x="0" width="168.29" height="168.29" rx="13.07" ry="13.07"/>
      <path class="cls-2" d="M92.46,73.46c-1.49-4.37-2.98-8.74-4.48-13.11.74-5.55,1.48-11.1,2.23-16.65,4.37-2.55,8.75-5.1,13.12-7.65h15.35c2.88,3.41,5.75,6.82,8.63,10.23.64,5.01,1.28,10.02,1.92,15.03-1.92,4.69-3.84,9.38-5.75,14.07-5.22,1.07-10.44,2.13-15.67,3.2-5.12-1.71-10.23-3.41-15.35-5.12ZM79.25,36.47h-41.24v41.51h41.24v-41.51ZM36.2,109.72l22.51,22.51,22.52-22.52-22.62-22.41-22.42,22.42ZM109.09,91.47l-25.13,40.16h48.13l-23-40.16Z"/>
    </g>
  </g>
</svg>