<?xml version="1.0" encoding="UTF-8"?>
<svg id="Ebene_2" data-name="Ebene 2" xmlns="http://www.w3.org/2000/svg" viewBox="0 0 168.29 168.29">
  <defs>
    <style>
      .cls-1 {
        fill: #1e1f21;
      }

      .cls-2 {
        fill: #b5bac1;
      }
    </style>
  </defs>
  <g id="Ebene_1-2" data-name="Ebene 1">
    <g>
      <rect class="cls-1" width="168.29" height="168.29" rx="13.07" ry="13.07"/>
      <path class="cls-2" d="M130.87,53.69l-13.02-14.82-13.63-4.39h-30.31l-21.25,3.4-14.24,13.42-3.94,21.96,2.95,41.34,13.02,14.82,13.63,4.39h30.31l21.25-3.39,14.24-13.42,3.93-21.97-2.94-41.34ZM69.9,56.21c3.39-1.97,6.78-3.96,10.17-5.93h11.89c2.23,2.65,4.46,5.28,6.69,7.93.5,3.88.99,7.76,1.49,11.64-1.49,3.64-2.97,7.27-4.46,10.9-4.04.82-8.09,1.65-12.13,2.48-3.96-1.32-7.93-2.65-11.89-3.96-1.16-3.38-2.31-6.77-3.47-10.16.58-4.29,1.15-8.59,1.73-12.89ZM114.42,117.05l-2.21,4.84c-1.68.94-3.37,1.89-5.04,2.83-4.82.6-9.63,1.19-14.44,1.79-7.29.12-14.58.25-21.86.38-3.72-.73-7.43-1.45-11.14-2.17l-5.83-5.25-.43-13.32,12.11-10.1,17.36-3.59,14.32,1.67,13.3,7.02,4.28,6.82-.42,9.08Z"/>
    </g>
  </g>
</svg>