<?xml version="1.0" encoding="UTF-8"?>
<svg id="Ebene_2" data-name="Ebene 2" xmlns="http://www.w3.org/2000/svg" viewBox="0 0 168.29 168.29">
  <defs>
    <style>
      .cls-1 {
        fill: #1e1f21;
      }

      .cls-2 {
        fill: #b5bac1;
      }
    </style>
  </defs>
  <g id="Ebene_1-2" data-name="Ebene 1">
    <g>
      <rect class="cls-1" width="168.29" height="168.29" rx="13.07" ry="13.07"/>
      <path class="cls-2" d="M68.31,73.71c-1.46-4.29-2.93-8.57-4.39-12.86.73-5.44,1.46-10.88,2.18-16.33,4.29-2.5,8.58-5,12.87-7.51h15.05c2.82,3.34,5.64,6.69,8.47,10.03.63,4.91,1.25,9.83,1.88,14.74-1.88,4.6-3.76,9.2-5.64,13.8-5.12,1.05-10.24,2.09-15.37,3.14-5.02-1.67-10.03-3.34-15.05-5.02ZM117.57,101.43l-16.84-8.89-18.11-2.11-21.98,4.55-15.33,12.78.55,16.87,7.37,6.65h60.06l6.39-3.58,2.79-6.13.53-11.5-5.43-8.63Z"/>
    </g>
  </g>
</svg>