<?xml version="1.0" encoding="UTF-8"?>
<svg id="Ebene_2" data-name="Ebene 2" xmlns="http://www.w3.org/2000/svg" viewBox="0 0 168.29 168.29">
  <defs>
    <style>
      .cls-1 {
        fill: #b5bac1;
        fill-rule: evenodd;
      }

      .cls-2 {
        fill: #1e1f21;
      }
    </style>
  </defs>
  <g id="Ebene_1-2" data-name="Ebene 1">
    <g>
      <rect class="cls-2" width="168.29" height="168.29" rx="13.07" ry="13.07"/>
      <path class="cls-1" d="M61.04,76.96l28.73-28.73c-.64-2.79-1.27-5.59-1.91-8.38,1.7-2.06,3.41-4.11,5.11-6.17,7.29,6.42,14.59,12.84,21.88,19.26l15.56,19.3-6.32,6.68-6.83.57-10.19,9.65,25.01,23.78v4.9l-5.71,4.29-27.08-25.2-8.43,8.73.72,8.16-5.16,5.9-21.87-20.38-15.94-17.16,6.17-7.24,6.24,2.04ZM36.99,134.62h55.16l.76-9.8-23.73,2.97-32.98-2.36.79,9.19Z"/>
    </g>
  </g>
</svg>