<?xml version="1.0" encoding="UTF-8"?>
<svg id="Ebene_2" data-name="Ebene 2" xmlns="http://www.w3.org/2000/svg" viewBox="0 0 168.29 168.29">
  <defs>
    <style>
      .cls-1 {
        fill: #1e1f21;
      }

      .cls-2 {
        fill: #b5bac1;
      }
    </style>
  </defs>
  <g id="Ebene_1-2" data-name="Ebene 1">
    <g>
      <rect class="cls-1" x="0" width="168.29" height="168.29" rx="13.07" ry="13.07"/>
      <path class="cls-2" d="M130.86,68.19c-1.49-4.38-2.97-8.76-4.46-13.15-3-.57-6-1.13-8.99-1.7v-11.02l-1.92-3.26-3.83-1.15-5.94.77-2.68,4.4v7.91c-9.65-.12-19.31-.24-28.96-.36-2.93.45-5.87.89-8.8,1.34v-9.66l-1.92-3.26-3.83-1.15-5.94.77-2.68,4.4v11.08c-1.09.17-2.19.33-3.28.5-4.09,3.9-8.18,7.8-12.27,11.69-.29,7.14-.57,14.27-.86,21.41l2.94,25.07c1.37,4.23,2.74,8.46,4.11,12.69,7.75,1.62,15.51,3.24,23.26,4.86,9.97-.17,19.94-.34,29.9-.51,9.88-1.53,19.77-3.07,29.65-4.6,1.84-3.35,3.68-6.7,5.52-10.06l3.94-21.96-2.95-25.06ZM63.37,109.57c-1.96.4-3.92.8-5.89,1.2-1.92-.64-3.84-1.28-5.76-1.92-.56-1.64-1.12-3.29-1.68-4.93.28-2.08.56-4.17.84-6.26,1.65-.96,3.29-1.92,4.93-2.87h5.77c1.08,1.28,2.16,2.56,3.24,3.84.25,1.89.48,3.77.72,5.65-.72,1.76-1.44,3.53-2.16,5.29ZM63.37,85.04c-1.96.39-3.92.8-5.89,1.2-1.92-.64-3.84-1.28-5.76-1.92-.56-1.65-1.12-3.29-1.68-4.93.28-2.08.56-4.17.84-6.26,1.65-.96,3.29-1.92,4.93-2.88h5.77c1.08,1.29,2.16,2.57,3.24,3.85.25,1.89.48,3.76.72,5.65-.72,1.76-1.44,3.53-2.16,5.29ZM89.74,109.57c-1.97.4-3.93.8-5.89,1.2-1.93-.64-3.85-1.28-5.77-1.92-.56-1.64-1.12-3.29-1.68-4.93.28-2.08.56-4.17.84-6.26,1.65-.96,3.29-1.92,4.94-2.87h5.76l3.25,3.84c.24,1.89.48,3.77.71,5.65-.71,1.76-1.44,3.53-2.16,5.29ZM89.74,85.04c-1.97.39-3.93.8-5.89,1.2-1.93-.64-3.85-1.28-5.77-1.92-.56-1.65-1.12-3.29-1.68-4.93.28-2.08.56-4.17.84-6.26,1.65-.96,3.29-1.92,4.94-2.88h5.76c1.08,1.29,2.16,2.57,3.25,3.85.24,1.89.48,3.76.71,5.65-.71,1.76-1.44,3.53-2.16,5.29ZM116.09,85.04c-1.96.39-3.93.8-5.89,1.2-1.92-.64-3.85-1.28-5.76-1.92-.57-1.65-1.12-3.29-1.68-4.93.28-2.08.56-4.17.84-6.26,1.64-.96,3.29-1.92,4.93-2.88h5.76c1.08,1.29,2.16,2.57,3.25,3.85.24,1.89.48,3.76.72,5.65-.72,1.76-1.44,3.53-2.16,5.29Z"/>
    </g>
  </g>
</svg>