<?xml version="1.0" encoding="UTF-8"?>
<svg id="Ebene_2" data-name="Ebene 2" xmlns="http://www.w3.org/2000/svg" viewBox="0 0 168.29 168.29">
  <defs>
    <style>
      .cls-1 {
        fill: #b5bac1;
        fill-rule: evenodd;
      }

      .cls-2 {
        fill: #1e1f21;
      }
    </style>
  </defs>
  <g id="Ebene_1-2" data-name="Ebene 1">
    <g>
      <rect class="cls-2" width="168.29" height="168.29" rx="13.07" ry="13.07"/>
      <path class="cls-1" d="M130.87,53.69l-13.03-14.82-13.62-4.39h-30.31l-21.26,3.39-14.23,13.42-3.94,21.96,2.95,41.34,13.02,14.82,13.62,4.39h30.32l21.25-3.4,14.24-13.42,3.93-21.96-2.94-41.34ZM102.52,106.85l-2.25,1.21-2.34-.61-7.9-7.9-9.61-9.61-.34-1.39-.43-1.81v-30.5l1.71-2.81,3.8-.49,2.45.73,1.22,2.08v29.62l.97.96,6.73,6.73,7.55,7.56.78,3.2-2.34,3.03Z"/>
    </g>
  </g>
</svg>