<?xml version="1.0" encoding="UTF-8"?>
<svg id="Ebene_2" data-name="Ebene 2" xmlns="http://www.w3.org/2000/svg" viewBox="0 0 168.29 168.29">
  <defs>
    <style>
      .cls-1 {
        fill: #1e1f21;
      }

      .cls-2 {
        fill: #b5bac1;
      }
    </style>
  </defs>
  <g id="Ebene_1-2" data-name="Ebene 1">
    <g>
      <rect class="cls-1" width="168.29" height="168.29" rx="13.07" ry="13.07"/>
      <path class="cls-2" d="M130.87,53.69l-13.03-14.82-13.62-4.39h-30.31l-21.26,3.39-14.23,13.42-3.94,21.96,2.95,41.34,13.02,14.81,13.63,4.4h30.31l21.25-3.4,14.24-13.42,3.93-21.96-2.94-41.34ZM114.97,100.5l-2.03,2.49-3.58,1.87h-35.85c-.93.25-1.88.48-2.81.73-5.79,1.5-11.57,3.01-17.37,4.51.36-1.51.72-3.01,1.08-4.51.78-3.28,1.57-6.56,2.35-9.84.11-.42.2-.84.3-1.25-.06-1.01-.12-2.02-.17-3.03-.04-.57-.09-1.16-.13-1.74v-26.26l3.27-5.28h50.88l.25.43,2.26,3.72,1.02,1.71.51,7.01v29.45ZM105.93,77.09l-.58,1.94-1.65.97h-13.68l-2.22-1.35-.39-3,.58-1.93,1.64-.97h13.69l2.22,1.35.39,2.99ZM105.93,88.33l-.58,1.94-1.65.97h-28.24l-2.22-1.35-.39-3,.57-1.93,1.65-.98h28.25l2.22,1.36.39,2.99Z"/>
    </g>
  </g>
</svg>