<?xml version="1.0" encoding="UTF-8"?>
<svg id="Ebene_2" data-name="Ebene 2" xmlns="http://www.w3.org/2000/svg" viewBox="0 0 168.29 168.29">
  <defs>
    <style>
      .cls-1 {
        fill: #b5bac1;
        fill-rule: evenodd;
      }

      .cls-2 {
        fill: #1e1f21;
      }
    </style>
  </defs>
  <g id="Ebene_1-2" data-name="Ebene 1">
    <g>
      <rect class="cls-2" width="168.29" height="168.29" rx="13.07" ry="13.07"/>
      <path class="cls-1" d="M62.55,65.19l17.46-19.28,3.27,2.58v71.96l-3.23,1.93-21.41-18.9h-20.17l-5.1-2.27v-23.44l4.27-9.83,24.91-2.76ZM92.29,69.63c5.08,5.08,10.16,10.15,15.24,15.23-5.08,5.08-10.16,10.15-15.24,15.23l6.09,6.09,15.23-15.23,15.23,15.23,6.09-6.09-15.23-15.23,15.23-15.23-6.09-6.09-15.46,15.47-15.46-15.47c-1.87,2.03-3.74,4.06-5.62,6.09Z"/>
    </g>
  </g>
</svg>