<?xml version="1.0" encoding="UTF-8"?>
<svg id="Ebene_2" data-name="Ebene 2" xmlns="http://www.w3.org/2000/svg" viewBox="0 0 168.29 168.29">
  <defs>
    <style>
      .cls-1 {
        fill: #1e1f21;
      }

      .cls-2 {
        fill: #b5bac1;
      }
    </style>
  </defs>
  <g id="Ebene_1-2" data-name="Ebene 1">
    <g>
      <rect class="cls-1" width="168.29" height="168.29" rx="13.07" ry="13.07"/>
      <path class="cls-2" d="M127.21,108.68v-61.84l-11.76-11h-61.85l-12.52,14.44v73.48l7.16,8.69h77.69v-7.16h-4.85v-11.24l6.13-5.37ZM109.75,68.03l1.72,4.79-14.56,19.36h13.92l1.98,2.56-1.6,5.68h-25.75l-1.92-2.17,16.04-22.43h-11.57l-1.85-7.79h23.58ZM62.8,56.68c2.29-2.25,4.58-4.52,6.86-6.77,2.29,2.26,4.57,4.52,6.86,6.77,3.3,9.16,6.62,18.32,9.92,27.48h-7.34c-.67-2.19-1.34-4.38-2.01-6.56l-1.33-3.69h-12.2l-1.33,3.69c-.61,2.18-1.21,4.37-1.81,6.56h-7.54c3.31-9.16,6.62-18.32,9.92-27.48ZM115.45,125.55H51.05l-3.07-2.8,1.79-7.16h65.68v9.96ZM70.85,60.3l-1.19-1.17-1.19,1.17-2.59,7.18h7.56l-2.59-7.18Z"/>
    </g>
  </g>
</svg>