<?xml version="1.0" encoding="UTF-8"?>
<svg id="Ebene_2" data-name="Ebene 2" xmlns="http://www.w3.org/2000/svg" viewBox="0 0 168.29 168.29">
  <defs>
    <style>
      .cls-1 {
        fill: #1e1f21;
      }

      .cls-2 {
        fill: #b5bac1;
      }
    </style>
  </defs>
  <g id="Ebene_1-2" data-name="Ebene 1">
    <g>
      <rect class="cls-1" width="168.29" height="168.29" rx="13.07" ry="13.07"/>
      <polygon class="cls-2" points="120.78 63.08 107.84 59.39 104.77 52.73 102.31 36.25 93.33 37.59 95.98 55.36 106.21 77.57 104.43 95.13 103.08 96.74 71.59 64.17 85.17 61.45 83.38 52.54 66.49 55.92 55.1 69.46 52.79 92.28 55.44 98.03 48.97 96.19 36.42 95.65 36.03 104.73 47.51 105.22 60.45 108.9 63.52 115.56 65.98 132.04 74.97 130.7 72.31 112.94 62.08 90.73 63.86 73.16 65.62 71.07 97.2 103.73 96.9 104.09 83.13 106.84 84.91 115.75 101.81 112.37 113.19 98.84 115.5 76.02 112.85 70.26 119.33 72.11 131.88 72.64 132.26 63.56 120.78 63.08"/>
    </g>
  </g>
</svg>