<?xml version="1.0" encoding="UTF-8"?>
<svg id="Ebene_2" data-name="Ebene 2" xmlns="http://www.w3.org/2000/svg" viewBox="0 0 168.29 168.29">
  <defs>
    <style>
      .cls-1 {
        fill: #1e1f21;
      }

      .cls-2 {
        fill: #b5bac1;
      }
    </style>
  </defs>
  <g id="Ebene_1-2" data-name="Ebene 1">
    <g>
      <rect class="cls-1" width="168.29" height="168.29" rx="13.07" ry="13.07"/>
      <path class="cls-2" d="M55.48,35.53c.18,1.17.36,2.34.54,3.5v89.63c-.1,1.67-.21,3.34-.31,5.01-4.49-.06-8.99-.13-13.48-.19-.19-1.29-.39-2.57-.58-3.86V39.8c.5-1.53,1.01-3.06,1.51-4.59,2.37-.2,4.75-.39,7.12-.59,1.74.3,3.48.6,5.21.91ZM99.05,44.03l-18.66-3.83-19.94-3.32v60.7c4,2,8.01,4,12.01,6.01l24.28,2.81c9.97-3.02,19.94-6.05,29.9-9.07v-58.4l-27.6,5.11Z"/>
    </g>
  </g>
</svg>