<?xml version="1.0" encoding="UTF-8"?>
<svg id="Ebene_2" data-name="Ebene 2" xmlns="http://www.w3.org/2000/svg" viewBox="0 0 168.29 168.29">
  <defs>
    <style>
      .cls-1 {
        fill: #1e1f21;
      }

      .cls-2 {
        fill: #b5bac1;
      }
    </style>
  </defs>
  <g id="Ebene_1-2" data-name="Ebene 1">
    <g>
      <rect class="cls-1" width="168.29" height="168.29" rx="13.07" ry="13.07"/>
      <path class="cls-2" d="M129.13,77.27l2.32-6.4c-.9-3.16-1.8-6.33-2.7-9.49-3.87,0-7.74,0-11.6,0l2.95-10.46c-1.52-2.44-3.04-4.88-4.55-7.32-3.68,1.32-7.37,2.64-11.05,3.97l-3.92,13.8c-6.4,0-12.81-.01-19.21-.02l2.95-10.43c-3.72-2.71-7.44-5.43-11.16-8.14l-4.44,4.78-3.89,13.77c-4.81,0-9.63,0-14.44-.01l-5.56,4.25c2.27,3.89,4.55,7.79,6.82,11.68,2.89,0,5.79,0,8.68,0l-4.68,16.58c-4.18,0-8.36-.01-12.55-.02-2.08,5.34-4.16,10.68-6.23,16.02,4.76,0,9.51-.01,14.27-.02l-2.6,9.21,2.58,6.5c4.37-1.13,8.73-2.26,13.1-3.39l3.49-12.34c6.38,0,12.76-.01,19.15-.02-1.41,4.95-2.81,9.91-4.22,14.86,5.04.27,10.08.54,15.12.8l2.26-3.3,3.5-12.38c4.96,0,9.92-.01,14.88-.02,1.8-5.27,3.59-10.54,5.39-15.81-5.27,0-10.53-.02-15.8-.02l4.7-16.64c5.49,0,10.99,0,16.48,0ZM91.33,93.88c-6.39,0-12.77-.02-19.16-.03l4.69-16.6c6.4,0,12.79,0,19.19,0-1.57,5.54-3.15,11.08-4.72,16.62Z"/>
    </g>
  </g>
</svg>