<?xml version="1.0" encoding="UTF-8"?>
<svg id="Ebene_2" data-name="Ebene 2" xmlns="http://www.w3.org/2000/svg" viewBox="0 0 168.29 168.29">
  <defs>
    <style>
      .cls-1 {
        fill: #1e1f21;
      }

      .cls-2 {
        fill: #b5bac1;
      }
    </style>
  </defs>
  <g id="Ebene_1-2" data-name="Ebene 1">
    <g>
      <rect class="cls-1" width="168.29" height="168.29" rx="13.07" ry="13.07"/>
      <path class="cls-2" d="M125.3,45.81H41.72l-5.37,8.68v64.16l7.16,3.83h79.23l5.88-3.07,3.32-4.09v-58.52l-6.64-10.99ZM62.36,68.63c1.77-1.03,3.55-2.07,5.33-3.11h6.23c1.16,1.39,2.34,2.77,3.51,4.16.25,2.03.52,4.07.78,6.1-.78,1.9-1.56,3.81-2.35,5.72-2.12.43-4.24.87-6.36,1.3-2.07-.69-4.16-1.39-6.23-2.07-.61-1.77-1.21-3.55-1.82-5.32l.91-6.77ZM85.71,100.54l-1.16,2.53-2.64,1.48h-24.88l-3.06-2.75-.22-6.99,6.35-5.29,9.1-1.89,7.5.88,6.98,3.68,2.25,3.58-.21,4.76ZM115.14,102.02l-2.11,1.23h-17.47l-2.84-1.72-.49-3.83.74-2.47,2.1-1.24h17.47l2.84,1.73.5,3.83-.74,2.47ZM115.14,87.66l-2.11,1.24h-17.47l-2.84-1.73-.49-3.83.74-2.46,2.1-1.24h17.47l2.84,1.73.5,3.82-.74,2.47Z"/>
    </g>
  </g>
</svg>