<?xml version="1.0" encoding="UTF-8"?>
<svg id="Ebene_2" data-name="Ebene 2" xmlns="http://www.w3.org/2000/svg" viewBox="0 0 168.29 168.29">
  <defs>
    <style>
      .cls-1 {
        fill: #1e1f21;
      }

      .cls-2 {
        fill: #b5bac1;
      }
    </style>
  </defs>
  <g id="Ebene_1-2" data-name="Ebene 1">
    <g>
      <rect class="cls-1" width="168.29" height="168.29" rx="13.07" ry="13.07"/>
      <g>
        <polygon class="cls-2" points="66.48 51.78 68.6 51.44 85 48.82 85.54 48.73 108.47 48.73 100.27 39.4 89.78 36.03 66.41 36.03 50.02 38.64 39.06 48.99 36.02 65.92 38.3 97.79 48.33 109.2 50.45 109.88 48.75 86.09 48.69 85.23 48.84 84.37 51.88 67.44 52.28 65.18 53.95 63.6 64.92 53.25 66.48 51.78"/>
        <path class="cls-2" d="M130,70.51l-10.05-11.42-9.26-2.98-1.24-.4h-23.36l-16.39,2.62-10.96,10.35-3.03,16.93,1.89,26.58.38,5.28,10.04,11.41,10.5,3.39h23.36l16.38-2.62,10.97-10.35,3.03-16.92-2.27-31.87ZM111.48,67.18l.72-.71,9.51,9.51-9.54,9.54-.08-.08-9.54-9.55,8.93-8.71ZM123.95,115.98l-7,7.4-14.79,2.72-10.12.8-20.04-2.75-8.18-8.56-.36-3-1.2-10.05,16.54-12.64,18.88,17.32,12.3-9.96,2.11-1.71,13.62,9.73-1.75,10.7Z"/>
      </g>
    </g>
  </g>
</svg>