<?xml version="1.0" encoding="UTF-8"?>
<svg id="Ebene_2" data-name="Ebene 2" xmlns="http://www.w3.org/2000/svg" viewBox="0 0 168.29 168.29">
  <defs>
    <style>
      .cls-1 {
        fill: #1e1f21;
      }

      .cls-2 {
        fill: #b5bac1;
      }
    </style>
  </defs>
  <g id="Ebene_1-2" data-name="Ebene 1">
    <g>
      <rect class="cls-1" width="168.29" height="168.29" rx="13.07" ry="13.07"/>
      <path class="cls-2" d="M130.87,53.69l-13.03-14.82-13.62-4.39h-30.31l-21.26,3.39-14.23,13.43-3.94,21.96,2.95,41.34,13.02,14.82,13.62,4.39h30.32l21.25-3.39,14.24-13.43,3.93-21.96-2.94-41.34ZM82.34,57.34l2.99-1.77,3.17.37,2.18,2.67v4.08l-.64,2.34-2.63,2.1-2.85-.21-2.35-1.63-.68-2.36-.06-3.99.87-1.59ZM98.18,108.34h-24.43l-2.35-1-1.34-4.52,2.85-3.18h7.86v-15.6c-.47-.83-.93-1.65-1.39-2.48h-5.63l-3.68-4.18.89-3.18,3.12-2.31h6.44l4.62,1.81,3.85,4.58,1.63,4.53v16.87h7.3l3.09,2.63.34,4.02-3.19,2.01Z"/>
    </g>
  </g>
</svg>