<?xml version="1.0" encoding="UTF-8"?>
<svg id="Ebene_2" data-name="Ebene 2" xmlns="http://www.w3.org/2000/svg" viewBox="0 0 168.29 168.29">
  <defs>
    <style>
      .cls-1 {
        fill: #1e1f21;
      }

      .cls-2 {
        fill: #b5bac1;
      }
    </style>
  </defs>
  <g id="Ebene_1-2" data-name="Ebene 1">
    <g>
      <rect class="cls-1" width="168.29" height="168.29" rx="13.07" ry="13.07"/>
      <path class="cls-2" d="M93.04,74.97l3.24,5.51v39.01l-4.53,7.43-10.03,1.3-6.46-1.94-3.24-5.51v-39.01l4.53-7.43,10.03-1.3,6.46,1.94ZM52.94,108.26l-10.04,1.3-4.53,5.1v6.11l3.24,5.5,6.46,1.94,10.04-1.3,4.53-5.1v-6.1l-3.24-5.51-6.46-1.94ZM126.68,42l-6.46-1.94-10.03,1.3-4.53,7.43v71.98l3.24,5.51,6.46,1.94,10.03-1.3,4.53-7.43V47.51l-3.24-5.51Z"/>
    </g>
  </g>
</svg>