<?xml version="1.0" encoding="UTF-8"?>
<svg id="Ebene_2" data-name="Ebene 2" xmlns="http://www.w3.org/2000/svg" viewBox="0 0 168.29 168.29">
  <defs>
    <style>
      .cls-1 {
        fill: #1e1f21;
      }

      .cls-2 {
        fill: #b5bac1;
      }
    </style>
  </defs>
  <g id="Ebene_1-2" data-name="Ebene 1">
    <g>
      <rect class="cls-1" width="168.29" height="168.29" rx="13.07" ry="13.07"/>
      <path class="cls-2" d="M77.15,70.44l-3.84-6.51,12.51-14.47,12.76-4.92,12.74,3.64,8.85,8.56,3.11,10.95c-.4,3.46-.8,6.92-1.2,10.38-5.51,5.65-11.02,11.31-16.52,16.96l-4.41.4-1.8-5.96c3.84-4.5,7.69-9.01,11.53-13.51,1.09-2.31,2.17-4.63,3.26-6.94-1.56-3.69-3.12-7.38-4.68-11.07-2.55-1.4-5.11-2.8-7.66-4.19-3.72,1.1-7.45,2.2-11.17,3.3-3.76,4.1-7.52,8.2-11.28,12.3l-2.21,1.08ZM88.94,98.94c-3.76,4.1-7.52,8.2-11.28,12.3-3.72,1.1-7.45,2.2-11.17,3.3-2.55-1.4-5.11-2.8-7.66-4.19-1.56-3.69-3.12-7.38-4.68-11.07,1.09-2.31,2.17-4.63,3.26-6.94,3.84-4.5,7.69-9.01,11.53-13.51l-1.8-5.96-4.41.4c-5.51,5.65-11.02,11.31-16.52,16.96-.4,3.46-.8,6.92-1.2,10.38l3.11,10.95,8.85,8.56,12.74,3.64,12.76-4.92,12.51-14.47-3.84-6.51-2.21,1.08ZM75.41,98.67l22.55-21.65v-4.58l-6.02-2-23.92,23.73,3.18,2.92,4.21,1.58Z"/>
    </g>
  </g>
</svg>