<?xml version="1.0" encoding="UTF-8"?>
<svg id="Ebene_2" data-name="Ebene 2" xmlns="http://www.w3.org/2000/svg" viewBox="0 0 168.29 168.29">
  <defs>
    <style>
      .cls-1 {
        fill: #1e1f21;
      }

      .cls-2 {
        fill: #b5bac1;
      }
    </style>
  </defs>
  <g id="Ebene_1-2" data-name="Ebene 1">
    <g>
      <rect class="cls-1" width="168.29" height="168.29" rx="13.07" ry="13.07"/>
      <path class="cls-2" d="M124.42,74.79c-3.82-1.64-7.63-3.28-11.45-4.93l-.43-.14v-8.8l-4.6-14.91-10.48-8.86-13.42-.77-13.42.77-10.48,8.86-4.6,14.91v9.46c-3.62,2.24-7.24,4.47-10.86,6.71-1.1,7.44-2.2,14.88-3.3,22.32.84,7.18,1.69,14.35,2.53,21.53,3.96,3.15,7.92,6.3,11.88,9.44,4.47.38,8.95.77,13.42,1.15,9.58.13,19.17.26,28.75.38,5.5-1.21,10.99-2.43,16.49-3.64,3.45-2.36,6.9-4.73,10.35-7.09.7-7.28,1.41-14.57,2.11-21.85-.83-8.18-1.66-16.36-2.49-24.54ZM69.71,52.97c1.99-1.36,3.99-2.73,5.98-4.09,2.78-.63,5.57-1.26,8.35-1.89,3.3.73,6.61,1.47,9.91,2.2,1.47,1.26,2.95,2.52,4.42,3.78.29,4.33.59,8.66.88,12.98h-26.05l-4.43.71.93-13.69ZM84.04,112.55l-12.01-12.01,12.01-12.01,12.01,12.01-12.01,12.01Z"/>
    </g>
  </g>
</svg>