<?xml version="1.0" encoding="UTF-8"?>
<svg id="Ebene_2" data-name="Ebene 2" xmlns="http://www.w3.org/2000/svg" viewBox="0 0 168.29 168.29">
  <defs>
    <style>
      .cls-1 {
        fill: #1e1f21;
      }

      .cls-2 {
        fill: #b5bac1;
      }
    </style>
  </defs>
  <g id="Ebene_1-2" data-name="Ebene 1">
    <g>
      <rect class="cls-1" width="168.29" height="168.29" rx="13.07" ry="13.07"/>
      <g>
        <path class="cls-2" d="M114.72,76.92c1.59-3.89,3.18-7.78,4.77-11.67-.53-4.15-1.06-8.31-1.59-12.46-2.39-2.83-4.77-5.66-7.16-8.49h-12.73c-.34.2-.68.39-1.02.6l.16,1.27,1.89,14.74.23,1.82-.7,1.71-2.3,5.63-2.76,6.76c2.74.91,5.49,1.83,8.22,2.74,4.33-.89,8.66-1.77,12.99-2.65Z"/>
        <polygon class="cls-2" points="130.65 98.75 116.41 91.24 101.1 89.46 98.57 89.98 108.57 95.25 110.23 96.13 111.22 97.71 116.65 106.34 117.82 108.19 117.72 110.37 117.18 121.87 117.13 123.22 116.78 123.98 127.03 123.98 132.43 120.95 134.79 115.77 135.24 106.04 130.65 98.75"/>
        <path class="cls-2" d="M71.12,78.73c5.12-1.05,10.24-2.09,15.37-3.14.48-1.16.95-2.32,1.43-3.49,1.4-3.44,2.81-6.87,4.21-10.31-.55-4.36-1.12-8.72-1.66-13.08-.07-.55-.14-1.11-.21-1.66-2.82-3.35-5.64-6.69-8.47-10.04h-15.05c-4.29,2.5-8.58,5-12.87,7.5-.72,5.44-1.45,10.88-2.18,16.33,1.47,4.29,2.93,8.57,4.4,12.86,5.01,1.67,10.03,3.35,15.05,5.02Z"/>
        <polygon class="cls-2" points="88.48 92.54 87.01 92.37 70.37 90.42 48.39 94.97 33.05 107.75 33.6 124.62 40.97 131.27 101.04 131.27 107.43 127.68 109.12 123.98 110.22 121.55 110.75 110.05 105.32 101.43 88.48 92.54"/>
      </g>
    </g>
  </g>
</svg>