<?xml version="1.0" encoding="UTF-8"?>
<svg id="Ebene_2" data-name="Ebene 2" xmlns="http://www.w3.org/2000/svg" viewBox="0 0 168.29 168.29">
  <defs>
    <style>
      .cls-1 {
        fill: #b5bac1;
        fill-rule: evenodd;
      }

      .cls-2 {
        fill: #1e1f21;
      }
    </style>
  </defs>
  <g id="Ebene_1-2" data-name="Ebene 1">
    <g>
      <rect class="cls-2" width="168.29" height="168.29" rx="13.07" ry="13.07"/>
      <path class="cls-1" d="M70.22,88l-2.96-3.64v-34.67l8.51-9.57,12.55-1.92,8.72,6.59,2.98,6.38v33.19l-4.9,7.86-5.31,1.4-9.47-9.47-3.42-3.42-3.29,3.56-2.8,3.04-.61.66ZM80.08,108.79l.02-.02-4.33-4.33-7.62-7.61-3.16-3.16.93-1.01-4.75-7.03v-16.59h-6.97v18.72l7.09,10.52,13.14,9.85,5.64.66ZM111.28,84.16l1.16,1.16v-15h-6.98v13.07l2.53-2.53,3.29,3.29ZM114.08,93.54l-2.99-2.99-3.1-3.1-10.73,10.73h0s-4.73,4.73-4.73,4.73l-2.41-2.41-5.49-5.49-7.57-7.57c-1.29,1.39-2.58,2.8-3.87,4.2-.58.63-1.16,1.26-1.75,1.89,2.73,2.72,5.46,5.45,8.18,8.18,1.27,1.26,2.54,2.53,3.81,3.8l3.24,3.24c-.09.09-.17.17-.26.26l-6.26,6.26c-2.9,2.9-5.81,5.81-8.72,8.71l6.09,6.09,5.08-5.08h0l4.52-4.52h0s5.63-5.63,5.63-5.63l15.23,15.23,6.09-6.09-15.23-15.23,15.23-15.23Z"/>
    </g>
  </g>
</svg>