<?xml version="1.0" encoding="UTF-8"?>
<svg id="Ebene_2" data-name="Ebene 2" xmlns="http://www.w3.org/2000/svg" viewBox="0 0 168.29 168.29">
  <defs>
    <style>
      .cls-1 {
        fill: #1e1f21;
      }

      .cls-2 {
        fill: #b5bac1;
      }
    </style>
  </defs>
  <g id="Ebene_1-2" data-name="Ebene 1">
    <g>
      <rect class="cls-1" width="168.29" height="168.29" rx="13.07" ry="13.07"/>
      <path class="cls-2" d="M75.36,40.74l-34.73,1.08v34.67l46.83,48,7.41,3.05,8.59-25.68,23.41-3.9.79-6.24-52.3-50.98ZM65.76,68.52c-1.37.28-2.74.56-4.1.84-1.34-.44-2.68-.89-4.02-1.34-.39-1.15-.78-2.29-1.17-3.44.2-1.45.39-2.9.58-4.35,1.15-.67,2.29-1.34,3.44-2h4.02c.75.89,1.51,1.78,2.25,2.67.17,1.31.34,2.62.51,3.94-.51,1.23-1.01,2.45-1.51,3.68Z"/>
    </g>
  </g>
</svg>