<?xml version="1.0" encoding="UTF-8"?>
<svg id="Ebene_2" data-name="Ebene 2" xmlns="http://www.w3.org/2000/svg" viewBox="0 0 168.29 168.29">
  <defs>
    <style>
      .cls-1 {
        fill: #1e1f21;
      }

      .cls-2 {
        fill: #b5bac1;
      }
    </style>
  </defs>
  <g id="Ebene_1-2" data-name="Ebene 1">
    <g>
      <rect class="cls-1" width="168.29" height="168.29" rx="13.07" ry="13.07"/>
      <path class="cls-2" d="M126.66,33.93l-61.08,22.24v38.48h-9.73c-4.08,2.38-8.17,4.77-12.25,7.15-.69,5.18-1.39,10.36-2.08,15.55,1.39,4.08,2.79,8.16,4.18,12.24,4.78,1.59,9.56,3.19,14.33,4.78,4.88-1,9.76-1.99,14.63-2.99,1.79-4.38,3.58-8.76,5.37-13.14.04-14.13.08-28.26.11-42.4l31.64-11.76v19.95h-9.2c-4.08,2.38-8.17,4.77-12.25,7.15-.69,5.18-1.39,10.36-2.08,15.55,1.39,4.08,2.79,8.16,4.18,12.24,4.78,1.59,9.56,3.19,14.33,4.78l14.63-2.99c1.79-4.38,3.58-8.76,5.37-13.14-.04-24.57-.08-49.14-.12-73.7Z"/>
    </g>
  </g>
</svg>