<?xml version="1.0" encoding="UTF-8"?>
<svg id="Ebene_2" data-name="Ebene 2" xmlns="http://www.w3.org/2000/svg" viewBox="0 0 168.29 168.29">
  <defs>
    <style>
      .cls-1 {
        fill: #1e1f21;
      }

      .cls-2 {
        fill: #b5bac1;
      }
    </style>
  </defs>
  <g id="Ebene_1-2" data-name="Ebene 1">
    <g>
      <rect class="cls-1" width="168.29" height="168.29" rx="13.07" ry="13.07"/>
      <g>
        <path class="cls-2" d="M113.27,46.48c-12.58,12.26-25.17,24.51-37.75,36.77,1.72,3.7,3.45,7.41,5.17,11.11,13.07-13,26.14-26.01,39.22-39.01.47,6.56.93,13.12,1.4,19.68h9.86c-.39-12.39-.77-24.78-1.16-37.16-9-1.13-18-2.26-27.01-3.39h-8.53v9.84h6.98c3.94.72,7.88,1.44,11.82,2.16Z"/>
        <path class="cls-2" d="M132.08,87.89h-9.86c-.89,8.06-1.78,16.11-2.66,24.17l-9.67,9.11c-15.16.93-30.32,1.87-45.48,2.8l-9.57-3.09-9.05-10.28c.17-18.12.35-36.24.52-54.37l9.66-9.11,17.5-2.8h8.14v-9.84h-8.92l-21.26,3.39-14.23,13.42c-.33,21.1-.66,42.2-.99,63.3l13.03,14.81,13.62,4.4c17.19-1.13,34.38-2.27,51.57-3.4l14.24-13.42c1.14-9.7,2.28-19.4,3.42-29.09Z"/>
      </g>
    </g>
  </g>
</svg>