<?xml version="1.0" encoding="UTF-8"?>
<svg id="Ebene_2" data-name="Ebene 2" xmlns="http://www.w3.org/2000/svg" viewBox="0 0 168.29 168.29">
  <defs>
    <style>
      .cls-1 {
        fill: #1e1f21;
      }

      .cls-2 {
        fill: #b5bac1;
      }
    </style>
  </defs>
  <g id="Ebene_1-2" data-name="Ebene 1">
    <g>
      <rect class="cls-1" width="168.29" height="168.29" rx="13.07" ry="13.07"/>
      <path class="cls-2" d="M130.86,53.69l-13.02-14.81-13.62-4.39h-30.31l-21.26,3.4-14.23,13.42-3.93,21.96,2.95,41.34,13.03,14.81,13.62,4.39h30.31l21.26-3.4,14.23-13.42,3.93-21.96-2.95-41.34ZM89.58,113.05l-2.43,2.86-5.28-.35c-1.15-1.26-2.3-2.51-3.44-3.76.15-2.09.3-4.18.46-6.27.91-.9,1.83-1.79,2.75-2.69,1.76-.06,3.52-.13,5.29-.18l2.66,2.87v7.53ZM102.59,75.85l-5.82,7.31-8.36,5.65v4.83l-3.76,2.48h-3.97l-2.72-4.6v-6.69l5.44-5.85,6.9-5.01,1.67-5.44-3.35-3.55-5.01-1.04-6.06,2.92v6.15l-3.13,3.05-3.35.21-5.36-4.18v-8.15l7.66-8.99,9.83-2.56,10.24,2.14,9.16,9.79v11.52Z"/>
    </g>
  </g>
</svg>