<?xml version="1.0" encoding="UTF-8"?>
<svg id="Ebene_2" data-name="Ebene 2" xmlns="http://www.w3.org/2000/svg" viewBox="0 0 168.29 168.29">
  <defs>
    <style>
      .cls-1 {
        fill: #b5bac1;
        fill-rule: evenodd;
      }

      .cls-2 {
        fill: #1e1f21;
      }
    </style>
  </defs>
  <g id="Ebene_1-2" data-name="Ebene 1">
    <g>
      <rect class="cls-2" width="168.29" height="168.29" rx="13.07" ry="13.07"/>
      <path class="cls-1" d="M88.46,65.17v-5.68c.9-.18,1.8-.37,2.7-.55.96-2.35,1.92-4.69,2.88-7.04l-.96-7.53c-1.44-1.71-2.88-3.41-4.32-5.12h-7.68c-2.19,1.27-4.38,2.55-6.57,3.83-.37,2.78-.75,5.55-1.12,8.33.75,2.19,1.49,4.38,2.24,6.56,1.12.37,2.23.75,3.34,1.12v6.08h-30.19l-4.42,9.49v50.2l5.9,4.18h65.24l4.85-3.35,2.74-4.47v-44.03l-5.47-12.01h-29.14ZM62.79,92.65c.27-2.01.53-4.02.8-6.03,1.58-.93,3.17-1.85,4.75-2.77h5.55c1.04,1.24,2.08,2.47,3.12,3.71.24,1.81.47,3.62.7,5.44-.7,1.7-1.39,3.39-2.08,5.09-1.89.39-3.78.77-5.67,1.16-1.85-.61-3.71-1.24-5.56-1.85-.53-1.58-1.07-3.17-1.62-4.74ZM99.67,115.62l-2.16,1.27h-27.12l-2.91-1.77-.51-3.93.76-2.53,2.16-1.26h27.12l2.91,1.77.51,3.93-.76,2.53ZM102.54,98.09c-1.89.39-3.78.77-5.67,1.16-1.85-.61-3.71-1.24-5.55-1.85-.54-1.58-1.08-3.17-1.62-4.74.27-2.01.54-4.02.8-6.03,1.58-.93,3.17-1.85,4.75-2.77h5.56c1.04,1.24,2.08,2.47,3.12,3.71.23,1.81.46,3.62.69,5.44-.69,1.7-1.39,3.39-2.08,5.09ZM137.76,87v18.93l-1.77,2.91-3.93.51-2.53-.76-1.27-2.16v-18.93l1.77-2.91,3.93-.51,2.53.76,1.27,2.16ZM38.76,84.84l1.27,2.16v18.93l-1.77,2.91-3.93.51-2.53-.76-1.26-2.16v-18.93l1.77-2.91,3.93-.51,2.53.76Z"/>
    </g>
  </g>
</svg>