<?xml version="1.0" encoding="UTF-8"?>
<svg id="Ebene_2" data-name="Ebene 2" xmlns="http://www.w3.org/2000/svg" viewBox="0 0 168.29 168.29">
  <defs>
    <style>
      .cls-1 {
        fill: #1e1f21;
      }

      .cls-2 {
        fill: #b5bac1;
      }
    </style>
  </defs>
  <g id="Ebene_1-2" data-name="Ebene 1">
    <g>
      <rect class="cls-1" width="168.29" height="168.29" rx="13.07" ry="13.07"/>
      <path class="cls-2" d="M130.86,53.69l-13.03-14.81-13.62-4.39h-30.31l-21.26,3.4-14.23,13.43-3.93,21.96,2.95,41.34,13.03,14.81,13.62,4.39h30.31l21.26-3.4,14.23-13.43,3.93-21.96-2.95-41.34ZM114.64,104.2l-3.59,3.27h-31.92c-.12.93-.25,1.86-.37,2.79-2.87,1.67-5.73,3.35-8.6,5.02h-10.06c-1.89-2.24-3.77-4.47-5.66-6.71-.42-3.28-.84-6.57-1.26-9.85,1.26-3.07,2.52-6.15,3.77-9.22,3.42-.7,6.85-1.4,10.27-2.1,3.35,1.12,6.71,2.24,10.06,3.35l1.52,4.46h31.43l2.45.98,2.45,3.76-.49,4.25ZM111.35,78.8c-3.42.7-6.85,1.4-10.27,2.1-3.35-1.12-6.71-2.24-10.06-3.35-.51-1.49-1.01-2.97-1.52-4.46h-31.43l-2.45-.98-2.45-3.76.49-4.25,3.59-3.27h31.92c.12-.93.25-1.86.37-2.79,2.87-1.67,5.73-3.35,8.6-5.02h10.06c1.89,2.24,3.77,4.47,5.66,6.71.42,3.28.84,6.57,1.26,9.85-1.26,3.07-2.52,6.15-3.77,9.22Z"/>
    </g>
  </g>
</svg>