<?xml version="1.0" encoding="UTF-8"?>
<svg id="Ebene_2" data-name="Ebene 2" xmlns="http://www.w3.org/2000/svg" viewBox="0 0 168.29 168.29">
  <defs>
    <style>
      .cls-1 {
        fill: #1e1f21;
      }

      .cls-2 {
        fill: #b5bac1;
      }
    </style>
  </defs>
  <g id="Ebene_1-2" data-name="Ebene 1">
    <g>
      <rect class="cls-1" width="168.29" height="168.29" rx="13.07" ry="13.07"/>
      <path class="cls-2" d="M124.59,79.06c-1.29-3.79-2.57-7.59-3.86-11.38-6.59-.37-13.17-.75-19.75-1.13-3.69-.04-7.36-.09-11.04-.13l-.78-1.73.58-1.41c1.53-.3,3.07-.62,4.6-.94,1.32-3.21,2.62-6.43,3.94-9.64-.43-3.42-.87-6.86-1.32-10.3-1.96-2.33-3.94-4.68-5.91-7.01h-10.51c-3,1.75-6.01,3.49-9,5.24-.51,3.81-1.03,7.61-1.53,11.41,1.03,3,2.04,5.99,3.07,9,1.62.54,3.25,1.08,4.87,1.62l.65,1.88-1.13,1.71c-.67-.01-1.36-.01-2.03-.03-7.64.37-15.28.75-22.92,1.12-3.29,1.99-6.57,3.98-9.85,5.98-.51,7.56-1.01,15.12-1.51,22.67l2.56,21.71c1.19,3.66,2.37,7.32,3.56,10.99,6.72,1.41,13.42,2.81,20.13,4.2,8.64-.14,17.27-.29,25.9-.43,8.55-1.33,17.11-2.66,25.67-3.98,1.59-2.91,3.17-5.81,4.77-8.72l3.41-19.01-2.56-21.7ZM75.11,104.34c-1.86.7-3.7,1.38-5.55,2.08-1.44-.7-2.87-1.38-4.31-2.08-.94-2.21-1.86-4.41-2.78-6.63.28-2.04.54-4.1.82-6.14,1.53-1.57,3.06-3.14,4.57-4.72,2.16.24,4.32.47,6.47.7.88,1.66,1.76,3.31,2.66,4.97.24,1.84.46,3.7.7,5.55-.86,2.09-1.73,4.18-2.58,6.27ZM102.75,104.34c-1.86.7-3.7,1.38-5.55,2.08-1.44-.7-2.87-1.38-4.31-2.08-.94-2.21-1.86-4.41-2.78-6.63.28-2.04.54-4.1.82-6.14,1.53-1.57,3.06-3.14,4.57-4.72,2.16.24,4.32.47,6.47.7.88,1.66,1.77,3.31,2.66,4.97.24,1.84.46,3.7.7,5.55-.86,2.09-1.73,4.18-2.58,6.27Z"/>
    </g>
  </g>
</svg>