<?xml version="1.0" encoding="UTF-8"?>
<svg id="Ebene_2" data-name="Ebene 2" xmlns="http://www.w3.org/2000/svg" viewBox="0 0 168.29 168.29">
  <defs>
    <style>
      .cls-1 {
        fill: #1e1f21;
      }

      .cls-2 {
        fill: #b5bac1;
      }
    </style>
  </defs>
  <g id="Ebene_1-2" data-name="Ebene 1">
    <g>
      <rect class="cls-1" x="0" width="168.29" height="168.29" rx="13.07" ry="13.07"/>
      <g>
        <path class="cls-2" d="M123.82,37.18l-8.81-2.3-22.62-2.3-26.45,1.15-19.56,1.53c-3.07,2.69-6.13,5.37-9.2,8.05.13,14.96.25,29.91.39,44.85,2.43,6.9,4.85,13.81,7.28,20.7l19.56,17.25,19.55,9.59,11.88-4.99,26.84-24.92,8.44-17.64v-44.08l-7.29-6.9ZM114.71,84.45l-5.49,11.46-22.41,20.81-2.33.98-10.89-5.34-14.69-12.96-4.96-14.1-.3-34.16,13.28-1.04,24.99-1.08,20.17,2.05,2.62.68v32.7Z"/>
        <polygon class="cls-2" points="67.43 58.29 61.91 58.72 62.13 83.87 65.93 94.66 78.2 105.5 83.87 108.28 102.5 90.96 106.51 82.59 106.51 58.75 91.68 57.24 67.43 58.29"/>
      </g>
    </g>
  </g>
</svg>