<?xml version="1.0" encoding="UTF-8"?>
<svg id="Ebene_2" data-name="Ebene 2" xmlns="http://www.w3.org/2000/svg" viewBox="0 0 168.29 168.29">
  <defs>
    <style>
      .cls-1 {
        fill: #1e1f21;
      }

      .cls-2 {
        fill: #b5bac1;
      }
    </style>
  </defs>
  <g id="Ebene_1-2" data-name="Ebene 1">
    <g>
      <rect class="cls-1" width="168.29" height="168.29" rx="13.07" ry="13.07"/>
      <path class="cls-2" d="M125.3,50.46H41.72l-5.37,8.68v54.86l7.16,3.83h79.23l5.88-3.07,3.33-4.09v-49.22l-6.64-10.99ZM61.13,98.87l-17.02-17.02,4.94-4.94,12.09,12.1,19.59-19.59,4.94,4.93-24.53,24.53ZM121.92,96.74l-2.5,1.47h-24.46l-2.2-.88-2.21-3.38.44-3.81,3.23-2.94h24.61l3.37,2.05.59,4.55-.88,2.94ZM121.92,79.62l-2.5,1.47h-24.46l-2.2-.88-2.21-3.38.44-3.81,3.23-2.94h24.61l3.37,2.05.59,4.55-.88,2.94Z"/>
    </g>
  </g>
</svg>