<?xml version="1.0" encoding="UTF-8"?>
<svg id="Ebene_2" data-name="Ebene 2" xmlns="http://www.w3.org/2000/svg" viewBox="0 0 168.29 168.29">
  <defs>
    <style>
      .cls-1 {
        fill: #1e1f21;
      }

      .cls-2 {
        fill: #b5bac1;
      }
    </style>
  </defs>
  <g id="Ebene_1-2" data-name="Ebene 1">
    <g>
      <rect class="cls-1" x="0" width="168.29" height="168.29" rx="13.07" ry="13.07"/>
      <g>
        <polygon class="cls-2" points="87.47 35.84 60.38 52.2 59.36 80.57 59.87 115.07 87.98 132.45 96.41 124.02 96.41 43.76 93.86 39.68 87.47 35.84"/>
        <polygon class="cls-2" points="39.68 64.21 36.61 80.82 38.4 99.23 41.46 102.8 53.22 110.22 52.2 83.38 53.73 57.82 39.68 64.21"/>
        <path class="cls-2" d="M112.26,87.09c.17-2.3.34-4.6.51-6.9l-4.28-5.5c-2.24-1.15-4.47-2.3-6.71-3.45v25.81c2.66-1.68,5.32-3.37,7.99-5.05.83-1.64,1.66-3.28,2.49-4.92Z"/>
        <path class="cls-2" d="M129.64,69.4l-9.2-13.7-12.78-4.89v10.03l7.67,2.2,5.37,10.77,1.02,12.23-1.02,9.05c-1.64,2.88-3.28,5.75-4.92,8.63-2.71,1.19-5.41,2.39-8.11,3.58v10.18c4.43-1.35,8.86-2.69,13.29-4.04l8.18-12.72,2.56-12.23v-9.3l-2.04-9.79Z"/>
      </g>
    </g>
  </g>
</svg>