<?xml version="1.0" encoding="UTF-8"?>
<svg id="Ebene_2" data-name="Ebene 2" xmlns="http://www.w3.org/2000/svg" viewBox="0 0 168.29 168.29">
  <defs>
    <style>
      .cls-1 {
        fill: #1e1f21;
      }

      .cls-2 {
        fill: #b5bac1;
      }
    </style>
  </defs>
  <g id="Ebene_1-2" data-name="Ebene 1">
    <g>
      <rect class="cls-1" width="168.29" height="168.29" rx="13.07" ry="13.07"/>
      <path class="cls-2" d="M130.86,53.69l-13.03-14.81-13.62-4.39h-30.31l-21.26,3.4-14.23,13.43-3.93,21.96,2.95,41.34,13.03,14.81,13.62,4.39h30.31l21.26-3.4,14.23-13.43,3.93-21.96-2.95-41.34ZM85,111.78l-3.26,1.92h-25l-2.88-1.15-2.88-4.41.57-4.98,4.22-3.83h25.19l4.41,2.68.77,5.94-1.15,3.83ZM116.16,89.42l-3.26,1.92h-56.16l-2.88-1.15-2.88-4.41.57-4.98,4.22-3.83h56.36l4.41,2.68.77,5.94-1.15,3.83ZM116.16,67.05l-3.26,1.92h-56.16l-2.88-1.15-2.88-4.41.57-4.98,4.22-3.83h56.36l4.41,2.68.77,5.94-1.15,3.83Z"/>
    </g>
  </g>
</svg>