<?xml version="1.0" encoding="UTF-8"?>
<svg id="Ebene_2" data-name="Ebene 2" xmlns="http://www.w3.org/2000/svg" viewBox="0 0 168.29 168.29">
  <defs>
    <style>
      .cls-1 {
        fill: #1e1f21;
      }

      .cls-2 {
        fill: #b5bac1;
      }
    </style>
  </defs>
  <g id="Ebene_1-2" data-name="Ebene 1">
    <g>
      <rect class="cls-1" width="168.29" height="168.29" rx="13.07" ry="13.07"/>
      <path class="cls-2" d="M130.86,53.69l-13.02-14.81-13.63-4.4h-30.31l-21.25,3.4-14.24,13.42-3.93,21.96,2.94,41.34,13.02,14.82,13.63,4.39h30.31l21.26-3.39,14.23-13.42,3.94-21.96-2.95-41.34ZM61.33,107.61h-6.52l-3.64-37.76h10.16v37.76ZM101.77,107.04h-34.88v-37.95c2.17-5.44,4.34-10.86,6.51-16.29,5.05-.49,10.1-.98,15.15-1.48-1.41,5.09-2.82,10.18-4.23,15.28h27.43l3.26,17.56-13.23,22.89Z"/>
    </g>
  </g>
</svg>