<?xml version="1.0" encoding="UTF-8"?>
<svg id="Ebene_2" data-name="Ebene 2" xmlns="http://www.w3.org/2000/svg" viewBox="0 0 168.29 168.29">
  <defs>
    <style>
      .cls-1 {
        fill: #b5bac1;
        fill-rule: evenodd;
      }

      .cls-2 {
        fill: #1e1f21;
      }
    </style>
  </defs>
  <g id="Ebene_1-2" data-name="Ebene 1">
    <g>
      <rect class="cls-2" width="168.29" height="168.29" rx="13.07" ry="13.07"/>
      <path class="cls-1" d="M116.6,116.2l-2.71-1.25-3.05-1.41-.29-3.35-3.46-39.75-.43-4.85,4.72-1.25,19.21-5.06-.68-9.53-13.03-14.82-13.62-4.39h-30.31l-21.26,3.39-14.23,13.42-3.94,21.96,2.95,41.34,13.02,14.82,13.62,4.39h30.32l13.37-2.14-1.48-2.52,3.91-3.13,7.36-5.89ZM101.57,102.92l-2.25,1.21-2.34-.61-7.9-7.9-9.61-9.61-.34-1.39-.43-1.81v-30.5l1.71-2.81,3.8-.49,2.45.73,1.22,2.08v29.62l.97.96,6.73,6.73,7.55,7.56.78,3.2-2.34,3.03ZM126.2,118.5l7.22,4.46-2.3,12.48-11.72,2.3-6.44-10.99-.09-.15,9.62-7.69,1.59-1.28.32-.25,1.8,1.12ZM112.86,69.94l18.15-4.78,3.74-.98-1.72,43.21-3.48,2.17-3.39,2.12-2.35,1.48-2.16-1-5.33-2.46-3.46-39.75Z"/>
    </g>
  </g>
</svg>