<?xml version="1.0" encoding="UTF-8"?>
<svg id="Ebene_2" data-name="Ebene 2" xmlns="http://www.w3.org/2000/svg" viewBox="0 0 168.29 168.29">
  <defs>
    <style>
      .cls-1 {
        fill: #1e1f21;
      }

      .cls-2 {
        fill: #b5bac1;
      }
    </style>
  </defs>
  <g id="Ebene_1-2" data-name="Ebene 1">
    <g>
      <rect class="cls-1" width="168.29" height="168.29" rx="13.07" ry="13.07"/>
      <path class="cls-2" d="M124.43,78.27c-3.82-1.64-7.63-3.28-11.45-4.92l-.43-.14c-4.43-1.25-8.86-2.51-13.28-3.76h-26.05l-4.43.71.93-20.66c1.99-1.37,3.99-2.73,5.99-4.09,2.78-.63,5.57-1.26,8.35-1.89,3.3.74,6.61,1.47,9.91,2.21,1.48,1.26,2.95,2.52,4.43,3.78.09,2,.17,4,.26,6.01h13.3l-4-12.97-10.48-8.86-13.42-.76-13.42.76-10.48,8.86-4.6,14.91v16.43c-3.62,2.23-7.24,4.47-10.86,6.71-1.1,7.44-2.2,14.87-3.3,22.31.84,7.17,1.69,14.36,2.53,21.53,3.96,3.15,7.92,6.3,11.88,9.45,4.47.38,8.95.76,13.42,1.15,9.59.12,19.17.25,28.76.39,5.49-1.22,10.99-2.44,16.48-3.65,3.45-2.36,6.9-4.72,10.35-7.09.71-7.28,1.41-14.56,2.11-21.84-.83-8.18-1.66-16.36-2.48-24.54ZM84.04,116.03l-12.01-12,12.01-12.01,12.01,12.01-12.01,12Z"/>
    </g>
  </g>
</svg>