<?xml version="1.0" encoding="UTF-8"?>
<svg id="Ebene_2" data-name="Ebene 2" xmlns="http://www.w3.org/2000/svg" viewBox="0 0 168.29 168.29">
  <defs>
    <style>
      .cls-1 {
        fill: #1e1f21;
      }

      .cls-2 {
        fill: #b5bac1;
      }
    </style>
  </defs>
  <g id="Ebene_1-2" data-name="Ebene 1">
    <g>
      <rect class="cls-1" width="168.29" height="168.29" rx="13.07" ry="13.07"/>
      <path class="cls-2" d="M94.53,78.03c.35,2.78.71,5.56,1.07,8.34-1.07,2.61-2.13,5.21-3.2,7.81-2.89.59-5.8,1.18-8.69,1.77-2.85-.94-5.68-1.89-8.53-2.84-.83-2.43-1.66-4.85-2.48-7.28.42-3.08.83-6.16,1.24-9.24,2.43-1.41,4.85-2.83,7.29-4.25h8.52c1.59,1.89,3.19,3.79,4.79,5.68ZM133.81,95.03l-3.93,21.96-14.24,13.42-21.25,3.39h-30.32l-13.62-4.39-13.02-14.82-2.95-41.34,3.94-21.96,14.23-13.42,21.26-3.4h30.31l13.62,4.4,13.03,14.81,2.94,41.34ZM115.88,84.15l-8.05-14.09-16.1-9.09-24.53,4.65-14.76,18.53,8.05,14.08,16.1,9.09,24.54-4.65,14.76-18.52ZM94.53,78.03c-1.6-1.89-3.2-3.79-4.79-5.68h-8.52c-2.44,1.42-4.86,2.84-7.29,4.25-.41,3.08-.82,6.17-1.24,9.24.83,2.43,1.66,4.85,2.48,7.28,2.85.94,5.68,1.89,8.53,2.84,2.89-.59,5.8-1.18,8.69-1.77,1.07-2.61,2.13-5.21,3.2-7.81-.35-2.78-.71-5.56-1.07-8.34ZM94.53,78.03c-1.6-1.89-3.2-3.79-4.79-5.68h-8.52c-2.44,1.42-4.86,2.84-7.29,4.25-.41,3.08-.82,6.17-1.24,9.24.83,2.43,1.66,4.85,2.48,7.28,2.85.94,5.68,1.89,8.53,2.84,2.89-.59,5.8-1.18,8.69-1.77,1.07-2.61,2.13-5.21,3.2-7.81-.35-2.78-.71-5.56-1.07-8.34Z"/>
    </g>
  </g>
</svg>